<svg id="Ebene_1" data-name="Ebene 1" xmlns="http://www.w3.org/2000/svg" viewBox="0 0 800 700"><title>videNo_onboarding</title><path d="M150,461.37h5.87l10.69,17.86,10.68-17.86h5.92l-14.07,22.19v15h-5v-15Z" style="fill:#1a1a1a"/><path d="M201.72,474.15q3.6,3.48,3.6,10.26a17.65,17.65,0,0,1-3.17,10.81q-3.17,4.27-9.82,4.28a11.07,11.07,0,0,1-8.82-3.78q-3.25-3.78-3.26-10.15,0-6.82,3.44-10.87a11.52,11.52,0,0,1,9.24-4A12.11,12.11,0,0,1,201.72,474.15Zm-2.82,18a17.17,17.17,0,0,0,1.66-7.62,13.67,13.67,0,0,0-1.2-6.16q-1.91-3.74-6.55-3.74a6.45,6.45,0,0,0-6,3.18,14.92,14.92,0,0,0-1.87,7.68,12.94,12.94,0,0,0,1.87,7.2,6.59,6.59,0,0,0,6,2.88Q197.23,495.57,198.9,492.15Z" style="fill:#1a1a1a"/><path d="M215.46,471.44v18a7.74,7.74,0,0,0,.64,3.39,4.45,4.45,0,0,0,4.41,2.43,6.24,6.24,0,0,0,6.31-4.25,17.24,17.24,0,0,0,.91-6.25V471.44h4.55v27.09H228l.05-4a9.15,9.15,0,0,1-2.16,2.6,9.36,9.36,0,0,1-6.2,2.13q-5.68,0-7.75-3.87a11.8,11.8,0,0,1-1.11-5.54V471.44Z" style="fill:#1a1a1a"/><path d="M245.13,463.4A2.83,2.83,0,0,0,243,465a6.46,6.46,0,0,0-.72,3.11,2.71,2.71,0,0,0,0,.29,1.35,1.35,0,0,0,.07.31h2.75v5.52h-5.41v-5.09a11.26,11.26,0,0,1,1.26-5.37,5.12,5.12,0,0,1,4.15-2.72Z" style="fill:#1a1a1a"/><path d="M251.36,471.44h4.32v4.68a10.54,10.54,0,0,1,2.61-3.33,6.77,6.77,0,0,1,4.78-2l.43,0,1,.1v4.81a5.55,5.55,0,0,0-.75-.1q-.35,0-.75,0a6.5,6.5,0,0,0-5.28,2.21,7.76,7.76,0,0,0-1.85,5.1v15.58h-4.55Z" style="fill:#1a1a1a"/><path d="M285.22,472.19a10.21,10.21,0,0,1,4.09,3.5,12.06,12.06,0,0,1,1.81,4.78,31.19,31.19,0,0,1,.41,6H271.82a11.82,11.82,0,0,0,1.93,6.64,6.46,6.46,0,0,0,5.6,2.49,7.19,7.19,0,0,0,5.65-2.36,8,8,0,0,0,1.67-3.18h4.48a9.37,9.37,0,0,1-1.18,3.33,12,12,0,0,1-2.23,3,10.47,10.47,0,0,1-5.09,2.73,15.37,15.37,0,0,1-3.69.41,11.3,11.3,0,0,1-8.53-3.69q-3.49-3.68-3.49-10.3t3.52-10.6a11.57,11.57,0,0,1,9.2-4.08A12.3,12.3,0,0,1,285.22,472.19Zm1.63,10.64a12,12,0,0,0-1.28-4.74c-1.24-2.19-3.3-3.28-6.2-3.28a6.85,6.85,0,0,0-5.22,2.26,8.65,8.65,0,0,0-2.23,5.76Z" style="fill:#1a1a1a"/><path d="M311.69,461.37h4.63v5.16h-4.63Zm0,10.2h4.63v27h-4.63Z" style="fill:#1a1a1a"/><path d="M323.2,471.44h4.32v3.85a12.12,12.12,0,0,1,4.08-3.42,10.85,10.85,0,0,1,4.78-1q5.76,0,7.79,4a14.28,14.28,0,0,1,1.11,6.3v17.37h-4.63V481.46a9.25,9.25,0,0,0-.73-4,4.46,4.46,0,0,0-4.4-2.53,9,9,0,0,0-2.66.33,6.81,6.81,0,0,0-3.29,2.23,6.65,6.65,0,0,0-1.48,2.77,19.08,19.08,0,0,0-.34,4.08v14.19H323.2Z" style="fill:#1a1a1a"/><path d="M354.25,471.44l7.24,22.06L369,471.44h5l-10.2,27.09H359l-10-27.09Z" style="fill:#1a1a1a"/><path d="M377.92,461.37h4.63v5.16h-4.63Zm0,10.2h4.63v27h-4.63Z" style="fill:#1a1a1a"/><path d="M390.34,463.88h4.6v7.56h4.33v3.72h-4.33v17.68a1.91,1.91,0,0,0,1,1.9,4,4,0,0,0,1.77.28l.71,0c.25,0,.55,0,.89-.08v3.61a8.83,8.83,0,0,1-1.64.33,14.85,14.85,0,0,1-1.83.1c-2.12,0-3.57-.54-4.32-1.63a7.22,7.22,0,0,1-1.14-4.23V475.16h-3.67v-3.72h3.67Z" style="fill:#1a1a1a"/><path d="M420.55,472.19a10.24,10.24,0,0,1,4.1,3.5,12.06,12.06,0,0,1,1.81,4.78,31.19,31.19,0,0,1,.41,6H407.16a11.74,11.74,0,0,0,1.93,6.64,6.46,6.46,0,0,0,5.6,2.49,7.19,7.19,0,0,0,5.65-2.36A8.09,8.09,0,0,0,422,490h4.48a9.37,9.37,0,0,1-1.18,3.33,12.2,12.2,0,0,1-2.23,3,10.46,10.46,0,0,1-5.1,2.73,15.25,15.25,0,0,1-3.69.41,11.29,11.29,0,0,1-8.52-3.69q-3.5-3.68-3.49-10.3t3.52-10.6a11.56,11.56,0,0,1,9.2-4.08A12.22,12.22,0,0,1,420.55,472.19Zm1.64,10.64a12.19,12.19,0,0,0-1.28-4.74q-1.86-3.29-6.2-3.28a6.85,6.85,0,0,0-5.22,2.26,8.6,8.6,0,0,0-2.23,5.76Z" style="fill:#1a1a1a"/><path d="M447.52,472.28a12.16,12.16,0,0,1,2.74,2.65V461.25h4.38v37.28h-4.1v-3.77a9.85,9.85,0,0,1-3.75,3.62,10.76,10.76,0,0,1-5,1.12,10,10,0,0,1-7.81-3.81q-3.3-3.81-3.3-10.13a17.51,17.51,0,0,1,3-10.26,9.86,9.86,0,0,1,8.61-4.34A9.57,9.57,0,0,1,447.52,472.28Zm-10.17,20.31a6.43,6.43,0,0,0,5.89,2.93,6.2,6.2,0,0,0,5.18-2.72q2-2.71,2-7.8c0-3.42-.7-6-2.09-7.6a6.48,6.48,0,0,0-5.16-2.47,6.81,6.81,0,0,0-5.55,2.63c-1.42,1.76-2.12,4.34-2.12,7.74A13.53,13.53,0,0,0,437.35,492.59Z" style="fill:#1a1a1a"/><path d="M476.75,463.88h4.6v7.56h4.33v3.72h-4.33v17.68a1.9,1.9,0,0,0,1,1.9,4,4,0,0,0,1.77.28l.7,0c.26,0,.55,0,.89-.08v3.61a8.72,8.72,0,0,1-1.63.33,15.13,15.13,0,0,1-1.84.1c-2.12,0-3.56-.54-4.32-1.63a7.22,7.22,0,0,1-1.14-4.23V475.16h-3.67v-3.72h3.67Z" style="fill:#1a1a1a"/><path d="M509.86,474.15q3.6,3.48,3.6,10.26a17.65,17.65,0,0,1-3.17,10.81q-3.17,4.27-9.82,4.28a11.07,11.07,0,0,1-8.82-3.78q-3.27-3.78-3.26-10.15,0-6.82,3.44-10.87a11.52,11.52,0,0,1,9.24-4A12.11,12.11,0,0,1,509.86,474.15Zm-2.82,18a17.31,17.31,0,0,0,1.66-7.62,13.67,13.67,0,0,0-1.2-6.16q-1.9-3.74-6.55-3.74a6.45,6.45,0,0,0-6,3.18,14.92,14.92,0,0,0-1.87,7.68,12.94,12.94,0,0,0,1.87,7.2,6.59,6.59,0,0,0,6,2.88Q505.37,495.57,507,492.15Z" style="fill:#1a1a1a"/><path d="M533.57,461.37h4.55v37.16h-4.55Z" style="fill:#1a1a1a"/><path d="M545,461.37h4.63v5.16H545Zm0,10.2h4.63v27H545Z" style="fill:#1a1a1a"/><path d="M559.17,490a6.47,6.47,0,0,0,1.16,3.5c1.17,1.46,3.2,2.2,6.09,2.2a9.14,9.14,0,0,0,4.54-1.1,3.66,3.66,0,0,0,2-3.41,2.9,2.9,0,0,0-1.57-2.65,19,19,0,0,0-4-1.29l-3.68-.91a18.25,18.25,0,0,1-5.19-1.93,5.72,5.72,0,0,1-3-5.11,7.75,7.75,0,0,1,2.81-6.22,11.31,11.31,0,0,1,7.55-2.38q6.2,0,8.94,3.6a7.7,7.7,0,0,1,1.67,4.9h-4.3a5.23,5.23,0,0,0-1.11-2.79q-1.61-1.79-5.57-1.79a6.74,6.74,0,0,0-4,1,3,3,0,0,0-1.36,2.59,3.19,3.19,0,0,0,1.78,2.83,11,11,0,0,0,3,1.11l3.06.73a24.08,24.08,0,0,1,6.71,2.3,6.13,6.13,0,0,1,2.65,5.49,8.33,8.33,0,0,1-2.78,6.25q-2.77,2.63-8.46,2.63-6.12,0-8.67-2.74a10.33,10.33,0,0,1-2.73-6.8Z" style="fill:#1a1a1a"/><path d="M583.28,463.88h4.6v7.56h4.33v3.72h-4.33v17.68a1.91,1.91,0,0,0,1,1.9,4,4,0,0,0,1.77.28l.71,0c.25,0,.55,0,.89-.08v3.61a8.83,8.83,0,0,1-1.64.33,14.85,14.85,0,0,1-1.83.1c-2.13,0-3.57-.54-4.33-1.63a7.22,7.22,0,0,1-1.13-4.23V475.16h-3.67v-3.72h3.67Z" style="fill:#1a1a1a"/><path d="M613.49,472.19a10.24,10.24,0,0,1,4.1,3.5,12.06,12.06,0,0,1,1.81,4.78,31.39,31.39,0,0,1,.4,6H600.1a11.66,11.66,0,0,0,1.93,6.64,6.45,6.45,0,0,0,5.6,2.49,7.15,7.15,0,0,0,5.64-2.36A8,8,0,0,0,615,490h4.47a9.53,9.53,0,0,1-1.17,3.33,12.2,12.2,0,0,1-2.23,3,10.5,10.5,0,0,1-5.1,2.73,15.37,15.37,0,0,1-3.69.41,11.29,11.29,0,0,1-8.52-3.69q-3.5-3.68-3.5-10.3a15.66,15.66,0,0,1,3.52-10.6,11.59,11.59,0,0,1,9.21-4.08A12.22,12.22,0,0,1,613.49,472.19Zm1.63,10.64a11.85,11.85,0,0,0-1.28-4.74c-1.23-2.19-3.3-3.28-6.19-3.28a6.84,6.84,0,0,0-5.22,2.26,8.6,8.6,0,0,0-2.23,5.76Z" style="fill:#1a1a1a"/><path d="M625.57,471.44h4.33v3.85a12.09,12.09,0,0,1,4.07-3.42,10.88,10.88,0,0,1,4.78-1c3.85,0,6.44,1.34,7.79,4a14.28,14.28,0,0,1,1.11,6.3v17.37H643V481.46a9.24,9.24,0,0,0-.74-4,4.46,4.46,0,0,0-4.4-2.53,9,9,0,0,0-2.66.33,7.48,7.48,0,0,0-4.77,5,19.08,19.08,0,0,0-.34,4.08v14.19h-4.55Z" style="fill:#1a1a1a"/><rect x="186.99" y="127.89" width="427.05" height="264.16" style="fill:#fff"/><path d="M613.54,128.38V391.55H187.48V128.38H613.54m1-1h-428V392.54h428V127.4Z" style="fill:#333"/><rect x="234.45" y="174.98" width="326.45" height="194.02" style="fill:#fff"/><path d="M560.45,175.43V368.55H234.9V175.43H560.45m.9-.9H234V369.45H561.35V174.53Z" style="fill:#333"/><path d="M190.9,112.67H609.1a19.19,19.19,0,0,1,19.19,19.19V387a19.19,19.19,0,0,1-19.19,19.19H185.23a13.52,13.52,0,0,1-13.52-13.52V131.85A19.19,19.19,0,0,1,190.9,112.67Z" style="fill:none;stroke:#333;stroke-miterlimit:10;stroke-width:3.317513108253479px"/><line x1="590.07" y1="149.21" x2="203.82" y2="149.21" style="fill:#fff;stroke:#333;stroke-miterlimit:10;stroke-width:0.5726807124353802px"/><circle cx="309.38" cy="259.19" r="50.32" style="fill:#1677ff"/><polygon points="368.79 223.22 301.1 340.47 436.48 340.47 368.79 223.22" style="fill:#999"/><path d="M349,308.66h-5.07v8.59H339V293.37h10.4a8.47,8.47,0,0,1,5.73,1.85q2.14,1.84,2.14,5.71c0,2.82-.71,4.82-2.14,6A9.39,9.39,0,0,1,349,308.66Zm2.34-5a3.48,3.48,0,0,0,1-2.72,3.25,3.25,0,0,0-1-2.66,4.25,4.25,0,0,0-2.75-.79h-4.65v7h4.65A4.09,4.09,0,0,0,351.33,303.69Z" style="fill:#1a1a1a"/><path d="M369.49,303.85c-1.86,0-3.11.61-3.75,1.81a7.18,7.18,0,0,0-.53,3.15v8.44h-4.65V299.59H365v3.08a9.84,9.84,0,0,1,1.86-2.42,5.09,5.09,0,0,1,3.37-1.08h.22l.39,0v4.73l-.77-.06Z" style="fill:#1a1a1a"/><path d="M388.63,312.06a5.85,5.85,0,0,1-1.63,3.19,8,8,0,0,1-6.35,2.58,9,9,0,0,1-5.95-2.17c-1.72-1.45-2.57-3.8-2.57-7.06q0-4.59,2.32-7a8,8,0,0,1,6-2.45,9.23,9.23,0,0,1,4,.83,7,7,0,0,1,2.92,2.6,8.89,8.89,0,0,1,1.34,3.65,23.51,23.51,0,0,1,.15,3.5H376.77a4.41,4.41,0,0,0,1.67,3.72,3.9,3.9,0,0,0,2.3.67,3.31,3.31,0,0,0,2.32-.81,3.93,3.93,0,0,0,.86-1.22Zm-4.56-5.41a4,4,0,0,0-1.12-2.78,3.42,3.42,0,0,0-2.46-.94,3.14,3.14,0,0,0-2.49,1,5,5,0,0,0-1.11,2.72Z" style="fill:#1a1a1a"/><path d="M404.13,300.4a5.7,5.7,0,0,1,2.39,4.57H401.9a2.74,2.74,0,0,0-.5-1.41,3.15,3.15,0,0,0-2.59-.94,3.76,3.76,0,0,0-2.15.47,1.34,1.34,0,0,0-.64,1.1,1.21,1.21,0,0,0,.68,1.15,28.71,28.71,0,0,0,4.81,1.28,8.85,8.85,0,0,1,4.13,2A4.44,4.44,0,0,1,407,311.9a5.38,5.38,0,0,1-1.95,4.29c-1.3,1.1-3.31,1.66-6,1.66s-4.83-.59-6.15-1.76a5.74,5.74,0,0,1-2-4.48h4.69a3,3,0,0,0,.63,1.75,4.28,4.28,0,0,0,3.17.92,4.89,4.89,0,0,0,2.17-.4,1.36,1.36,0,0,0,.15-2.4,26.67,26.67,0,0,0-4.81-1.39,10,10,0,0,1-4.23-1.87,4,4,0,0,1-1.23-3.17,5.5,5.5,0,0,1,1.92-4.2,7.67,7.67,0,0,1,5.4-1.76A9.94,9.94,0,0,1,404.13,300.4Z" style="fill:#1a1a1a"/><path d="M425.53,312.06a5.79,5.79,0,0,1-1.63,3.19,8,8,0,0,1-6.35,2.58,9,9,0,0,1-5.95-2.17Q409,313.48,409,308.6q0-4.59,2.32-7a8,8,0,0,1,6-2.45,9.23,9.23,0,0,1,4,.83,7,7,0,0,1,2.92,2.6,8.89,8.89,0,0,1,1.34,3.65,23.51,23.51,0,0,1,.15,3.5H413.68a4.38,4.38,0,0,0,1.66,3.72,3.9,3.9,0,0,0,2.3.67,3.31,3.31,0,0,0,2.32-.81,3.77,3.77,0,0,0,.86-1.22ZM421,306.65a4.08,4.08,0,0,0-1.11-2.78,3.46,3.46,0,0,0-2.47-.94,3.14,3.14,0,0,0-2.49,1,5,5,0,0,0-1.11,2.72Z" style="fill:#1a1a1a"/><path d="M437.18,303a3.2,3.2,0,0,0-3.22,2,6.7,6.7,0,0,0-.46,2.69v9.56h-4.6V299.62h4.46v2.58a7.69,7.69,0,0,1,1.68-2,5.82,5.82,0,0,1,3.61-1.07,6.84,6.84,0,0,1,4.48,1.43c1.16,1,1.75,2.54,1.75,4.76v11.89h-4.74V306.51a4.9,4.9,0,0,0-.37-2.14A2.61,2.61,0,0,0,437.18,303Z" style="fill:#1a1a1a"/><path d="M457.22,314v3.45l-2.19.08c-2.18.07-3.67-.3-4.47-1.13a3.38,3.38,0,0,1-.78-2.45V303h-2.46v-3.29h2.46v-4.92h4.57v4.92h2.87V303h-2.87v9.33a2.05,2.05,0,0,0,.28,1.35,3,3,0,0,0,1.68.27h.45Z" style="fill:#1a1a1a"/><path d="M460.85,301.5q1.83-2.33,6.28-2.33a11.1,11.1,0,0,1,5.15,1.15c1.5.77,2.26,2.21,2.26,4.34v8.1q0,.84,0,2a2.52,2.52,0,0,0,.27,1.23,1.64,1.64,0,0,0,.68.54v.68h-5a4.88,4.88,0,0,1-.29-1c0-.31-.1-.67-.13-1.07a9.72,9.72,0,0,1-2.2,1.77,6.68,6.68,0,0,1-3.37.86,5.8,5.8,0,0,1-4-1.37,4.86,4.86,0,0,1-1.57-3.88,5.05,5.05,0,0,1,2.52-4.72,11.31,11.31,0,0,1,4-1.13l1.58-.19a7.4,7.4,0,0,0,1.83-.41,1.39,1.39,0,0,0,1-1.31,1.57,1.57,0,0,0-.75-1.5,4.77,4.77,0,0,0-2.21-.41,2.9,2.9,0,0,0-2.32.81,3.33,3.33,0,0,0-.64,1.62h-4.46A6.79,6.79,0,0,1,460.85,301.5Zm3.43,12.41a2.39,2.39,0,0,0,1.59.53,4.69,4.69,0,0,0,2.74-.87,3.72,3.72,0,0,0,1.31-3.19v-1.72a5.23,5.23,0,0,1-.88.45,7.23,7.23,0,0,1-1.23.31l-1,.2a6.51,6.51,0,0,0-2.09.63,2.1,2.1,0,0,0-1.07,2A2,2,0,0,0,464.28,313.91Z" style="fill:#1a1a1a"/><path d="M486.72,314v3.45l-2.19.08c-2.18.07-3.67-.3-4.47-1.13a3.38,3.38,0,0,1-.78-2.45V303h-2.46v-3.29h2.46v-4.92h4.57v4.92h2.87V303h-2.87v9.33a2.14,2.14,0,0,0,.27,1.35,3,3,0,0,0,1.69.27h.44Z" style="fill:#1a1a1a"/><path d="M494.43,293.22v4.26h-4.68v-4.26Zm0,6.37v17.66h-4.68V299.59Z" style="fill:#1a1a1a"/><path d="M513.62,301.83a10.95,10.95,0,0,1,0,13.27q-2.24,2.76-6.79,2.76t-6.78-2.76a10.95,10.95,0,0,1,0-13.27q2.24-2.81,6.78-2.81T513.62,301.83Zm-6.8,1.1a3.68,3.68,0,0,0-3.12,1.43,8.24,8.24,0,0,0,0,8.19,4.09,4.09,0,0,0,6.23,0,8.3,8.3,0,0,0,0-8.19A3.65,3.65,0,0,0,506.82,302.93Z" style="fill:#1a1a1a"/><path d="M527.47,303a3.21,3.21,0,0,0-3.22,2,6.88,6.88,0,0,0-.46,2.69v9.56h-4.6V299.62h4.46v2.58a7.69,7.69,0,0,1,1.68-2,5.83,5.83,0,0,1,3.62-1.07,6.83,6.83,0,0,1,4.47,1.43c1.17,1,1.75,2.54,1.75,4.76v11.89h-4.73V306.51a4.88,4.88,0,0,0-.38-2.14A2.6,2.6,0,0,0,527.47,303Z" style="fill:#1a1a1a"/><rect x="313.06" y="556.44" width="319.02" height="21" style="fill:#22b573;opacity:0.4"/><path d="M172,534.2h4.44v7.3h4.18v3.59h-4.18v17.06a1.85,1.85,0,0,0,.93,1.83,3.92,3.92,0,0,0,1.71.27h.68c.25,0,.53,0,.86-.09v3.49a9,9,0,0,1-1.58.32,13.86,13.86,0,0,1-1.77.1c-2.05,0-3.44-.52-4.17-1.58a6.91,6.91,0,0,1-1.1-4.08V545.09h-3.54V541.5H172Z" style="fill:#1a1a1a"/><path d="M204,544.11q3.47,3.36,3.46,9.9a17.11,17.11,0,0,1-3,10.44q-3.06,4.13-9.48,4.12a10.67,10.67,0,0,1-8.51-3.64q-3.15-3.64-3.15-9.8,0-6.58,3.32-10.49a11.12,11.12,0,0,1,8.92-3.9A11.72,11.72,0,0,1,204,544.11Zm-2.73,17.37a16.58,16.58,0,0,0,1.6-7.35,13.1,13.1,0,0,0-1.16-6,6.51,6.51,0,0,0-6.32-3.61,6.21,6.21,0,0,0-5.79,3.08,14.3,14.3,0,0,0-1.81,7.41,12.45,12.45,0,0,0,1.81,7,6.35,6.35,0,0,0,5.74,2.78Q199.65,564.79,201.26,561.48Z" style="fill:#1a1a1a"/><path d="M227.62,534.2h4.44v7.3h4.18v3.59h-4.18v17.06A1.85,1.85,0,0,0,233,564a3.92,3.92,0,0,0,1.71.27h.68c.25,0,.53,0,.86-.09v3.49a9,9,0,0,1-1.58.32,13.86,13.86,0,0,1-1.77.1c-2,0-3.44-.52-4.17-1.58a7,7,0,0,1-1.1-4.08V545.09h-3.54V541.5h3.54Z" style="fill:#1a1a1a"/><path d="M240.63,531.66H245V545a12.73,12.73,0,0,1,2.8-2.79,9.56,9.56,0,0,1,5.3-1.39c3.79,0,6.37,1.33,7.72,4a13.61,13.61,0,0,1,1.1,6v16.77h-4.52V551.17a9.38,9.38,0,0,0-.73-4.23q-1.2-2.15-4.5-2.15a7.49,7.49,0,0,0-4.95,1.88c-1.48,1.26-2.22,3.62-2.22,7.11v13.86h-4.4Z" style="fill:#1a1a1a"/><path d="M268.44,531.78h4.47v5h-4.47Zm0,9.84h4.47v26h-4.47Z" style="fill:#1a1a1a"/><path d="M282.16,559.44a6.3,6.3,0,0,0,1.12,3.37c1.13,1.42,3.09,2.12,5.88,2.12a8.83,8.83,0,0,0,4.39-1.06,3.51,3.51,0,0,0,1.89-3.28,2.79,2.79,0,0,0-1.51-2.56,18,18,0,0,0-3.82-1.25l-3.55-.88a17.38,17.38,0,0,1-5-1.85,5.54,5.54,0,0,1-2.88-4.94,7.48,7.48,0,0,1,2.71-6,10.88,10.88,0,0,1,7.28-2.3c4,0,6.87,1.16,8.64,3.47a7.51,7.51,0,0,1,1.61,4.74h-4.15a5,5,0,0,0-1.08-2.7q-1.55-1.73-5.37-1.72a6.49,6.49,0,0,0-3.86.95,2.92,2.92,0,0,0-1.31,2.5,3.07,3.07,0,0,0,1.72,2.73,10.61,10.61,0,0,0,2.94,1.07l3,.71a22.85,22.85,0,0,1,6.46,2.22,5.88,5.88,0,0,1,2.57,5.3,8.05,8.05,0,0,1-2.69,6c-1.78,1.69-4.51,2.54-8.16,2.54-3.94,0-6.73-.89-8.37-2.65a9.93,9.93,0,0,1-2.63-6.56Z" style="fill:#1a1a1a"/><path d="M334.31,554.71h-7.64v12.93H319.2v-36h15.67a12.79,12.79,0,0,1,8.64,2.78q3.23,2.79,3.23,8.62,0,6.38-3.23,9C341.36,553.83,338.3,554.71,334.31,554.71Zm3.51-7.5a5.19,5.19,0,0,0,1.47-4.1,4.87,4.87,0,0,0-1.48-4,6.44,6.44,0,0,0-4.14-1.19h-7V548.5h7A6.12,6.12,0,0,0,337.82,547.21Z" style="fill:#1a1a1a"/><path d="M365.19,547.45c-2.8,0-4.68.92-5.64,2.74a10.71,10.71,0,0,0-.8,4.73v12.72h-7V541h6.64v4.64a15.07,15.07,0,0,1,2.81-3.64,7.63,7.63,0,0,1,5.08-1.63h.33l.59,0v7.13c-.44-.05-.83-.08-1.17-.1Z" style="fill:#1a1a1a"/><path d="M394.05,559.83a8.81,8.81,0,0,1-2.47,4.81q-3.4,3.89-9.57,3.88a13.51,13.51,0,0,1-9-3.27q-3.87-3.27-3.88-10.64,0-6.92,3.51-10.6a11.94,11.94,0,0,1,9.09-3.68,13.94,13.94,0,0,1,6,1.24,10.54,10.54,0,0,1,4.4,3.93,13.45,13.45,0,0,1,2,5.49,35.74,35.74,0,0,1,.22,5.28H376.18c.1,2.67.93,4.54,2.51,5.61a5.91,5.91,0,0,0,3.47,1,5,5,0,0,0,3.49-1.22,5.89,5.89,0,0,0,1.3-1.83Zm-6.88-8.15a6.09,6.09,0,0,0-1.68-4.19,5.2,5.2,0,0,0-3.72-1.43,4.74,4.74,0,0,0-3.75,1.52,7.53,7.53,0,0,0-1.67,4.1Z" style="fill:#1a1a1a"/><path d="M417.41,542.25c2.09,1.34,3.28,3.63,3.59,6.89h-7a4.06,4.06,0,0,0-.75-2.13c-.77-.94-2.07-1.41-3.91-1.41a5.53,5.53,0,0,0-3.23.71,2,2,0,0,0-1,1.66,1.81,1.81,0,0,0,1,1.73,43.4,43.4,0,0,0,7.25,1.93,13.24,13.24,0,0,1,6.22,3,6.73,6.73,0,0,1,2.06,5,8.08,8.08,0,0,1-2.95,6.45q-2.94,2.51-9.09,2.51t-9.27-2.65a8.64,8.64,0,0,1-3-6.75h7.06a4.69,4.69,0,0,0,.95,2.64c.86.92,2.46,1.39,4.79,1.39a7.43,7.43,0,0,0,3.26-.61,2.06,2.06,0,0,0,.23-3.62q-1-.6-7.25-2.1c-3-.74-5.14-1.68-6.38-2.8a6.13,6.13,0,0,1-1.85-4.79,8.27,8.27,0,0,1,2.89-6.33c1.93-1.77,4.65-2.65,8.14-2.65A15.15,15.15,0,0,1,417.41,542.25Z" style="fill:#1a1a1a"/><path d="M449.67,559.83a8.88,8.88,0,0,1-2.47,4.81q-3.42,3.89-9.57,3.88a13.49,13.49,0,0,1-9-3.27q-3.89-3.27-3.88-10.64,0-6.92,3.5-10.6a12,12,0,0,1,9.09-3.68,14,14,0,0,1,6,1.24,10.46,10.46,0,0,1,4.39,3.93,13.46,13.46,0,0,1,2,5.49,35.74,35.74,0,0,1,.22,5.28H431.79q.15,4,2.52,5.61a5.89,5.89,0,0,0,3.47,1,5,5,0,0,0,3.49-1.22,5.87,5.87,0,0,0,1.29-1.83Zm-6.89-8.15a6,6,0,0,0-1.67-4.19,5.2,5.2,0,0,0-3.73-1.43,4.7,4.7,0,0,0-3.74,1.52,7.54,7.54,0,0,0-1.68,4.1Z" style="fill:#1a1a1a"/><path d="M467.22,546.18a4.86,4.86,0,0,0-4.86,3,10.25,10.25,0,0,0-.68,4v14.4h-6.94V541.08h6.72V545a11.72,11.72,0,0,1,2.54-3,8.83,8.83,0,0,1,5.44-1.61,10.27,10.27,0,0,1,6.75,2.16q2.63,2.16,2.63,7.16v17.92h-7.13V551.46a7.25,7.25,0,0,0-.57-3.22C470.44,546.87,469.14,546.18,467.22,546.18Z" style="fill:#1a1a1a"/><path d="M497.42,562.69v5.2l-3.3.12c-3.29.11-5.53-.45-6.74-1.71a5.08,5.08,0,0,1-1.17-3.68V546.23H482.5v-5h3.71v-7.42h6.89v7.42h4.32v5H493.1V560.3a3.17,3.17,0,0,0,.41,2,4.56,4.56,0,0,0,2.54.41l.67,0C497,562.72,497.19,562.71,497.42,562.69Z" style="fill:#1a1a1a"/><path d="M502.89,543.91q2.76-3.51,9.47-3.51a16.89,16.89,0,0,1,7.76,1.73q3.4,1.74,3.4,6.54v12.21c0,.85,0,1.87.05,3.08a3.83,3.83,0,0,0,.41,1.85,2.46,2.46,0,0,0,1,.81v1h-7.57a7.64,7.64,0,0,1-.44-1.51c-.08-.47-.15-1-.2-1.61a14.13,14.13,0,0,1-3.32,2.66,10,10,0,0,1-5.07,1.29,8.71,8.71,0,0,1-6-2.06,7.35,7.35,0,0,1-2.36-5.85q0-4.9,3.78-7.1a16.77,16.77,0,0,1,6.11-1.71l2.37-.29a10.86,10.86,0,0,0,2.75-.61,2.09,2.09,0,0,0,1.49-2,2.35,2.35,0,0,0-1.13-2.26,7.17,7.17,0,0,0-3.33-.62,4.38,4.38,0,0,0-3.5,1.22,5.13,5.13,0,0,0-1,2.44h-6.72A10.22,10.22,0,0,1,502.89,543.91Zm5.17,18.71a3.68,3.68,0,0,0,2.4.8,7.07,7.07,0,0,0,4.13-1.32c1.27-.88,1.92-2.48,2-4.81v-2.58a7.9,7.9,0,0,1-1.33.67,10.71,10.71,0,0,1-1.84.47l-1.57.3a10,10,0,0,0-3.15,1,3.19,3.19,0,0,0-1.61,2.95A3.1,3.1,0,0,0,508.06,562.62Z" style="fill:#1a1a1a"/><path d="M541.88,562.69v5.2l-3.3.12c-3.29.11-5.53-.45-6.74-1.71a5.08,5.08,0,0,1-1.17-3.68V546.23H527v-5h3.71v-7.42h6.89v7.42h4.32v5h-4.32V560.3c0,1.09.13,1.77.41,2a4.54,4.54,0,0,0,2.54.41l.67,0C541.42,562.72,541.65,562.71,541.88,562.69Z" style="fill:#1a1a1a"/><path d="M553.5,531.44v6.42h-7.06v-6.42Zm0,9.59v26.61h-7.06V541Z" style="fill:#1a1a1a"/><path d="M582.43,544.4a16.54,16.54,0,0,1,0,20q-3.37,4.15-10.23,4.16c-4.58,0-8-1.39-10.23-4.16a16.54,16.54,0,0,1,0-20c2.25-2.81,5.65-4.22,10.23-4.22S580.18,541.59,582.43,544.4Zm-10.26,1.66a5.54,5.54,0,0,0-4.69,2.16,12.36,12.36,0,0,0,0,12.34,6.13,6.13,0,0,0,9.38,0,12.43,12.43,0,0,0,0-12.34A5.52,5.52,0,0,0,572.17,546.06Z" style="fill:#1a1a1a"/><path d="M603.3,546.18a4.86,4.86,0,0,0-4.86,3,10.43,10.43,0,0,0-.68,4v14.4h-6.93V541.08h6.71V545a11.92,11.92,0,0,1,2.54-3,8.85,8.85,0,0,1,5.44-1.61,10.3,10.3,0,0,1,6.76,2.16c1.74,1.44,2.62,3.83,2.62,7.16v17.92h-7.13V551.46a7.41,7.41,0,0,0-.56-3.22C606.53,546.87,605.22,546.18,603.3,546.18Z" style="fill:#1a1a1a"/></svg>