<svg id="Ebene_1" data-name="Ebene 1" xmlns="http://www.w3.org/2000/svg" viewBox="0 0 800 700"><title>videNo_onboarding</title><path d="M434.25,387.79H134.15v-8.67h300.1Z" style="fill:#22b573;opacity:0.4"/><path d="M388.68,648.28H134.15v-9.41H388.68Z" style="fill:#22b573;opacity:0.4"/><path d="M518.89,133.46H134.07v-9.15H518.89Z" style="fill:#22b573;opacity:0.4"/><path d="M148.82,64.24h3.4c-.43,1.18-1.4,3.85-2.89,8-1.11,3.14-2.05,5.71-2.8,7.69q-2.67,7-3.76,8.54A4.3,4.3,0,0,1,139,90.05a8.07,8.07,0,0,1-1,0c-.24,0-.52-.1-.86-.19V87a11.76,11.76,0,0,0,1.16.28,5.12,5.12,0,0,0,.63,0,2.18,2.18,0,0,0,1.25-.28,2.79,2.79,0,0,0,.68-.69c.05-.09.26-.56.61-1.4s.61-1.47.77-1.88l-6.77-18.84H139l4.9,14.91Z" style="fill:#1a1a1a"/><path d="M168.14,66.07q2.43,2.36,2.43,6.93a12,12,0,0,1-2.14,7.31q-2.15,2.88-6.64,2.88a7.46,7.46,0,0,1-5.95-2.55,10.13,10.13,0,0,1-2.21-6.85A11,11,0,0,1,156,66.44a7.76,7.76,0,0,1,6.24-2.73A8.22,8.22,0,0,1,168.14,66.07Zm-1.91,12.16a11.6,11.6,0,0,0,1.12-5.14,9.27,9.27,0,0,0-.81-4.17,4.55,4.55,0,0,0-4.42-2.53,4.35,4.35,0,0,0-4.06,2.16,10,10,0,0,0-1.27,5.18,8.71,8.71,0,0,0,1.27,4.87,4.44,4.44,0,0,0,4,1.94A4.19,4.19,0,0,0,166.23,78.23Z" style="fill:#1a1a1a"/><path d="M177.42,64.24V76.39a5.2,5.2,0,0,0,.43,2.29,3,3,0,0,0,3,1.64,4.2,4.2,0,0,0,4.26-2.87,11.64,11.64,0,0,0,.62-4.22v-9h3.07v18.3h-2.9l0-2.7a6,6,0,0,1-1.46,1.76A6.33,6.33,0,0,1,180.26,83q-3.84,0-5.23-2.61a8,8,0,0,1-.76-3.75V64.24Z" style="fill:#1a1a1a"/><path d="M193.89,64.24h2.93V67.4a6.92,6.92,0,0,1,1.76-2.24,4.53,4.53,0,0,1,3.23-1.33l.29,0,.7.07v3.24l-.51-.06a3.94,3.94,0,0,0-.5,0,4.4,4.4,0,0,0-3.57,1.49A5.25,5.25,0,0,0,197,72V82.54h-3.08Z" style="fill:#1a1a1a"/><path d="M216.62,64.24l3.52,14.43,3.57-14.43h3.45l3.59,14.34,3.74-14.34h3.08l-5.32,18.3h-3.19l-3.73-14.16-3.6,14.16h-3.2l-5.28-18.3Z" style="fill:#1a1a1a"/><path d="M251.77,64.75a6.89,6.89,0,0,1,2.77,2.36,8.2,8.2,0,0,1,1.22,3.23,21.5,21.5,0,0,1,.27,4H242.72A7.9,7.9,0,0,0,244,78.86a4.35,4.35,0,0,0,3.78,1.68A4.86,4.86,0,0,0,251.62,79a5.42,5.42,0,0,0,1.13-2.15h3a6.45,6.45,0,0,1-.8,2.25,8,8,0,0,1-1.5,2A7.07,7.07,0,0,1,250,82.92a10.44,10.44,0,0,1-2.49.27,7.68,7.68,0,0,1-5.76-2.48,9.74,9.74,0,0,1-2.36-7,10.55,10.55,0,0,1,2.38-7.16A7.83,7.83,0,0,1,248,63.83,8.24,8.24,0,0,1,251.77,64.75Zm1.1,7.18a7.93,7.93,0,0,0-.86-3.19,4.42,4.42,0,0,0-4.19-2.23A4.61,4.61,0,0,0,244.3,68a5.78,5.78,0,0,0-1.51,3.89Z" style="fill:#1a1a1a"/><path d="M259.67,57.35h3v9.11a7,7,0,0,1,2.42-2,6.87,6.87,0,0,1,3.06-.69,7.18,7.18,0,0,1,5.56,2.35q2.15,2.36,2.14,6.93a11.8,11.8,0,0,1-2.11,7.21,6.85,6.85,0,0,1-5.85,2.88,6.06,6.06,0,0,1-3.54-1,8.52,8.52,0,0,1-1.83-1.92v2.34h-2.84Zm11.76,21.08a9.76,9.76,0,0,0,1.25-5.23,8.57,8.57,0,0,0-1.25-4.79,4.09,4.09,0,0,0-3.66-1.9,5.11,5.11,0,0,0-3.69,1.56q-1.59,1.56-1.59,5.13a11.35,11.35,0,0,0,.65,4.18,4.51,4.51,0,0,0,4.55,3A4.11,4.11,0,0,0,271.43,78.43Z" style="fill:#1a1a1a"/><path d="M291.49,65.22q1.93,1.5,2.33,5.17h-3a5.54,5.54,0,0,0-1.25-2.81,4,4,0,0,0-3.13-1.12,4.32,4.32,0,0,0-4.2,2.87,11.32,11.32,0,0,0-.82,4.59,8.69,8.69,0,0,0,1.16,4.63,4.51,4.51,0,0,0,6.69.71,6.42,6.42,0,0,0,1.55-3.19h3a7.24,7.24,0,0,1-7.81,7,7,7,0,0,1-5.73-2.62,10.05,10.05,0,0,1-2.13-6.55q0-4.83,2.34-7.51a7.59,7.59,0,0,1,6-2.68A8,8,0,0,1,291.49,65.22Z" style="fill:#1a1a1a"/><path d="M306.7,71.47a1.67,1.67,0,0,0,1.42-.89,2.65,2.65,0,0,0,.21-1.18,2.49,2.49,0,0,0-1.12-2.29,5.9,5.9,0,0,0-3.2-.72,4.05,4.05,0,0,0-3.41,1.31,4.34,4.34,0,0,0-.73,2.15H297c.05-2.27.79-3.84,2.19-4.73a9,9,0,0,1,4.89-1.32A9.94,9.94,0,0,1,309.32,65a4.17,4.17,0,0,1,2,3.83V79.4a1.35,1.35,0,0,0,.19.77,1,1,0,0,0,.83.29l.46,0a5.52,5.52,0,0,0,.55-.07v2.27a9.28,9.28,0,0,1-1.09.26,8.89,8.89,0,0,1-1,0,2.51,2.51,0,0,1-2.3-1.13,4.15,4.15,0,0,1-.53-1.69,7.84,7.84,0,0,1-2.7,2.13,8.31,8.31,0,0,1-3.88.91,5.76,5.76,0,0,1-4.16-1.55A5.09,5.09,0,0,1,296,77.75a5,5,0,0,1,1.59-3.94,7.55,7.55,0,0,1,4.17-1.73Zm-6.47,8.31a3.62,3.62,0,0,0,2.3.76,7,7,0,0,0,3.15-.75,4.22,4.22,0,0,0,2.56-4.07V73.24a5.19,5.19,0,0,1-1.45.6,11.12,11.12,0,0,1-1.74.34l-1.86.24a7.19,7.19,0,0,0-2.51.7,2.73,2.73,0,0,0-1.43,2.56A2.53,2.53,0,0,0,300.23,79.78Z" style="fill:#1a1a1a"/><path d="M316.36,64.24h3v2.6a10.36,10.36,0,0,1,2-2,6,6,0,0,1,3.46-1,5.44,5.44,0,0,1,3.52,1.08,5.6,5.6,0,0,1,1.36,1.81,6.7,6.7,0,0,1,2.41-2.18,6.79,6.79,0,0,1,3.12-.71q3.69,0,5,2.67a8.65,8.65,0,0,1,.72,3.86V82.54h-3.2V69.83a3,3,0,0,0-.91-2.51,3.61,3.61,0,0,0-2.23-.69,4.42,4.42,0,0,0-3.12,1.22,5.34,5.34,0,0,0-1.31,4.05V82.54h-3.13V70.6a6.33,6.33,0,0,0-.44-2.72A2.72,2.72,0,0,0,324,66.6,4.51,4.51,0,0,0,320.86,68q-1.42,1.35-1.42,4.89v9.7h-3.08Z" style="fill:#1a1a1a"/><path d="M357.07,76.8a4.39,4.39,0,0,0,.78,2.36c.79,1,2.17,1.49,4.12,1.49A6.13,6.13,0,0,0,365,79.9a2.45,2.45,0,0,0,1.32-2.29,2,2,0,0,0-1.05-1.8,13.08,13.08,0,0,0-2.68-.87l-2.48-.62A12.24,12.24,0,0,1,356.64,73a3.9,3.9,0,0,1-2-3.46,5.25,5.25,0,0,1,1.9-4.2,7.62,7.62,0,0,1,5.1-1.61c2.8,0,4.81.81,6.05,2.43a5.24,5.24,0,0,1,1.12,3.31h-2.9a3.45,3.45,0,0,0-.76-1.88c-.72-.81-2-1.21-3.76-1.21a4.52,4.52,0,0,0-2.7.67,2.06,2.06,0,0,0-.92,1.75A2.16,2.16,0,0,0,359,70.74a7.55,7.55,0,0,0,2.05.75l2.07.49a16.22,16.22,0,0,1,4.53,1.56,4.11,4.11,0,0,1,1.8,3.71,5.63,5.63,0,0,1-1.88,4.22c-1.25,1.18-3.16,1.78-5.72,1.78q-4.14,0-5.86-1.86a7,7,0,0,1-1.84-4.59Z" style="fill:#1a1a1a"/><path d="M373.35,59.13h3.11v5.11h2.93v2.51h-2.93v12a1.3,1.3,0,0,0,.65,1.28,2.7,2.7,0,0,0,1.2.19h.48l.6-.06v2.44a6.71,6.71,0,0,1-1.1.23,12.12,12.12,0,0,1-1.24.06,3.34,3.34,0,0,1-2.93-1.1,4.91,4.91,0,0,1-.77-2.86V66.75h-2.47V64.24h2.47Z" style="fill:#1a1a1a"/><path d="M382.55,64.24h2.92V67.4a7.07,7.07,0,0,1,1.76-2.24,4.55,4.55,0,0,1,3.23-1.33l.29,0,.7.07v3.24l-.5-.06a4.1,4.1,0,0,0-.51,0,4.41,4.41,0,0,0-3.57,1.49A5.24,5.24,0,0,0,385.63,72V82.54h-3.08Z" style="fill:#1a1a1a"/><path d="M405.42,64.75a6.82,6.82,0,0,1,2.77,2.36,8.37,8.37,0,0,1,1.23,3.23,21.5,21.5,0,0,1,.27,4H396.37a8,8,0,0,0,1.31,4.48,4.35,4.35,0,0,0,3.78,1.68A4.89,4.89,0,0,0,405.28,79a5.55,5.55,0,0,0,1.13-2.15h3a6.41,6.41,0,0,1-.79,2.25,8,8,0,0,1-1.51,2,7.08,7.08,0,0,1-3.44,1.85,10.58,10.58,0,0,1-2.5.27,7.64,7.64,0,0,1-5.75-2.48,9.7,9.7,0,0,1-2.36-7,10.59,10.59,0,0,1,2.37-7.16,7.85,7.85,0,0,1,6.22-2.75A8.24,8.24,0,0,1,405.42,64.75Zm1.11,7.18a8.09,8.09,0,0,0-.87-3.19,4.4,4.4,0,0,0-4.18-2.23A4.62,4.62,0,0,0,398,68a5.83,5.83,0,0,0-1.51,3.89Z" style="fill:#1a1a1a"/><path d="M423.39,71.47a1.67,1.67,0,0,0,1.42-.89A2.65,2.65,0,0,0,425,69.4a2.51,2.51,0,0,0-1.12-2.29,5.9,5.9,0,0,0-3.2-.72,4.05,4.05,0,0,0-3.41,1.31,4.34,4.34,0,0,0-.73,2.15h-2.87c.05-2.27.78-3.84,2.19-4.73a9,9,0,0,1,4.89-1.32A9.94,9.94,0,0,1,426,65a4.17,4.17,0,0,1,2,3.83V79.4a1.35,1.35,0,0,0,.19.77,1,1,0,0,0,.83.29l.46,0a5.52,5.52,0,0,0,.55-.07v2.27a9.28,9.28,0,0,1-1.09.26,8.89,8.89,0,0,1-1,0,2.51,2.51,0,0,1-2.3-1.13,4.15,4.15,0,0,1-.53-1.69,7.79,7.79,0,0,1-2.71,2.13,8.24,8.24,0,0,1-3.87.91,5.8,5.8,0,0,1-4.17-1.55,5.12,5.12,0,0,1-1.61-3.86,5,5,0,0,1,1.59-3.94,7.55,7.55,0,0,1,4.17-1.73Zm-6.47,8.31a3.6,3.6,0,0,0,2.3.76,7,7,0,0,0,3.15-.75,4.22,4.22,0,0,0,2.56-4.07V73.24a5.19,5.19,0,0,1-1.45.6,11.12,11.12,0,0,1-1.74.34l-1.86.24a7.19,7.19,0,0,0-2.51.7,2.73,2.73,0,0,0-1.43,2.56A2.53,2.53,0,0,0,416.92,79.78Z" style="fill:#1a1a1a"/><path d="M433.05,64.24h3v2.6a10.36,10.36,0,0,1,2-2,6,6,0,0,1,3.46-1,5.44,5.44,0,0,1,3.52,1.08,5.6,5.6,0,0,1,1.36,1.81,6.7,6.7,0,0,1,2.41-2.18,6.78,6.78,0,0,1,3.11-.71c2.47,0,4.14.89,5,2.67a8.65,8.65,0,0,1,.72,3.86V82.54h-3.2V69.83a3,3,0,0,0-.91-2.51,3.61,3.61,0,0,0-2.23-.69,4.42,4.42,0,0,0-3.12,1.22,5.34,5.34,0,0,0-1.31,4.05V82.54h-3.13V70.6a6.33,6.33,0,0,0-.44-2.72,2.72,2.72,0,0,0-2.62-1.28A4.51,4.51,0,0,0,437.55,68q-1.43,1.35-1.42,4.89v9.7h-3.08Z" style="fill:#1a1a1a"/><path d="M473.36,64.24l3.52,14.43,3.57-14.43h3.45l3.59,14.34,3.74-14.34h3.08L489,82.54H485.8l-3.73-14.16-3.6,14.16h-3.2L470,64.24Z" style="fill:#1a1a1a"/><path d="M497.2,57.44h3.13v3.49H497.2Zm0,6.89h3.13V82.54H497.2Z" style="fill:#1a1a1a"/><path d="M505.07,57.44h3.07v25.1h-3.07Z" style="fill:#1a1a1a"/><path d="M512.84,57.44h3.08v25.1h-3.08Z" style="fill:#1a1a1a"/><path d="M146.76,113.41c-2,0-3.28.64-3.95,1.92a7.5,7.5,0,0,0-.56,3.31v8.9h-4.91V108.92H142v3.24a10.07,10.07,0,0,1,2-2.54,5.3,5.3,0,0,1,3.55-1.15h.23l.42,0v5c-.31,0-.58-.06-.82-.07Z" style="fill:#1a1a1a"/><path d="M167,122.08a6.24,6.24,0,0,1-1.72,3.36,8.47,8.47,0,0,1-6.7,2.72,9.47,9.47,0,0,1-6.28-2.29q-2.72-2.3-2.71-7.45c0-3.23.81-5.7,2.45-7.42a8.38,8.38,0,0,1,6.36-2.58,9.78,9.78,0,0,1,4.19.87,7.37,7.37,0,0,1,3.08,2.75,9.47,9.47,0,0,1,1.42,3.85,26,26,0,0,1,.15,3.69H154.45a4.64,4.64,0,0,0,1.76,3.93,4.12,4.12,0,0,0,2.43.7,3.47,3.47,0,0,0,2.44-.85,4.16,4.16,0,0,0,.91-1.28Zm-4.82-5.71a4.22,4.22,0,0,0-1.17-2.93,3.62,3.62,0,0,0-2.61-1,3.3,3.3,0,0,0-2.62,1.06,5.27,5.27,0,0,0-1.17,2.87Z" style="fill:#1a1a1a"/><path d="M180.94,114a2.38,2.38,0,0,0-2.41-1.35,2.87,2.87,0,0,0-2.8,1.35,5.11,5.11,0,0,0-.4,2.29v11.21H170.4V109h4.73v2.72a7.67,7.67,0,0,1,1.71-2.07,5.82,5.82,0,0,1,3.67-1.09,5.75,5.75,0,0,1,3.45.94,5.34,5.34,0,0,1,1.61,2.24,6.13,6.13,0,0,1,2.38-2.41,7.16,7.16,0,0,1,3.35-.77,6.59,6.59,0,0,1,2.42.47,5.4,5.4,0,0,1,2.17,1.68,5.28,5.28,0,0,1,1.06,2.39,16,16,0,0,1,.17,2.75l0,11.74h-5V115.68a3.88,3.88,0,0,0-.34-1.74,2.44,2.44,0,0,0-2.39-1.3,2.8,2.8,0,0,0-2.79,1.68,5.26,5.26,0,0,0-.39,2.13v11.09h-4.91V116.45A6.21,6.21,0,0,0,180.94,114Z" style="fill:#1a1a1a"/><path d="M202.3,110.93q1.94-2.46,6.63-2.46a11.81,11.81,0,0,1,5.44,1.22q2.37,1.2,2.37,4.58v8.54c0,.59,0,1.31,0,2.15a2.63,2.63,0,0,0,.29,1.3,1.76,1.76,0,0,0,.72.57v.71h-5.3a5.22,5.22,0,0,1-.31-1.06c-.06-.33-.1-.7-.14-1.12a9.78,9.78,0,0,1-2.32,1.86,7,7,0,0,1-3.55.91,6.13,6.13,0,0,1-4.18-1.45,5.15,5.15,0,0,1-1.65-4.09,5.3,5.3,0,0,1,2.65-5,11.67,11.67,0,0,1,4.27-1.2l1.66-.21a7.55,7.55,0,0,0,1.93-.42,1.48,1.48,0,0,0,1-1.39,1.66,1.66,0,0,0-.79-1.58,5,5,0,0,0-2.34-.43,3,3,0,0,0-2.44.85,3.52,3.52,0,0,0-.68,1.71h-4.7A7.13,7.13,0,0,1,202.3,110.93ZM205.93,124a2.51,2.51,0,0,0,1.67.57,5,5,0,0,0,2.9-.92,3.94,3.94,0,0,0,1.37-3.37v-1.81a5.41,5.41,0,0,1-.93.47,7.39,7.39,0,0,1-1.29.33l-1.09.21a7.14,7.14,0,0,0-2.21.66,2.24,2.24,0,0,0-1.12,2.07A2.12,2.12,0,0,0,205.93,124Z" style="fill:#1a1a1a"/><path d="M226.07,102.2v4.49h-4.93V102.2Zm0,6.72v18.62h-4.93V108.92Z" style="fill:#1a1a1a"/><path d="M239.56,112.52a3.39,3.39,0,0,0-3.4,2.1,7.25,7.25,0,0,0-.48,2.84v10.08h-4.85V109h4.7v2.72a8,8,0,0,1,1.77-2.07,6.2,6.2,0,0,1,3.81-1.13,7.25,7.25,0,0,1,4.73,1.51c1.22,1,1.84,2.69,1.84,5v12.54h-5V116.21a5.15,5.15,0,0,0-.4-2.25A2.76,2.76,0,0,0,239.56,112.52Z" style="fill:#1a1a1a"/><path d="M277.43,111.27a10.92,10.92,0,0,1,2.36,7,10.81,10.81,0,0,1-2.36,7q-2.35,2.91-7.16,2.91t-7.16-2.91a10.81,10.81,0,0,1-2.36-7,10.92,10.92,0,0,1,2.36-7q2.36-3,7.16-3T277.43,111.27Zm-7.18,1.17A3.89,3.89,0,0,0,267,114a8.69,8.69,0,0,0,0,8.64,3.9,3.9,0,0,0,3.29,1.52,3.86,3.86,0,0,0,3.28-1.52,8.69,8.69,0,0,0,0-8.64A3.85,3.85,0,0,0,270.25,112.44Z" style="fill:#1a1a1a"/><path d="M292,112.52a3.39,3.39,0,0,0-3.4,2.1,7.25,7.25,0,0,0-.48,2.84v10.08h-4.85V109H288v2.72a8,8,0,0,1,1.78-2.07,6.18,6.18,0,0,1,3.81-1.13,7.22,7.22,0,0,1,4.72,1.51c1.23,1,1.84,2.69,1.84,5v12.54h-5V116.21a5.16,5.16,0,0,0-.39-2.25A2.78,2.78,0,0,0,292,112.52Z" style="fill:#1a1a1a"/><path d="M322,122.66l3.84-13.74H331l-6.39,18.32q-1.84,5.3-2.92,6.57c-.72.85-2.16,1.27-4.31,1.27h-1c-.26,0-.66,0-1.18-.06v-3.89l.62,0a7.6,7.6,0,0,0,1.36-.05,2.62,2.62,0,0,0,1.1-.39,2.74,2.74,0,0,0,.79-1.22,2.56,2.56,0,0,0,.3-1.13l-6.84-19.44h5.42Z" style="fill:#1a1a1a"/><path d="M349.38,111.27a10.92,10.92,0,0,1,2.36,7,10.81,10.81,0,0,1-2.36,7c-1.58,1.94-4,2.91-7.16,2.91s-5.59-1-7.16-2.91a10.75,10.75,0,0,1-2.36-7,10.86,10.86,0,0,1,2.36-7c1.57-2,3.95-3,7.16-3S347.8,109.3,349.38,111.27Zm-7.18,1.17a3.88,3.88,0,0,0-3.29,1.51,8.69,8.69,0,0,0,0,8.64,4.31,4.31,0,0,0,6.57,0,8.69,8.69,0,0,0,0-8.64A3.86,3.86,0,0,0,342.2,112.44Z" style="fill:#1a1a1a"/><path d="M367.17,124.91c-.05.06-.16.23-.34.52a3.9,3.9,0,0,1-.65.75,6.84,6.84,0,0,1-2.22,1.4,7.52,7.52,0,0,1-2.5.37c-2.76,0-4.61-1-5.57-3a11.29,11.29,0,0,1-.8-4.84V108.92h5v11.22a6,6,0,0,0,.37,2.4,2.62,2.62,0,0,0,2.62,1.42,3.41,3.41,0,0,0,3.41-2,7.28,7.28,0,0,0,.48-2.89V108.92h4.94v18.62h-4.73Z" style="fill:#1a1a1a"/><path d="M386,113.41c-2,0-3.28.64-4,1.92a7.36,7.36,0,0,0-.56,3.31v8.9h-4.91V108.92h4.65v3.24a10.07,10.07,0,0,1,2-2.54,5.3,5.3,0,0,1,3.55-1.15H387l.42,0v5c-.31,0-.58-.06-.82-.07Z" style="fill:#1a1a1a"/><path d="M416.9,102.39v25.15h-4.73V125a6.86,6.86,0,0,1-2.38,2.41,6.68,6.68,0,0,1-3.32.76,6.91,6.91,0,0,1-5.49-2.65,10.08,10.08,0,0,1-2.23-6.77,11.61,11.61,0,0,1,2.2-7.5,7.12,7.12,0,0,1,5.87-2.74,5.9,5.9,0,0,1,5.14,2.8v-8.88Zm-13.13,16a7.37,7.37,0,0,0,1,4.12,3.41,3.41,0,0,0,3.08,1.55,3.61,3.61,0,0,0,3.14-1.53,6.81,6.81,0,0,0,1.08-4q0-3.41-1.73-4.88a3.69,3.69,0,0,0-2.46-.89,3.45,3.45,0,0,0-3.14,1.61A7.57,7.57,0,0,0,403.77,118.35Z" style="fill:#1a1a1a"/><path d="M437.27,122.08a6.19,6.19,0,0,1-1.73,3.36,8.44,8.44,0,0,1-6.69,2.72,9.45,9.45,0,0,1-6.28-2.29q-2.71-2.3-2.71-7.45c0-3.23.81-5.7,2.45-7.42a8.38,8.38,0,0,1,6.36-2.58,9.78,9.78,0,0,1,4.19.87,7.37,7.37,0,0,1,3.08,2.75,9.47,9.47,0,0,1,1.42,3.85,26,26,0,0,1,.15,3.69H424.76a4.64,4.64,0,0,0,1.76,3.93,4.12,4.12,0,0,0,2.43.7,3.49,3.49,0,0,0,2.44-.85,4.16,4.16,0,0,0,.91-1.28Zm-4.82-5.71a4.22,4.22,0,0,0-1.17-2.93,3.62,3.62,0,0,0-2.61-1,3.3,3.3,0,0,0-2.62,1.06,5.27,5.27,0,0,0-1.17,2.87Z" style="fill:#1a1a1a"/><path d="M439,108.92h5.47l3.88,13.74,4-13.74h5.22l-6.71,18.62h-5.14Z" style="fill:#1a1a1a"/><path d="M465.26,102.2v4.49h-4.93V102.2Zm0,6.72v18.62h-4.93V108.92Z" style="fill:#1a1a1a"/><path d="M486.1,115.6h-5a4.5,4.5,0,0,0-.7-1.88,3,3,0,0,0-2.55-1.13,3.37,3.37,0,0,0-3.37,2.44,10.24,10.24,0,0,0-.48,3.46,9.44,9.44,0,0,0,.48,3.3,3.26,3.26,0,0,0,3.28,2.32,2.92,2.92,0,0,0,2.43-.92,4.6,4.6,0,0,0,.87-2.4h5a8.17,8.17,0,0,1-1.61,4.21,7.82,7.82,0,0,1-6.79,3.19c-3,0-5.2-.88-6.61-2.66a10.82,10.82,0,0,1-2.12-6.92q0-4.8,2.34-7.47a8.15,8.15,0,0,1,6.46-2.67,9.8,9.8,0,0,1,5.74,1.57Q485.68,111.62,486.1,115.6Z" style="fill:#1a1a1a"/><path d="M505.39,122.08a6.24,6.24,0,0,1-1.72,3.36,8.47,8.47,0,0,1-6.7,2.72,9.45,9.45,0,0,1-6.28-2.29q-2.71-2.3-2.71-7.45c0-3.23.81-5.7,2.45-7.42a8.38,8.38,0,0,1,6.36-2.58,9.78,9.78,0,0,1,4.19.87,7.37,7.37,0,0,1,3.08,2.75,9.47,9.47,0,0,1,1.42,3.85,26,26,0,0,1,.15,3.69H492.88a4.64,4.64,0,0,0,1.76,3.93,4.12,4.12,0,0,0,2.43.7,3.49,3.49,0,0,0,2.44-.85,4.16,4.16,0,0,0,.91-1.28Zm-4.82-5.71a4.22,4.22,0,0,0-1.17-2.93,3.62,3.62,0,0,0-2.61-1,3.3,3.3,0,0,0-2.62,1.06,5.27,5.27,0,0,0-1.17,2.87Z" style="fill:#1a1a1a"/><path d="M147.19,327a1.68,1.68,0,0,0,1.42-.88,2.87,2.87,0,0,0,.2-1.19,2.51,2.51,0,0,0-1.12-2.29,6,6,0,0,0-3.19-.71,4,4,0,0,0-3.42,1.31,4.3,4.3,0,0,0-.73,2.14h-2.87q.09-3.39,2.19-4.72a9,9,0,0,1,4.89-1.33,9.94,9.94,0,0,1,5.24,1.23,4.17,4.17,0,0,1,2,3.83v10.55a1.32,1.32,0,0,0,.2.76c.13.2.41.29.83.29a3.86,3.86,0,0,0,.46,0c.17,0,.35,0,.54-.08v2.28a8.42,8.42,0,0,1-1.09.25,7,7,0,0,1-1,0,2.53,2.53,0,0,1-2.31-1.12,4.37,4.37,0,0,1-.53-1.7,7.86,7.86,0,0,1-2.7,2.14,8.4,8.4,0,0,1-3.88.91,5.76,5.76,0,0,1-4.16-1.55,5.13,5.13,0,0,1-1.62-3.87,5,5,0,0,1,1.59-3.94,7.54,7.54,0,0,1,4.17-1.72Zm-6.48,8.31a3.63,3.63,0,0,0,2.31.77,7,7,0,0,0,3.14-.75,4.23,4.23,0,0,0,2.57-4.08v-2.47a5.32,5.32,0,0,1-1.45.6,13,13,0,0,1-1.74.34l-1.86.24a7.18,7.18,0,0,0-2.52.7,2.72,2.72,0,0,0-1.42,2.56A2.51,2.51,0,0,0,140.71,335.3Z" style="fill:#1a1a1a"/><path d="M156.84,319.77h2.92v2.59a8.14,8.14,0,0,1,2.76-2.3,7.26,7.26,0,0,1,3.23-.7c2.59,0,4.35.9,5.26,2.71a9.68,9.68,0,0,1,.75,4.26v11.74h-3.13V326.53a6.3,6.3,0,0,0-.49-2.7,3,3,0,0,0-3-1.71,6,6,0,0,0-1.8.23,4.64,4.64,0,0,0-2.22,1.5,4.57,4.57,0,0,0-1,1.87,12.93,12.93,0,0,0-.23,2.76v9.59h-3.08Z" style="fill:#1a1a1a"/><path d="M187.75,319.77h3.4c-.43,1.17-1.4,3.85-2.89,8-1.11,3.15-2,5.71-2.8,7.7q-2.67,7-3.76,8.54a4.29,4.29,0,0,1-3.75,1.53,6.47,6.47,0,0,1-1-.05,6.93,6.93,0,0,1-.86-.19v-2.8a8.91,8.91,0,0,0,1.16.27,3.78,3.78,0,0,0,.63.05,2.18,2.18,0,0,0,1.25-.28,2.48,2.48,0,0,0,.68-.69c.05-.09.26-.55.61-1.4s.61-1.46.77-1.87l-6.77-18.84h3.49l4.9,14.91Z" style="fill:#1a1a1a"/><path d="M203.28,319.85h3v2.43a7.35,7.35,0,0,1,2-1.93,6.44,6.44,0,0,1,3.66-1,6.91,6.91,0,0,1,5.3,2.39q2.17,2.39,2.17,6.81c0,4-1,6.83-3.14,8.54a7.11,7.11,0,0,1-4.63,1.63,6.34,6.34,0,0,1-3.48-.91,8.1,8.1,0,0,1-1.84-1.76v9.35h-3.07Zm11.57,14.35a8.58,8.58,0,0,0,1.43-5.39,10.1,10.1,0,0,0-.63-3.76,4.65,4.65,0,0,0-8.78.17,12.42,12.42,0,0,0-.64,4.34,9.1,9.1,0,0,0,.64,3.61,4.67,4.67,0,0,0,8,1Z" style="fill:#1a1a1a"/><path d="M223.08,319.77H226v3.16a6.84,6.84,0,0,1,1.76-2.25,4.56,4.56,0,0,1,3.23-1.32h.29l.7.07v3.25a3.44,3.44,0,0,0-.51-.07l-.5,0a4.38,4.38,0,0,0-3.57,1.5,5.23,5.23,0,0,0-1.25,3.44v10.53h-3.08Z" style="fill:#1a1a1a"/><path d="M247.92,321.59c1.61,1.57,2.42,3.89,2.42,6.94a11.9,11.9,0,0,1-2.14,7.3q-2.13,2.9-6.63,2.89a7.48,7.48,0,0,1-6-2.55,10.15,10.15,0,0,1-2.2-6.86,11,11,0,0,1,2.32-7.34,7.78,7.78,0,0,1,6.25-2.73A8.21,8.21,0,0,1,247.92,321.59ZM246,333.76a11.62,11.62,0,0,0,1.13-5.15,9.22,9.22,0,0,0-.81-4.16,4.55,4.55,0,0,0-4.43-2.53,4.37,4.37,0,0,0-4.06,2.15,10.08,10.08,0,0,0-1.26,5.19,8.73,8.73,0,0,0,1.26,4.86,4.46,4.46,0,0,0,4,1.95A4.17,4.17,0,0,0,246,333.76Z" style="fill:#1a1a1a"/><path d="M266.21,320.74q1.94,1.5,2.33,5.18h-3a5.46,5.46,0,0,0-1.25-2.81,3.92,3.92,0,0,0-3.12-1.12,4.33,4.33,0,0,0-4.21,2.87,11.32,11.32,0,0,0-.82,4.59,8.65,8.65,0,0,0,1.16,4.62,4.51,4.51,0,0,0,6.69.71,6.3,6.3,0,0,0,1.55-3.19h3a7.22,7.22,0,0,1-7.81,7A7,7,0,0,1,255,336a10,10,0,0,1-2.14-6.56q0-4.82,2.34-7.5a7.56,7.56,0,0,1,6-2.68A8,8,0,0,1,266.21,320.74Z" style="fill:#1a1a1a"/><path d="M282.92,320.27a6.92,6.92,0,0,1,2.77,2.37,8.31,8.31,0,0,1,1.23,3.23,21.38,21.38,0,0,1,.27,4H273.87a8,8,0,0,0,1.31,4.48,4.33,4.33,0,0,0,3.78,1.69,4.86,4.86,0,0,0,3.82-1.6,5.51,5.51,0,0,0,1.13-2.14h3a6.3,6.3,0,0,1-.79,2.24,8.07,8.07,0,0,1-1.51,2,7.16,7.16,0,0,1-3.44,1.85,10.58,10.58,0,0,1-2.5.27,7.62,7.62,0,0,1-5.75-2.49,9.69,9.69,0,0,1-2.36-7,10.57,10.57,0,0,1,2.37-7.16,7.82,7.82,0,0,1,6.22-2.75A8.23,8.23,0,0,1,282.92,320.27Zm1.11,7.19a8.14,8.14,0,0,0-.87-3.2A4.41,4.41,0,0,0,279,322a4.62,4.62,0,0,0-3.53,1.53,5.81,5.81,0,0,0-1.51,3.89Z" style="fill:#1a1a1a"/><path d="M292.91,332.33a4.51,4.51,0,0,0,.79,2.36c.79,1,2.16,1.48,4.11,1.48a6.09,6.09,0,0,0,3.07-.74,2.46,2.46,0,0,0,1.33-2.3,1.94,1.94,0,0,0-1.06-1.79,13.17,13.17,0,0,0-2.67-.88l-2.49-.61a12.45,12.45,0,0,1-3.51-1.3,3.87,3.87,0,0,1-2-3.45,5.26,5.26,0,0,1,1.9-4.21,7.62,7.62,0,0,1,5.1-1.6q4.18,0,6,2.42a5.3,5.3,0,0,1,1.13,3.32h-2.91a3.54,3.54,0,0,0-.75-1.89c-.72-.8-2-1.2-3.76-1.2a4.65,4.65,0,0,0-2.71.66,2.06,2.06,0,0,0-.91,1.75,2.14,2.14,0,0,0,1.2,1.91,7,7,0,0,0,2.06.75l2.07.5a16.22,16.22,0,0,1,4.53,1.55,4.14,4.14,0,0,1,1.79,3.71,5.58,5.58,0,0,1-1.88,4.22q-1.87,1.78-5.71,1.78-4.14,0-5.86-1.85a7,7,0,0,1-1.84-4.59Z" style="fill:#1a1a1a"/><path d="M310.41,332.33a4.51,4.51,0,0,0,.79,2.36c.79,1,2.16,1.48,4.11,1.48a6.09,6.09,0,0,0,3.07-.74,2.46,2.46,0,0,0,1.33-2.3,1.94,1.94,0,0,0-1.06-1.79,13.17,13.17,0,0,0-2.67-.88l-2.49-.61a12.45,12.45,0,0,1-3.51-1.3,3.87,3.87,0,0,1-2-3.45,5.26,5.26,0,0,1,1.9-4.21,7.62,7.62,0,0,1,5.1-1.6q4.18,0,6,2.42a5.3,5.3,0,0,1,1.13,3.32h-2.91a3.54,3.54,0,0,0-.75-1.89c-.72-.8-2-1.2-3.76-1.2a4.65,4.65,0,0,0-2.71.66,2.06,2.06,0,0,0-.91,1.75,2.14,2.14,0,0,0,1.2,1.91,7,7,0,0,0,2.06.75l2.07.5a16.22,16.22,0,0,1,4.53,1.55,4.14,4.14,0,0,1,1.79,3.71,5.58,5.58,0,0,1-1.88,4.22q-1.87,1.78-5.71,1.78-4.14,0-5.86-1.85a7,7,0,0,1-1.84-4.59Z" style="fill:#1a1a1a"/><path d="M326.08,313h3.13v3.49h-3.13Zm0,6.89h3.13v18.22h-3.13Z" style="fill:#1a1a1a"/><path d="M333.86,319.77h2.92v2.59a8.21,8.21,0,0,1,2.75-2.3,7.32,7.32,0,0,1,3.23-.7q3.9,0,5.27,2.71a9.68,9.68,0,0,1,.75,4.26v11.74h-3.13V326.53a6.3,6.3,0,0,0-.49-2.7,3,3,0,0,0-3-1.71,5.94,5.94,0,0,0-1.79.23,4.55,4.55,0,0,0-2.22,1.5,4.46,4.46,0,0,0-1,1.87,12.3,12.3,0,0,0-.23,2.76v9.59h-3.08Z" style="fill:#1a1a1a"/><path d="M363.5,320.5a8.45,8.45,0,0,1,1.77,1.74v-2.3h2.84v16.64a12.36,12.36,0,0,1-1,5.51q-1.92,3.72-7.21,3.72a8.86,8.86,0,0,1-5-1.32,5.16,5.16,0,0,1-2.24-4.15h3.12a3.52,3.52,0,0,0,.89,1.9,4.5,4.5,0,0,0,3.26,1c2.35,0,3.88-.84,4.61-2.5a14,14,0,0,0,.59-5.25,6,6,0,0,1-2.21,2.09,7.39,7.39,0,0,1-3.42.68,7.28,7.28,0,0,1-5.19-2.11c-1.48-1.41-2.22-3.73-2.22-7a10.63,10.63,0,0,1,2.24-7.18,6.9,6.9,0,0,1,5.4-2.58A6.68,6.68,0,0,1,363.5,320.5Zm.38,3.3a4.48,4.48,0,0,0-3.56-1.64,4.39,4.39,0,0,0-4.42,3,12,12,0,0,0-.63,4.26,7.57,7.57,0,0,0,1.25,4.7,4,4,0,0,0,3.36,1.62,4.71,4.71,0,0,0,4.64-3,9.67,9.67,0,0,0,.75-4A7.64,7.64,0,0,0,363.88,323.8Z" style="fill:#1a1a1a"/><path d="M382.51,313h3.13v3.49h-3.13Zm0,6.89h3.13v18.22h-3.13Z" style="fill:#1a1a1a"/><path d="M392.12,332.33a4.42,4.42,0,0,0,.78,2.36c.79,1,2.17,1.48,4.12,1.48a6.12,6.12,0,0,0,3.07-.74,2.47,2.47,0,0,0,1.33-2.3,2,2,0,0,0-1.06-1.79,13.57,13.57,0,0,0-2.68-.88l-2.48-.61a12.2,12.2,0,0,1-3.51-1.3,3.88,3.88,0,0,1-2-3.45,5.29,5.29,0,0,1,1.9-4.21,7.64,7.64,0,0,1,5.1-1.6c2.8,0,4.81.81,6.05,2.42a5.23,5.23,0,0,1,1.12,3.32h-2.9a3.48,3.48,0,0,0-.76-1.89c-.72-.8-2-1.2-3.76-1.2a4.6,4.6,0,0,0-2.7.66,2.07,2.07,0,0,0-.92,1.75,2.14,2.14,0,0,0,1.21,1.91,6.94,6.94,0,0,0,2.05.75l2.08.5a16,16,0,0,1,4.52,1.55,4.13,4.13,0,0,1,1.8,3.71,5.62,5.62,0,0,1-1.88,4.22q-1.87,1.78-5.72,1.78-4.14,0-5.86-1.85a7,7,0,0,1-1.84-4.59Z" style="fill:#1a1a1a"/><path d="M417.26,312.88h3V322a6.75,6.75,0,0,1,2.42-2,6.82,6.82,0,0,1,3.05-.69,7.16,7.16,0,0,1,5.57,2.35q2.13,2.34,2.13,6.93a11.89,11.89,0,0,1-2.1,7.21,6.88,6.88,0,0,1-5.86,2.87,6,6,0,0,1-3.53-1,8.68,8.68,0,0,1-1.84-1.91v2.34h-2.83ZM429,334a9.71,9.71,0,0,0,1.24-5.23,8.53,8.53,0,0,0-1.24-4.78,4.09,4.09,0,0,0-3.66-1.9,5.15,5.15,0,0,0-3.7,1.55q-1.57,1.56-1.58,5.13a11.2,11.2,0,0,0,.65,4.19,4.49,4.49,0,0,0,4.54,3A4.13,4.13,0,0,0,429,334Z" style="fill:#1a1a1a"/><path d="M448.29,320.27a6.89,6.89,0,0,1,2.76,2.37,8.15,8.15,0,0,1,1.23,3.23,21.38,21.38,0,0,1,.27,4H439.24a7.88,7.88,0,0,0,1.3,4.48,4.36,4.36,0,0,0,3.78,1.69,4.85,4.85,0,0,0,3.82-1.6,5.38,5.38,0,0,0,1.13-2.14h3a6.3,6.3,0,0,1-.79,2.24,8.07,8.07,0,0,1-1.51,2,7.12,7.12,0,0,1-3.44,1.85,10.58,10.58,0,0,1-2.5.27,7.62,7.62,0,0,1-5.75-2.49,9.69,9.69,0,0,1-2.36-7,10.57,10.57,0,0,1,2.37-7.16,7.82,7.82,0,0,1,6.22-2.75A8.3,8.3,0,0,1,448.29,320.27Zm1.1,7.19a8.14,8.14,0,0,0-.87-3.2,4.41,4.41,0,0,0-4.18-2.22,4.63,4.63,0,0,0-3.53,1.53,5.81,5.81,0,0,0-1.51,3.89Z" style="fill:#1a1a1a"/><path d="M456.45,313h3.12v3.49h-3.12Zm0,6.89h3.12v18.22h-3.12Z" style="fill:#1a1a1a"/><path d="M464.22,319.77h2.92v2.59a8.14,8.14,0,0,1,2.76-2.3,7.26,7.26,0,0,1,3.23-.7c2.59,0,4.35.9,5.26,2.71a9.68,9.68,0,0,1,.75,4.26v11.74H476V326.53a6.3,6.3,0,0,0-.49-2.7,3,3,0,0,0-3-1.71,6,6,0,0,0-1.79.23,4.64,4.64,0,0,0-2.22,1.5,4.57,4.57,0,0,0-1,1.87,12.93,12.93,0,0,0-.23,2.76v9.59h-3.08Z" style="fill:#1a1a1a"/><path d="M493.86,320.5a8.45,8.45,0,0,1,1.77,1.74v-2.3h2.84v16.64a12.36,12.36,0,0,1-1,5.51c-1.27,2.48-3.68,3.72-7.21,3.72a8.83,8.83,0,0,1-4.95-1.32,5.19,5.19,0,0,1-2.25-4.15h3.13a3.44,3.44,0,0,0,.88,1.9,4.5,4.5,0,0,0,3.26,1c2.35,0,3.88-.84,4.61-2.5a14,14,0,0,0,.59-5.25,6,6,0,0,1-2.21,2.09,7.39,7.39,0,0,1-3.42.68,7.3,7.3,0,0,1-5.19-2.11c-1.48-1.41-2.22-3.73-2.22-7a10.63,10.63,0,0,1,2.24-7.18,6.92,6.92,0,0,1,5.41-2.58A6.67,6.67,0,0,1,493.86,320.5Zm.38,3.3a4.48,4.48,0,0,0-3.56-1.64,4.39,4.39,0,0,0-4.42,3,12,12,0,0,0-.63,4.26,7.57,7.57,0,0,0,1.25,4.7,4,4,0,0,0,3.36,1.62,4.71,4.71,0,0,0,4.64-3,9.67,9.67,0,0,0,.75-4A7.64,7.64,0,0,0,494.24,323.8Z" style="fill:#1a1a1a"/><path d="M153,366.44q2.25,2.42,2.25,7.08c0,3.28-.73,5.78-2.21,7.5a7.15,7.15,0,0,1-5.7,2.58,6,6,0,0,1-3.69-1.11,7,7,0,0,1-1.57-1.8v9.71h-4.82v-26h4.66v2.75a8,8,0,0,1,1.68-1.91,6.16,6.16,0,0,1,3.86-1.25A7.32,7.32,0,0,1,153,366.44Zm-2.77,7.32a7.35,7.35,0,0,0-1-3.81,3.42,3.42,0,0,0-3.19-1.66,3.61,3.61,0,0,0-3.64,2.51,9.58,9.58,0,0,0-.51,3.38q0,3.26,1.72,4.57a4,4,0,0,0,2.43.77,3.51,3.51,0,0,0,3.1-1.58A7.31,7.31,0,0,0,150.23,373.76Z" style="fill:#1a1a1a"/><path d="M174.72,377.6A6.18,6.18,0,0,1,173,381a8.45,8.45,0,0,1-6.7,2.72A9.47,9.47,0,0,1,160,381.4q-2.72-2.29-2.72-7.46,0-4.83,2.46-7.41a8.36,8.36,0,0,1,6.36-2.58,9.78,9.78,0,0,1,4.19.87,7.37,7.37,0,0,1,3.08,2.75,9.4,9.4,0,0,1,1.41,3.85,24.33,24.33,0,0,1,.16,3.69H162.21A4.63,4.63,0,0,0,164,379a4.19,4.19,0,0,0,2.43.7,3.49,3.49,0,0,0,2.44-.86,4.09,4.09,0,0,0,.91-1.28Zm-4.82-5.71a4.26,4.26,0,0,0-1.17-2.93,3.67,3.67,0,0,0-2.61-1A3.33,3.33,0,0,0,163.5,369a5.33,5.33,0,0,0-1.17,2.87Z" style="fill:#1a1a1a"/><path d="M187.61,368.94c-2,0-3.28.64-4,1.91a7.38,7.38,0,0,0-.57,3.32v8.9h-4.9V364.44h4.65v3.25a10.37,10.37,0,0,1,2-2.55,5.37,5.37,0,0,1,3.56-1.14h.23l.42,0v5l-.82-.07Z" style="fill:#1a1a1a"/><path d="M200.59,357.73v4c-.27,0-.73-.06-1.37-.08a1.63,1.63,0,0,0-1.34.43,1.58,1.58,0,0,0-.36,1v1.57h3.19v3.44h-3.19v15h-4.86v-15H190v-3.44h2.66v-1.19c0-2,.34-3.37,1-4.12q1.06-1.68,5.11-1.68.47,0,.84,0Z" style="fill:#1a1a1a"/><path d="M219.05,366.8a11.58,11.58,0,0,1,0,14q-2.36,2.91-7.16,2.91t-7.16-2.91a11.58,11.58,0,0,1,0-14q2.36-3,7.16-3T219.05,366.8ZM211.87,368a3.9,3.9,0,0,0-3.29,1.52,8.67,8.67,0,0,0,0,8.63,3.87,3.87,0,0,0,3.29,1.52,3.83,3.83,0,0,0,3.28-1.52,8.67,8.67,0,0,0,0-8.63A3.86,3.86,0,0,0,211.87,368Z" style="fill:#1a1a1a"/><path d="M234.26,368.94c-2,0-3.28.64-3.95,1.91a7.55,7.55,0,0,0-.56,3.32v8.9h-4.91V364.44h4.65v3.25a10.36,10.36,0,0,1,2-2.55A5.35,5.35,0,0,1,235,364h.23l.42,0v5l-.82-.07Z" style="fill:#1a1a1a"/><path d="M249,369.57a2.39,2.39,0,0,0-2.41-1.35,2.88,2.88,0,0,0-2.81,1.35,5.24,5.24,0,0,0-.39,2.29v11.21h-4.94V364.48h4.74v2.71a8,8,0,0,1,1.7-2.06A6.75,6.75,0,0,1,252,365a5.5,5.5,0,0,1,1.61,2.24A6.17,6.17,0,0,1,256,364.8a7.28,7.28,0,0,1,3.35-.77,6.49,6.49,0,0,1,2.43.48,5.4,5.4,0,0,1,2.17,1.68,5.29,5.29,0,0,1,1.06,2.39,17,17,0,0,1,.17,2.75l0,11.74h-5V371.21a3.82,3.82,0,0,0-.34-1.74,2.42,2.42,0,0,0-2.39-1.3,2.82,2.82,0,0,0-2.79,1.67,5.35,5.35,0,0,0-.39,2.14v11.09h-4.9V372A6.37,6.37,0,0,0,249,369.57Z" style="fill:#1a1a1a"/><path d="M285.58,377.6a6.16,6.16,0,0,1-1.72,3.37,8.47,8.47,0,0,1-6.7,2.72,9.52,9.52,0,0,1-6.28-2.29q-2.72-2.29-2.71-7.46c0-3.22.81-5.69,2.45-7.41A8.38,8.38,0,0,1,277,364a9.78,9.78,0,0,1,4.19.87,7.37,7.37,0,0,1,3.08,2.75,9.41,9.41,0,0,1,1.42,3.85,26,26,0,0,1,.15,3.69H273.07a4.65,4.65,0,0,0,1.76,3.93,4.19,4.19,0,0,0,2.43.7,3.48,3.48,0,0,0,2.44-.86,3.93,3.93,0,0,0,.91-1.28Zm-4.82-5.71a4.26,4.26,0,0,0-1.17-2.93,3.67,3.67,0,0,0-2.61-1,3.33,3.33,0,0,0-2.62,1.06,5.33,5.33,0,0,0-1.17,2.87Z" style="fill:#1a1a1a"/><path d="M306.06,357.91v25.16h-4.74v-2.58A6.92,6.92,0,0,1,299,382.9a6.71,6.71,0,0,1-3.32.75,6.9,6.9,0,0,1-5.49-2.64,10.13,10.13,0,0,1-2.23-6.78,11.71,11.71,0,0,1,2.19-7.5A7.16,7.16,0,0,1,296,364a6.08,6.08,0,0,1,3,.74,6,6,0,0,1,2.14,2.06v-8.89Zm-13.13,16a7.23,7.23,0,0,0,1,4.11,3.4,3.4,0,0,0,3.07,1.56,3.6,3.6,0,0,0,3.15-1.54,6.83,6.83,0,0,0,1.07-4q0-3.42-1.72-4.89a3.74,3.74,0,0,0-2.46-.89,3.42,3.42,0,0,0-3.14,1.62A7.46,7.46,0,0,0,292.93,373.88Z" style="fill:#1a1a1a"/><path d="M320.31,357.88h4.87v25.19h-4.87Z" style="fill:#1a1a1a"/><path d="M345.46,366.8a11.58,11.58,0,0,1,0,14q-2.35,2.91-7.16,2.91t-7.16-2.91a11.58,11.58,0,0,1,0-14q2.36-3,7.16-3T345.46,366.8ZM338.29,368a3.89,3.89,0,0,0-3.29,1.52,8.61,8.61,0,0,0,0,8.63,4.31,4.31,0,0,0,6.57,0,8.74,8.74,0,0,0,0-8.63A3.88,3.88,0,0,0,338.29,368Z" style="fill:#1a1a1a"/><path d="M367.42,371.12h-5a4.29,4.29,0,0,0-.7-1.88,2.92,2.92,0,0,0-2.54-1.12,3.35,3.35,0,0,0-3.37,2.44,10.21,10.21,0,0,0-.48,3.45,9.36,9.36,0,0,0,.48,3.3,3.25,3.25,0,0,0,3.28,2.32,2.89,2.89,0,0,0,2.43-.92,4.53,4.53,0,0,0,.87-2.39h5a8.15,8.15,0,0,1-1.6,4.2,7.82,7.82,0,0,1-6.79,3.2c-3,0-5.2-.89-6.61-2.67a10.78,10.78,0,0,1-2.12-6.92q0-4.8,2.34-7.47a8.16,8.16,0,0,1,6.46-2.66,9.68,9.68,0,0,1,5.73,1.57Q367,367.15,367.42,371.12Z" style="fill:#1a1a1a"/><path d="M371.47,366.46q1.93-2.46,6.64-2.46a11.76,11.76,0,0,1,5.43,1.21c1.58.81,2.38,2.34,2.38,4.58v8.55c0,.59,0,1.31,0,2.15a2.66,2.66,0,0,0,.29,1.3,1.74,1.74,0,0,0,.72.56v.72h-5.3a5.62,5.62,0,0,1-.31-1.06,10.73,10.73,0,0,1-.13-1.13,10.35,10.35,0,0,1-2.33,1.87,7,7,0,0,1-3.55.9,6.12,6.12,0,0,1-4.18-1.44,5.17,5.17,0,0,1-1.65-4.1,5.31,5.31,0,0,1,2.65-5,11.73,11.73,0,0,1,4.27-1.2l1.66-.2a7.46,7.46,0,0,0,1.93-.43,1.46,1.46,0,0,0,1-1.38,1.64,1.64,0,0,0-.79-1.58,5,5,0,0,0-2.34-.44,3,3,0,0,0-2.44.86,3.52,3.52,0,0,0-.68,1.7h-4.7A7.2,7.2,0,0,1,371.47,366.46Zm3.63,13.09a2.5,2.5,0,0,0,1.67.56,4.92,4.92,0,0,0,2.9-.92,3.93,3.93,0,0,0,1.37-3.37V374a4.51,4.51,0,0,1-.93.47,8.25,8.25,0,0,1-1.29.34l-1.09.2a7.09,7.09,0,0,0-2.21.67,2.22,2.22,0,0,0-1.12,2.06A2.13,2.13,0,0,0,375.1,379.55Z" style="fill:#1a1a1a"/><path d="M390.34,357.88h4.87v25.19h-4.87Z" style="fill:#1a1a1a"/><path d="M400.07,357.88h4.87v25.19h-4.87Z" style="fill:#1a1a1a"/><path d="M417.26,378.18l3.84-13.74h5.18l-6.39,18.32q-1.84,5.3-2.92,6.57c-.72.85-2.15,1.28-4.31,1.28h-1l-1.18-.06v-3.9l.62,0a7.57,7.57,0,0,0,1.36-.06,2.33,2.33,0,0,0,1.1-.39,2.62,2.62,0,0,0,.79-1.21,2.44,2.44,0,0,0,.3-1.13l-6.84-19.45h5.42Z" style="fill:#1a1a1a"/><path d="M138.8,578.13l3.53,14.43,3.57-14.43h3.45l3.59,14.34,3.74-14.34h3.08l-5.32,18.31h-3.19l-3.73-14.17-3.6,14.17h-3.2l-5.28-18.31Z" style="fill:#1a1a1a"/><path d="M162.65,571.25h3.08v9.36a9.09,9.09,0,0,1,2-2,6.65,6.65,0,0,1,3.71-1q4,0,5.4,2.78a9.46,9.46,0,0,1,.77,4.23v11.74h-3.16V584.9a6.52,6.52,0,0,0-.51-3,3.29,3.29,0,0,0-3.15-1.5,5.25,5.25,0,0,0-3.47,1.32q-1.54,1.31-1.55,5v9.71h-3.08Z" style="fill:#1a1a1a"/><path d="M193.42,578.64a6.91,6.91,0,0,1,2.77,2.36,8.37,8.37,0,0,1,1.23,3.23,21.5,21.5,0,0,1,.27,4H184.38a7.9,7.9,0,0,0,1.3,4.48,4.37,4.37,0,0,0,3.78,1.69,4.88,4.88,0,0,0,3.82-1.6,5.42,5.42,0,0,0,1.13-2.15h3a6.28,6.28,0,0,1-.79,2.25,8.25,8.25,0,0,1-1.51,2,7.1,7.1,0,0,1-3.44,1.84,10.58,10.58,0,0,1-2.5.27,7.61,7.61,0,0,1-5.75-2.48,9.7,9.7,0,0,1-2.36-7,10.61,10.61,0,0,1,2.37-7.16,7.85,7.85,0,0,1,6.22-2.75A8.24,8.24,0,0,1,193.42,578.64Zm1.11,7.18a8.09,8.09,0,0,0-.87-3.19,4.41,4.41,0,0,0-4.18-2.22,4.66,4.66,0,0,0-3.53,1.52,5.85,5.85,0,0,0-1.51,3.89Z" style="fill:#1a1a1a"/><path d="M201.58,578.13h2.93v2.6a8.18,8.18,0,0,1,2.75-2.31,7.43,7.43,0,0,1,3.23-.7q3.9,0,5.26,2.72a9.68,9.68,0,0,1,.75,4.26v11.74h-3.12V584.9a6.22,6.22,0,0,0-.5-2.7,3,3,0,0,0-3-1.71,6.4,6.4,0,0,0-1.8.22,5,5,0,0,0-3.22,3.38,12.8,12.8,0,0,0-.23,2.76v9.59h-3.08Z" style="fill:#1a1a1a"/><path d="M240.58,585.36a1.67,1.67,0,0,0,1.42-.89,2.65,2.65,0,0,0,.21-1.18,2.52,2.52,0,0,0-1.12-2.29,5.91,5.91,0,0,0-3.2-.71,4,4,0,0,0-3.41,1.3,4.34,4.34,0,0,0-.73,2.15h-2.87c.05-2.26.79-3.84,2.19-4.72a9,9,0,0,1,4.89-1.33,9.94,9.94,0,0,1,5.24,1.23,4.19,4.19,0,0,1,2,3.83v10.54a1.35,1.35,0,0,0,.19.77,1,1,0,0,0,.83.29l.46,0,.55-.08v2.27a9.28,9.28,0,0,1-1.09.26,8.89,8.89,0,0,1-1,.05,2.51,2.51,0,0,1-2.3-1.13,4.15,4.15,0,0,1-.53-1.69,8,8,0,0,1-2.7,2.14,8.43,8.43,0,0,1-3.88.9,5.75,5.75,0,0,1-4.16-1.54,5.13,5.13,0,0,1-1.62-3.87,5,5,0,0,1,1.59-3.94,7.55,7.55,0,0,1,4.17-1.73Zm-6.47,8.31a3.63,3.63,0,0,0,2.3.77,7,7,0,0,0,3.15-.75,4.22,4.22,0,0,0,2.56-4.08v-2.48a5.19,5.19,0,0,1-1.45.6,12.47,12.47,0,0,1-1.74.35l-1.86.23a7.41,7.41,0,0,0-2.51.7,2.73,2.73,0,0,0-1.43,2.56A2.53,2.53,0,0,0,234.11,593.67Z" style="fill:#1a1a1a"/><path d="M252.07,590.69a4.39,4.39,0,0,0,.78,2.36c.79,1,2.17,1.49,4.12,1.49a6.13,6.13,0,0,0,3.07-.75,2.45,2.45,0,0,0,1.32-2.29,2,2,0,0,0-1.05-1.8,13.08,13.08,0,0,0-2.68-.87l-2.48-.61a12.2,12.2,0,0,1-3.51-1.3,3.9,3.9,0,0,1-2-3.46,5.25,5.25,0,0,1,1.9-4.2,7.62,7.62,0,0,1,5.1-1.61c2.8,0,4.81.81,6.05,2.43a5.26,5.26,0,0,1,1.12,3.32h-2.9a3.48,3.48,0,0,0-.76-1.89c-.72-.8-2-1.21-3.76-1.21a4.52,4.52,0,0,0-2.7.67,2.06,2.06,0,0,0-.92,1.75,2.15,2.15,0,0,0,1.21,1.91,7.55,7.55,0,0,0,2,.75l2.07.49a16.22,16.22,0,0,1,4.53,1.56,4.12,4.12,0,0,1,1.8,3.71,5.63,5.63,0,0,1-1.88,4.22c-1.25,1.18-3.16,1.78-5.72,1.78q-4.14,0-5.86-1.86a7,7,0,0,1-1.84-4.59Z" style="fill:#1a1a1a"/><path d="M267.67,571.33h3v14.58l7.89-7.78h3.93l-7,6.81,7.43,11.5h-3.93l-5.76-9.32-2.52,2.45v6.87h-3Z" style="fill:#1a1a1a"/><path d="M296.54,578.64a6.91,6.91,0,0,1,2.77,2.36,8.37,8.37,0,0,1,1.23,3.23,21.5,21.5,0,0,1,.27,4H287.5a7.9,7.9,0,0,0,1.3,4.48,4.38,4.38,0,0,0,3.78,1.69,4.88,4.88,0,0,0,3.82-1.6,5.42,5.42,0,0,0,1.13-2.15h3a6.28,6.28,0,0,1-.79,2.25,8.25,8.25,0,0,1-1.51,2,7.1,7.1,0,0,1-3.44,1.84,10.58,10.58,0,0,1-2.5.27,7.61,7.61,0,0,1-5.75-2.48,9.7,9.7,0,0,1-2.36-7,10.61,10.61,0,0,1,2.37-7.16,7.85,7.85,0,0,1,6.22-2.75A8.24,8.24,0,0,1,296.54,578.64Zm1.11,7.18a8.09,8.09,0,0,0-.87-3.19,4.41,4.41,0,0,0-4.18-2.22,4.66,4.66,0,0,0-3.53,1.52,5.85,5.85,0,0,0-1.51,3.89Z" style="fill:#1a1a1a"/><path d="M314.76,578.7a8.55,8.55,0,0,1,1.86,1.79v-9.24h2.95v25.19H316.8v-2.55a6.6,6.6,0,0,1-2.53,2.44,7.29,7.29,0,0,1-3.36.75,6.74,6.74,0,0,1-5.27-2.57,10,10,0,0,1-2.23-6.84,11.8,11.8,0,0,1,2-6.93,6.66,6.66,0,0,1,5.81-2.93A6.4,6.4,0,0,1,314.76,578.7Zm-6.87,13.72a4.35,4.35,0,0,0,4,2,4.19,4.19,0,0,0,3.5-1.84,8.71,8.71,0,0,0,1.37-5.27,7.81,7.81,0,0,0-1.42-5.13,4.39,4.39,0,0,0-3.48-1.67,4.59,4.59,0,0,0-3.75,1.78,8.15,8.15,0,0,0-1.44,5.23A9.16,9.16,0,0,0,307.89,592.42Z" style="fill:#1a1a1a"/><path d="M324.82,600a2.15,2.15,0,0,0,1.66-1.66,4.75,4.75,0,0,0,.25-1.49,1.48,1.48,0,0,0,0-.22.59.59,0,0,0,0-.21h-1.86v-3.73h3.66v3.45a7.52,7.52,0,0,1-.82,3.57,3.75,3.75,0,0,1-2.84,1.9Z" style="fill:#1a1a1a"/><path d="M343.36,578.22h3v2.42a7.62,7.62,0,0,1,2-1.93,6.55,6.55,0,0,1,3.67-1,6.88,6.88,0,0,1,5.29,2.38q2.17,2.38,2.18,6.81,0,6-3.14,8.55a7.12,7.12,0,0,1-4.63,1.62,6.35,6.35,0,0,1-3.49-.9,8,8,0,0,1-1.83-1.77v9.35h-3.08Zm11.58,14.34a8.56,8.56,0,0,0,1.43-5.39,9.89,9.89,0,0,0-.64-3.76,4.66,4.66,0,0,0-8.78.17,12.72,12.72,0,0,0-.63,4.34,9.22,9.22,0,0,0,.63,3.61,4.67,4.67,0,0,0,8,1Z" style="fill:#1a1a1a"/><path d="M363.17,571.33h3.08v25.11h-3.08Z" style="fill:#1a1a1a"/><path d="M382.17,578.64a6.94,6.94,0,0,1,2.76,2.36,8.37,8.37,0,0,1,1.23,3.23,21.5,21.5,0,0,1,.27,4H373.12a7.9,7.9,0,0,0,1.3,4.48,4.38,4.38,0,0,0,3.78,1.69,4.88,4.88,0,0,0,3.82-1.6,5.42,5.42,0,0,0,1.13-2.15h3a6.28,6.28,0,0,1-.79,2.25,8.25,8.25,0,0,1-1.51,2,7.1,7.1,0,0,1-3.44,1.84,10.58,10.58,0,0,1-2.5.27,7.61,7.61,0,0,1-5.75-2.48,9.7,9.7,0,0,1-2.36-7,10.61,10.61,0,0,1,2.37-7.16,7.85,7.85,0,0,1,6.22-2.75A8.31,8.31,0,0,1,382.17,578.64Zm1.1,7.18a8.09,8.09,0,0,0-.87-3.19,4.41,4.41,0,0,0-4.18-2.22,4.66,4.66,0,0,0-3.53,1.52,5.85,5.85,0,0,0-1.51,3.89Z" style="fill:#1a1a1a"/><path d="M400.13,585.36a1.67,1.67,0,0,0,1.42-.89,2.65,2.65,0,0,0,.21-1.18,2.5,2.5,0,0,0-1.12-2.29,5.91,5.91,0,0,0-3.2-.71,4,4,0,0,0-3.41,1.3,4.34,4.34,0,0,0-.73,2.15h-2.87c.05-2.26.79-3.84,2.19-4.72a9,9,0,0,1,4.89-1.33,9.94,9.94,0,0,1,5.24,1.23,4.19,4.19,0,0,1,2,3.83v10.54a1.28,1.28,0,0,0,.2.77.94.94,0,0,0,.82.29l.47,0,.54-.08v2.27a9.28,9.28,0,0,1-1.09.26,8.89,8.89,0,0,1-1,.05,2.51,2.51,0,0,1-2.3-1.13,4.31,4.31,0,0,1-.53-1.69,8,8,0,0,1-2.7,2.14,8.43,8.43,0,0,1-3.88.9,5.75,5.75,0,0,1-4.16-1.54,5.13,5.13,0,0,1-1.62-3.87,5,5,0,0,1,1.59-3.94,7.55,7.55,0,0,1,4.17-1.73Zm-6.47,8.31a3.63,3.63,0,0,0,2.3.77,7,7,0,0,0,3.15-.75,4.22,4.22,0,0,0,2.56-4.08v-2.48a5.19,5.19,0,0,1-1.45.6,12.47,12.47,0,0,1-1.74.35l-1.86.23a7.41,7.41,0,0,0-2.51.7,2.73,2.73,0,0,0-1.43,2.56A2.53,2.53,0,0,0,393.66,593.67Z" style="fill:#1a1a1a"/><path d="M411.62,590.69a4.39,4.39,0,0,0,.78,2.36c.79,1,2.17,1.49,4.12,1.49a6.13,6.13,0,0,0,3.07-.75,2.46,2.46,0,0,0,1.33-2.29,2,2,0,0,0-1.06-1.8,13.08,13.08,0,0,0-2.68-.87l-2.48-.61a12.2,12.2,0,0,1-3.51-1.3,3.9,3.9,0,0,1-2-3.46,5.25,5.25,0,0,1,1.9-4.2,7.64,7.64,0,0,1,5.1-1.61c2.8,0,4.81.81,6.05,2.43a5.21,5.21,0,0,1,1.12,3.32h-2.9a3.48,3.48,0,0,0-.76-1.89c-.72-.8-2-1.21-3.76-1.21a4.52,4.52,0,0,0-2.7.67,2.06,2.06,0,0,0-.92,1.75,2.15,2.15,0,0,0,1.21,1.91,7.55,7.55,0,0,0,2.05.75l2.08.49a16.25,16.25,0,0,1,4.52,1.56,4.12,4.12,0,0,1,1.8,3.71,5.63,5.63,0,0,1-1.88,4.22c-1.25,1.18-3.16,1.78-5.72,1.78q-4.14,0-5.86-1.86a7,7,0,0,1-1.84-4.59Z" style="fill:#1a1a1a"/><path d="M438.6,578.64a6.94,6.94,0,0,1,2.76,2.36,8.21,8.21,0,0,1,1.23,3.23,21.5,21.5,0,0,1,.27,4H429.55a7.9,7.9,0,0,0,1.3,4.48,4.38,4.38,0,0,0,3.78,1.69,4.88,4.88,0,0,0,3.82-1.6,5.42,5.42,0,0,0,1.13-2.15h3a6.28,6.28,0,0,1-.79,2.25,8,8,0,0,1-1.51,2,7.1,7.1,0,0,1-3.44,1.84,10.55,10.55,0,0,1-2.49.27,7.61,7.61,0,0,1-5.76-2.48,9.7,9.7,0,0,1-2.36-7,10.61,10.61,0,0,1,2.37-7.16,7.85,7.85,0,0,1,6.22-2.75A8.31,8.31,0,0,1,438.6,578.64Zm1.1,7.18a7.93,7.93,0,0,0-.87-3.19,4.41,4.41,0,0,0-4.18-2.22,4.66,4.66,0,0,0-3.53,1.52,5.85,5.85,0,0,0-1.51,3.89Z" style="fill:#1a1a1a"/><path d="M466.29,585.36a1.67,1.67,0,0,0,1.42-.89,2.82,2.82,0,0,0,.2-1.18,2.5,2.5,0,0,0-1.12-2.29,5.89,5.89,0,0,0-3.19-.71,4,4,0,0,0-3.41,1.3,4.34,4.34,0,0,0-.74,2.15h-2.87c.06-2.26.79-3.84,2.2-4.72a8.91,8.91,0,0,1,4.89-1.33,10,10,0,0,1,5.24,1.23,4.18,4.18,0,0,1,2,3.83v10.54a1.35,1.35,0,0,0,.2.77,1,1,0,0,0,.83.29l.46,0,.55-.08v2.27a9.34,9.34,0,0,1-1.1.26,8.82,8.82,0,0,1-1,.05,2.54,2.54,0,0,1-2.31-1.13A4.31,4.31,0,0,1,468,594a8,8,0,0,1-2.7,2.14,8.4,8.4,0,0,1-3.88.9,5.77,5.77,0,0,1-4.16-1.54,5.13,5.13,0,0,1-1.62-3.87,5,5,0,0,1,1.59-3.94,7.55,7.55,0,0,1,4.17-1.73Zm-6.48,8.31a3.63,3.63,0,0,0,2.31.77,7,7,0,0,0,3.14-.75,4.23,4.23,0,0,0,2.57-4.08v-2.48a5.32,5.32,0,0,1-1.45.6,12.47,12.47,0,0,1-1.74.35l-1.86.23a7.48,7.48,0,0,0-2.52.7,2.73,2.73,0,0,0-1.42,2.56A2.52,2.52,0,0,0,459.81,593.67Z" style="fill:#1a1a1a"/><path d="M476,571.33h3.08v25.11H476Z" style="fill:#1a1a1a"/><path d="M483.81,571.33h3.07v25.11h-3.07Z" style="fill:#1a1a1a"/><path d="M504.76,580q2.43,2.35,2.43,6.93a12,12,0,0,1-2.14,7.31q-2.15,2.88-6.64,2.88a7.46,7.46,0,0,1-6-2.55,10.06,10.06,0,0,1-2.21-6.85,11,11,0,0,1,2.32-7.35,7.8,7.8,0,0,1,6.25-2.73A8.22,8.22,0,0,1,504.76,580Zm-1.91,12.16A11.57,11.57,0,0,0,504,587a9.27,9.27,0,0,0-.81-4.17,4.55,4.55,0,0,0-4.43-2.52,4.34,4.34,0,0,0-4.05,2.15,10,10,0,0,0-1.27,5.19,8.7,8.7,0,0,0,1.27,4.86,4.43,4.43,0,0,0,4,2A4.18,4.18,0,0,0,502.85,592.12Z" style="fill:#1a1a1a"/><path d="M512.39,578.13l3.52,14.43,3.57-14.43h3.45l3.59,14.34,3.74-14.34h3.08L528,596.44h-3.2l-3.73-14.17-3.6,14.17h-3.2L509,578.13Z" style="fill:#1a1a1a"/><path d="M153.51,629.49h-5a4.24,4.24,0,0,0-.7-1.88,3,3,0,0,0-2.55-1.13,3.35,3.35,0,0,0-3.36,2.45,10.13,10.13,0,0,0-.48,3.45,9.4,9.4,0,0,0,.48,3.3,3.24,3.24,0,0,0,3.28,2.32,2.88,2.88,0,0,0,2.42-.92,4.66,4.66,0,0,0,.88-2.39h5a8.08,8.08,0,0,1-1.61,4.2,7.8,7.8,0,0,1-6.78,3.19c-3,0-5.2-.88-6.62-2.66a10.82,10.82,0,0,1-2.12-6.92c0-3.2.79-5.69,2.35-7.47a8.14,8.14,0,0,1,6.46-2.67,9.72,9.72,0,0,1,5.73,1.58C152.36,625,153.24,626.84,153.51,629.49Z" style="fill:#1a1a1a"/><path d="M157.56,624.82q1.94-2.46,6.63-2.46a11.81,11.81,0,0,1,5.44,1.22c1.58.81,2.37,2.33,2.37,4.58v8.54c0,.59,0,1.31,0,2.16a2.61,2.61,0,0,0,.29,1.29,1.72,1.72,0,0,0,.71.57v.72h-5.29a5.62,5.62,0,0,1-.31-1.06c-.06-.33-.1-.71-.14-1.13a10,10,0,0,1-2.32,1.86,7.06,7.06,0,0,1-3.56.91,6.1,6.1,0,0,1-4.18-1.45,5.13,5.13,0,0,1-1.65-4.09,5.31,5.31,0,0,1,2.65-5,11.79,11.79,0,0,1,4.28-1.2l1.65-.2a8,8,0,0,0,1.94-.43,1.48,1.48,0,0,0,1-1.39,1.65,1.65,0,0,0-.8-1.58,5,5,0,0,0-2.33-.43,3,3,0,0,0-2.44.85,3.62,3.62,0,0,0-.69,1.71h-4.7A7.21,7.21,0,0,1,157.56,624.82Zm3.62,13.1a2.6,2.6,0,0,0,1.68.56,5,5,0,0,0,2.89-.92,3.92,3.92,0,0,0,1.38-3.37v-1.81a5.8,5.8,0,0,1-.93.47,7.39,7.39,0,0,1-1.29.33l-1.09.21a7.14,7.14,0,0,0-2.21.66,2.25,2.25,0,0,0-1.13,2.07A2.18,2.18,0,0,0,161.18,637.92Z" style="fill:#1a1a1a"/><path d="M186.79,627.93a2.41,2.41,0,0,0-2.41-1.35,2.9,2.9,0,0,0-2.81,1.35,5.27,5.27,0,0,0-.39,2.29v11.22h-4.94v-18.6H181v2.72a8.06,8.06,0,0,1,1.71-2.07,5.85,5.85,0,0,1,3.68-1.09,5.79,5.79,0,0,1,3.45.94,5.5,5.5,0,0,1,1.61,2.24,6.11,6.11,0,0,1,2.37-2.41,7.16,7.16,0,0,1,3.35-.77,6.49,6.49,0,0,1,2.43.48,5.44,5.44,0,0,1,3.23,4.06,17.13,17.13,0,0,1,.17,2.76l0,11.74h-5V629.58a3.9,3.9,0,0,0-.34-1.75,2.43,2.43,0,0,0-2.39-1.3,2.81,2.81,0,0,0-2.79,1.68,5.26,5.26,0,0,0-.39,2.13v11.1h-4.9v-11.1A6.44,6.44,0,0,0,186.79,627.93Z" style="fill:#1a1a1a"/><path d="M223.39,636a6.24,6.24,0,0,1-1.72,3.36,8.44,8.44,0,0,1-6.7,2.72,9.45,9.45,0,0,1-6.28-2.29q-2.72-2.29-2.71-7.45c0-3.22.81-5.7,2.45-7.42a8.38,8.38,0,0,1,6.36-2.58,9.78,9.78,0,0,1,4.19.87,7.33,7.33,0,0,1,3.08,2.76,9.37,9.37,0,0,1,1.42,3.84,26.11,26.11,0,0,1,.15,3.69H210.88a4.64,4.64,0,0,0,1.76,3.93,4.12,4.12,0,0,0,2.43.7,3.49,3.49,0,0,0,2.44-.85,4.16,4.16,0,0,0,.91-1.28Zm-4.82-5.71a4.22,4.22,0,0,0-1.17-2.93,3.62,3.62,0,0,0-2.61-1,3.3,3.3,0,0,0-2.62,1.06,5.27,5.27,0,0,0-1.17,2.87Z" style="fill:#1a1a1a"/><path d="M236.28,627.3c-2,0-3.28.64-3.95,1.92a7.36,7.36,0,0,0-.56,3.31v8.91h-4.91V622.81h4.65v3.24a10.32,10.32,0,0,1,2-2.54,5.4,5.4,0,0,1,3.56-1.15h.23l.42,0v5c-.31,0-.58-.06-.82-.07Z" style="fill:#1a1a1a"/><path d="M241.23,624.82q1.94-2.46,6.63-2.46a11.81,11.81,0,0,1,5.44,1.22c1.58.81,2.37,2.33,2.37,4.58v8.54c0,.59,0,1.31,0,2.16a2.61,2.61,0,0,0,.29,1.29,1.76,1.76,0,0,0,.72.57v.72h-5.3a5.62,5.62,0,0,1-.31-1.06c-.06-.33-.1-.71-.14-1.13a9.78,9.78,0,0,1-2.32,1.86,7,7,0,0,1-3.56.91,6.07,6.07,0,0,1-4.17-1.45,5.13,5.13,0,0,1-1.65-4.09,5.3,5.3,0,0,1,2.65-5,11.67,11.67,0,0,1,4.27-1.2l1.66-.2a7.91,7.91,0,0,0,1.93-.43,1.48,1.48,0,0,0,1-1.39,1.66,1.66,0,0,0-.79-1.58,5,5,0,0,0-2.34-.43,3,3,0,0,0-2.44.85,3.52,3.52,0,0,0-.68,1.71h-4.7A7.13,7.13,0,0,1,241.23,624.82Zm3.63,13.1a2.55,2.55,0,0,0,1.67.56,5,5,0,0,0,2.9-.92,3.94,3.94,0,0,0,1.37-3.37v-1.81a5.41,5.41,0,0,1-.93.47,7.39,7.39,0,0,1-1.29.33l-1.09.21a7.14,7.14,0,0,0-2.21.66,2.24,2.24,0,0,0-1.12,2.07A2.15,2.15,0,0,0,244.86,637.92Z" style="fill:#1a1a1a"/><path d="M270.42,624.82q1.93-2.46,6.63-2.46a11.81,11.81,0,0,1,5.44,1.22c1.58.81,2.37,2.33,2.37,4.58v8.54c0,.59,0,1.31,0,2.16a2.61,2.61,0,0,0,.29,1.29,1.76,1.76,0,0,0,.72.57v.72h-5.3a5.62,5.62,0,0,1-.31-1.06c-.06-.33-.1-.71-.14-1.13a9.78,9.78,0,0,1-2.32,1.86,7,7,0,0,1-3.56.91,6.07,6.07,0,0,1-4.17-1.45,5.13,5.13,0,0,1-1.65-4.09,5.3,5.3,0,0,1,2.65-5,11.67,11.67,0,0,1,4.27-1.2l1.66-.2a7.91,7.91,0,0,0,1.93-.43,1.48,1.48,0,0,0,1-1.39,1.65,1.65,0,0,0-.8-1.58,5,5,0,0,0-2.33-.43,3,3,0,0,0-2.44.85,3.62,3.62,0,0,0-.69,1.71h-4.7A7.21,7.21,0,0,1,270.42,624.82Zm3.62,13.1a2.6,2.6,0,0,0,1.68.56,5,5,0,0,0,2.9-.92,3.94,3.94,0,0,0,1.37-3.37v-1.81a5.8,5.8,0,0,1-.93.47,7.39,7.39,0,0,1-1.29.33l-1.09.21a7.14,7.14,0,0,0-2.21.66,2.25,2.25,0,0,0-1.13,2.07A2.18,2.18,0,0,0,274,637.92Z" style="fill:#1a1a1a"/><path d="M305.3,629.49h-5a4.24,4.24,0,0,0-.7-1.88,2.94,2.94,0,0,0-2.54-1.13,3.35,3.35,0,0,0-3.37,2.45,10.13,10.13,0,0,0-.48,3.45,9.4,9.4,0,0,0,.48,3.3A3.24,3.24,0,0,0,297,638a2.92,2.92,0,0,0,2.43-.92,4.65,4.65,0,0,0,.87-2.39h5a8.08,8.08,0,0,1-1.61,4.2,7.79,7.79,0,0,1-6.78,3.19c-3,0-5.2-.88-6.61-2.66a10.76,10.76,0,0,1-2.12-6.92q0-4.8,2.34-7.47a8.14,8.14,0,0,1,6.46-2.67,9.7,9.7,0,0,1,5.73,1.58C304.15,625,305,626.84,305.3,629.49Z" style="fill:#1a1a1a"/><path d="M324.77,629.49h-5a4.37,4.37,0,0,0-.7-1.88,3,3,0,0,0-2.55-1.13,3.35,3.35,0,0,0-3.36,2.45,10.13,10.13,0,0,0-.48,3.45,9.4,9.4,0,0,0,.48,3.3,3.24,3.24,0,0,0,3.28,2.32,2.91,2.91,0,0,0,2.42-.92,4.56,4.56,0,0,0,.87-2.39h5a8.17,8.17,0,0,1-1.61,4.2,7.81,7.81,0,0,1-6.78,3.19c-3,0-5.21-.88-6.62-2.66a10.82,10.82,0,0,1-2.12-6.92q0-4.8,2.34-7.47a8.16,8.16,0,0,1,6.46-2.67,9.73,9.73,0,0,1,5.74,1.58C323.62,625,324.5,626.84,324.77,629.49Z" style="fill:#1a1a1a"/><path d="M344.06,636a6.17,6.17,0,0,1-1.72,3.36,8.44,8.44,0,0,1-6.7,2.72,9.42,9.42,0,0,1-6.27-2.29c-1.82-1.53-2.72-4-2.72-7.45,0-3.22.81-5.7,2.45-7.42a8.4,8.4,0,0,1,6.37-2.58,9.74,9.74,0,0,1,4.18.87,7.33,7.33,0,0,1,3.08,2.76,9.37,9.37,0,0,1,1.42,3.84,26.11,26.11,0,0,1,.15,3.69H331.55a4.64,4.64,0,0,0,1.76,3.93,4.14,4.14,0,0,0,2.43.7,3.47,3.47,0,0,0,2.44-.85,4,4,0,0,0,.91-1.28Zm-4.82-5.71a4.22,4.22,0,0,0-1.17-2.93,3.62,3.62,0,0,0-2.6-1,3.31,3.31,0,0,0-2.63,1.06,5.27,5.27,0,0,0-1.17,2.87Z" style="fill:#1a1a1a"/><path d="M360.42,623.66a6,6,0,0,1,2.51,4.82h-4.87a2.92,2.92,0,0,0-.53-1.48,3.32,3.32,0,0,0-2.74-1,3.93,3.93,0,0,0-2.26.5,1.43,1.43,0,0,0-.68,1.16,1.29,1.29,0,0,0,.72,1.22,30.9,30.9,0,0,0,5.08,1.34,9.44,9.44,0,0,1,4.36,2.07,4.73,4.73,0,0,1,1.43,3.51,5.68,5.68,0,0,1-2.06,4.52c-1.37,1.16-3.49,1.75-6.36,1.75s-5.09-.62-6.49-1.86a6,6,0,0,1-2.09-4.72h4.94a3.23,3.23,0,0,0,.66,1.84,4.51,4.51,0,0,0,3.35,1,5,5,0,0,0,2.28-.43,1.36,1.36,0,0,0,.85-1.28,1.4,1.4,0,0,0-.68-1.25,28.89,28.89,0,0,0-5.08-1.47,10.61,10.61,0,0,1-4.46-2,4.25,4.25,0,0,1-1.3-3.35,5.83,5.83,0,0,1,2-4.44,8.16,8.16,0,0,1,5.7-1.85A10.59,10.59,0,0,1,360.42,623.66Z" style="fill:#1a1a1a"/><path d="M379.88,623.66a6,6,0,0,1,2.51,4.82h-4.87A2.75,2.75,0,0,0,377,627a3.29,3.29,0,0,0-2.73-1,3.91,3.91,0,0,0-2.26.5,1.43,1.43,0,0,0-.68,1.16,1.29,1.29,0,0,0,.72,1.22,31,31,0,0,0,5.07,1.34,9.39,9.39,0,0,1,4.36,2.07,4.7,4.7,0,0,1,1.44,3.51,5.68,5.68,0,0,1-2.06,4.52c-1.37,1.16-3.5,1.75-6.37,1.75s-5.09-.62-6.48-1.86a6,6,0,0,1-2.1-4.72h4.94a3.3,3.3,0,0,0,.67,1.84c.6.65,1.72,1,3.35,1a5,5,0,0,0,2.28-.43,1.43,1.43,0,0,0,.16-2.53,28.64,28.64,0,0,0-5.07-1.47,10.55,10.55,0,0,1-4.46-2,4.25,4.25,0,0,1-1.3-3.35,5.82,5.82,0,0,1,2-4.44,8.16,8.16,0,0,1,5.7-1.85A10.56,10.56,0,0,1,379.88,623.66Z" style="fill:#1a1a1a"/><path d="M397.66,617.54c.71-1,2.1-1.57,4.15-1.57l.6,0,.7,0v2.8l-.7,0H402c-.94,0-1.51.24-1.69.73a13.87,13.87,0,0,0-.28,3.7h3.08v2.42H400v15.8h-3v-15.8h-2.55v-2.42H397v-2.87A5.55,5.55,0,0,1,397.66,617.54Z" style="fill:#1a1a1a"/><path d="M419.21,625q2.42,2.35,2.42,6.93a11.91,11.91,0,0,1-2.14,7.31q-2.13,2.88-6.63,2.88a7.48,7.48,0,0,1-6-2.55,10.1,10.1,0,0,1-2.2-6.85,11,11,0,0,1,2.32-7.35,7.78,7.78,0,0,1,6.25-2.73A8.22,8.22,0,0,1,419.21,625Zm-1.91,12.16a11.71,11.71,0,0,0,1.12-5.14,9.27,9.27,0,0,0-.81-4.17,4.56,4.56,0,0,0-4.43-2.52,4.33,4.33,0,0,0-4.05,2.15,10,10,0,0,0-1.27,5.19,8.7,8.7,0,0,0,1.27,4.86,4.43,4.43,0,0,0,4,2A4.19,4.19,0,0,0,417.3,637.12Z" style="fill:#1a1a1a"/><path d="M425.5,623.13h2.92v3.16a6.92,6.92,0,0,1,1.76-2.24,4.53,4.53,0,0,1,3.23-1.33l.29,0,.7.07v3.24l-.5-.06-.51,0a4.4,4.4,0,0,0-3.57,1.49,5.25,5.25,0,0,0-1.25,3.45v10.53H425.5Z" style="fill:#1a1a1a"/><path d="M447.41,618h3.11v5.11h2.92v2.51h-2.92v12a1.27,1.27,0,0,0,.65,1.28,2.62,2.62,0,0,0,1.19.19h.48l.6-.06v2.45a7.93,7.93,0,0,1-1.1.22,12,12,0,0,1-1.24.07,3.35,3.35,0,0,1-2.93-1.11,4.88,4.88,0,0,1-.76-2.86V625.64h-2.48v-2.51h2.48Z" style="fill:#1a1a1a"/><path d="M456.51,616.25h3.08v9.36a9.09,9.09,0,0,1,2-2,6.65,6.65,0,0,1,3.71-1q4,0,5.4,2.78a9.46,9.46,0,0,1,.77,4.23v11.74h-3.16V629.9a6.52,6.52,0,0,0-.51-3,3.29,3.29,0,0,0-3.15-1.5,5.25,5.25,0,0,0-3.47,1.32q-1.54,1.31-1.55,5v9.71h-3.08Z" style="fill:#1a1a1a"/><path d="M476,616.33h3.13v3.49H476Zm0,6.89h3.13v18.22H476Z" style="fill:#1a1a1a"/><path d="M485.58,635.69a4.48,4.48,0,0,0,.79,2.36c.79,1,2.16,1.49,4.11,1.49a6.1,6.1,0,0,0,3.07-.75,2.44,2.44,0,0,0,1.33-2.29,2,2,0,0,0-1.06-1.8,12.71,12.71,0,0,0-2.67-.87l-2.49-.61a12.45,12.45,0,0,1-3.51-1.3,3.89,3.89,0,0,1-2-3.46,5.22,5.22,0,0,1,1.9-4.2,7.62,7.62,0,0,1,5.1-1.61c2.79,0,4.81.81,6,2.43a5.28,5.28,0,0,1,1.13,3.32H494.4a3.54,3.54,0,0,0-.75-1.89,4.9,4.9,0,0,0-3.76-1.21,4.52,4.52,0,0,0-2.7.67,2,2,0,0,0-.92,1.75,2.16,2.16,0,0,0,1.2,1.91,7.64,7.64,0,0,0,2.06.75l2.07.49a16.48,16.48,0,0,1,4.53,1.56,4.13,4.13,0,0,1,1.79,3.71,5.6,5.6,0,0,1-1.88,4.22c-1.25,1.18-3.15,1.78-5.71,1.78q-4.14,0-5.86-1.86a6.93,6.93,0,0,1-1.84-4.59Z" style="fill:#1a1a1a"/><path d="M520.79,630.36a1.67,1.67,0,0,0,1.42-.89,2.82,2.82,0,0,0,.2-1.18,2.5,2.5,0,0,0-1.12-2.29,5.89,5.89,0,0,0-3.19-.71,4,4,0,0,0-3.41,1.3,4.34,4.34,0,0,0-.74,2.15h-2.87c.06-2.26.79-3.84,2.2-4.72a8.91,8.91,0,0,1,4.89-1.33,10,10,0,0,1,5.24,1.23,4.18,4.18,0,0,1,2,3.83v10.54a1.35,1.35,0,0,0,.2.77,1,1,0,0,0,.83.29l.46,0,.55-.08v2.27a9.34,9.34,0,0,1-1.1.26,8.82,8.82,0,0,1-1,.05A2.54,2.54,0,0,1,523,640.7a4.31,4.31,0,0,1-.53-1.69,8,8,0,0,1-2.7,2.14,8.4,8.4,0,0,1-3.88.9,5.77,5.77,0,0,1-4.16-1.54,5.13,5.13,0,0,1-1.62-3.87,5,5,0,0,1,1.59-3.94,7.55,7.55,0,0,1,4.17-1.73Zm-6.48,8.31a3.63,3.63,0,0,0,2.31.77,7,7,0,0,0,3.14-.75,4.23,4.23,0,0,0,2.57-4.08v-2.48a5.32,5.32,0,0,1-1.45.6,12.47,12.47,0,0,1-1.74.35l-1.86.23a7.48,7.48,0,0,0-2.52.7,2.73,2.73,0,0,0-1.42,2.56A2.52,2.52,0,0,0,514.31,638.67Z" style="fill:#1a1a1a"/><path d="M530.19,623.22h3v2.42a7.48,7.48,0,0,1,2-1.93,6.54,6.54,0,0,1,3.66-1,6.91,6.91,0,0,1,5.3,2.38q2.18,2.38,2.17,6.81c0,4-1,6.84-3.14,8.55a7.1,7.1,0,0,1-4.63,1.62,6.34,6.34,0,0,1-3.48-.9,8.18,8.18,0,0,1-1.84-1.77v9.35h-3.07Zm11.57,14.34a8.5,8.5,0,0,0,1.43-5.39,10.1,10.1,0,0,0-.63-3.76,4.66,4.66,0,0,0-8.78.17,12.7,12.7,0,0,0-.64,4.34,9.22,9.22,0,0,0,.64,3.61,4.66,4.66,0,0,0,8,1Z" style="fill:#1a1a1a"/><path d="M549.65,623.22h3v2.42a7.62,7.62,0,0,1,2-1.93,6.55,6.55,0,0,1,3.67-1,6.88,6.88,0,0,1,5.29,2.38q2.18,2.38,2.18,6.81,0,6-3.14,8.55a7.12,7.12,0,0,1-4.63,1.62,6.35,6.35,0,0,1-3.49-.9,8.17,8.17,0,0,1-1.83-1.77v9.35h-3.08Zm11.58,14.34a8.56,8.56,0,0,0,1.43-5.39,9.89,9.89,0,0,0-.64-3.76,4.66,4.66,0,0,0-8.78.17,12.72,12.72,0,0,0-.63,4.34,9.22,9.22,0,0,0,.63,3.61,4.67,4.67,0,0,0,8,1Z" style="fill:#1a1a1a"/><path d="M569.46,616.33h3.08v25.11h-3.08Z" style="fill:#1a1a1a"/><path d="M577.15,616.33h3.13v3.49h-3.13Zm0,6.89h3.13v18.22h-3.13Z" style="fill:#1a1a1a"/><path d="M597,624.11q1.93,1.5,2.33,5.18h-3a5.54,5.54,0,0,0-1.25-2.82,4,4,0,0,0-3.12-1.12,4.33,4.33,0,0,0-4.21,2.87,11.32,11.32,0,0,0-.82,4.59,8.67,8.67,0,0,0,1.16,4.63,4.51,4.51,0,0,0,6.69.71,6.34,6.34,0,0,0,1.55-3.19h3a7.24,7.24,0,0,1-7.81,7,7,7,0,0,1-5.72-2.63,10,10,0,0,1-2.14-6.55q0-4.81,2.34-7.5a7.57,7.57,0,0,1,6-2.69A8,8,0,0,1,597,624.11Z" style="fill:#1a1a1a"/><path d="M612.24,630.36a1.68,1.68,0,0,0,1.42-.89,2.82,2.82,0,0,0,.2-1.18,2.5,2.5,0,0,0-1.12-2.29,5.91,5.91,0,0,0-3.2-.71,4,4,0,0,0-3.41,1.3,4.34,4.34,0,0,0-.73,2.15h-2.87c.06-2.26.79-3.84,2.19-4.72a9,9,0,0,1,4.89-1.33,9.94,9.94,0,0,1,5.24,1.23,4.19,4.19,0,0,1,2,3.83v10.54a1.35,1.35,0,0,0,.2.77,1,1,0,0,0,.83.29l.46,0,.54-.08v2.27a5.8,5.8,0,0,1-2.12.31,2.54,2.54,0,0,1-2.3-1.13,4.31,4.31,0,0,1-.53-1.69,8,8,0,0,1-2.7,2.14,8.43,8.43,0,0,1-3.88.9,5.75,5.75,0,0,1-4.16-1.54,5.13,5.13,0,0,1-1.62-3.87,5,5,0,0,1,1.59-3.94,7.55,7.55,0,0,1,4.17-1.73Zm-6.48,8.31a3.63,3.63,0,0,0,2.31.77,7,7,0,0,0,3.14-.75,4.22,4.22,0,0,0,2.56-4.08v-2.48a5.11,5.11,0,0,1-1.44.6,12.9,12.9,0,0,1-1.75.35l-1.85.23a7.41,7.41,0,0,0-2.52.7,2.73,2.73,0,0,0-1.42,2.56A2.52,2.52,0,0,0,605.76,638.67Z" style="fill:#1a1a1a"/><path d="M622.51,618h3.11v5.11h2.92v2.51h-2.92v12a1.27,1.27,0,0,0,.65,1.28,2.65,2.65,0,0,0,1.19.19h.48l.6-.06v2.45a7.65,7.65,0,0,1-1.1.22,11.86,11.86,0,0,1-1.24.07,3.31,3.31,0,0,1-2.92-1.11,4.81,4.81,0,0,1-.77-2.86V625.64H620v-2.51h2.48Z" style="fill:#1a1a1a"/><path d="M631.62,616.33h3.12v3.49h-3.12Zm0,6.89h3.12v18.22h-3.12Z" style="fill:#1a1a1a"/><path d="M652.65,625q2.43,2.35,2.43,6.93a11.91,11.91,0,0,1-2.14,7.31c-1.42,1.92-3.64,2.88-6.63,2.88a7.48,7.48,0,0,1-6-2.55,10.11,10.11,0,0,1-2.21-6.85,11,11,0,0,1,2.33-7.35,7.78,7.78,0,0,1,6.24-2.73A8.18,8.18,0,0,1,652.65,625Zm-1.91,12.16a11.57,11.57,0,0,0,1.13-5.14,9.27,9.27,0,0,0-.81-4.17,4.57,4.57,0,0,0-4.43-2.52,4.35,4.35,0,0,0-4.06,2.15,10.08,10.08,0,0,0-1.26,5.19,8.78,8.78,0,0,0,1.26,4.86,4.46,4.46,0,0,0,4,2A4.18,4.18,0,0,0,650.74,637.12Z" style="fill:#1a1a1a"/><path d="M658.86,623.13h2.92v2.6a8.27,8.27,0,0,1,2.75-2.31,7.46,7.46,0,0,1,3.23-.7c2.6,0,4.35.91,5.27,2.72a9.68,9.68,0,0,1,.75,4.26v11.74h-3.13V629.9a6.22,6.22,0,0,0-.5-2.7,3,3,0,0,0-3-1.71,6.27,6.27,0,0,0-1.79.22,4.57,4.57,0,0,0-2.23,1.51,4.63,4.63,0,0,0-1,1.87,12.8,12.8,0,0,0-.23,2.76v9.59h-3.07Z" style="fill:#1a1a1a"/><path d="M274.28,182a23,23,0,1,1-23,23,23,23,0,0,1,23-23m0,57.56c25.44,0,46.05,10.31,46.05,23v11.51h-92.1V262.55C228.23,249.83,248.84,239.52,274.28,239.52Z" style="fill:#333"/><path d="M481.6,271.73a29.34,29.34,0,0,1-21.26-8.58,28.39,28.39,0,0,1-8.8-21,30.51,30.51,0,0,1,6.4-19,28.38,28.38,0,0,1,16.83-10.66,38.24,38.24,0,0,1,75.14,10.11,23.65,23.65,0,0,1,15.63,8.2,24.56,24.56,0,0,1-18.36,41Z" style="fill:#1677ff"/><line x1="326.48" y1="228.01" x2="423.61" y2="228.01" style="fill:none;stroke:#1a1a1a;stroke-linecap:round;stroke-miterlimit:10;stroke-width:3.7136664390563965px"/><polygon points="420.9 237.27 436.94 228.01 420.9 218.75 420.9 237.27" style="fill:#1a1a1a"/><line x1="355.72" y1="208.86" x2="394.01" y2="247.15" style="fill:none;stroke:#c1272d;stroke-linecap:round;stroke-miterlimit:10;stroke-width:7.958683567922314px"/><line x1="394.01" y1="208.86" x2="355.72" y2="247.15" style="fill:none;stroke:#c1272d;stroke-linecap:round;stroke-miterlimit:10;stroke-width:7.958683567922314px"/><path d="M379.9,427.8A32.56,32.56,0,1,1,347,460.36,32.74,32.74,0,0,1,379.9,427.8m0,9.31a23.26,23.26,0,1,0,23.51,23.25,23.39,23.39,0,0,0-23.51-23.25m0,9.3a14,14,0,1,1-14.11,13.95,14,14,0,0,1,14.11-13.95m-28.23,74.42a9.35,9.35,0,0,1-9.4-9.3,8.79,8.79,0,0,1,1.36-4.79l8.56-14.7a42.76,42.76,0,0,0,55.41,0l8.56,14.7a8.79,8.79,0,0,1,1.36,4.79,9.35,9.35,0,0,1-9.4,9.3Z" style="fill:#1a1a1a"/><ellipse cx="429.93" cy="505.99" rx="24.58" ry="24.31" style="fill:#fff"/><path d="M429.93,479.43a27.49,27.49,0,1,0,27.8,27.49,27.73,27.73,0,0,0-27.8-27.49m-5.56,41.24-13.9-13.75,3.92-3.88,10,9.85L445.47,492l3.92,3.9Z" style="fill:#22b573"/><rect x="158.9" y="165.15" width="479.75" height="125.72" rx="14.9" style="fill:none;stroke:#b3b3b3;stroke-linecap:round;stroke-miterlimit:10;stroke-width:0.9930794061732062px"/><rect x="158.9" y="417.76" width="479.75" height="125.72" rx="14.9" style="fill:none;stroke:#b3b3b3;stroke-linecap:round;stroke-miterlimit:10;stroke-width:0.9930794061732062px"/></svg>