<svg id="Ebene_1" data-name="Ebene 1" xmlns="http://www.w3.org/2000/svg" viewBox="0 0 800 700"><title>videNo_onboarding</title><path d="M683,556.68H379.12V545.46H683Z" style="fill:#22b573;opacity:0.4"/><rect x="175.08" y="126" width="388.69" height="15.06" style="fill:#22b573;opacity:0.4"/><path d="M182.72,68.68h3.11v5.11h2.92V76.3h-2.92v12a1.3,1.3,0,0,0,.65,1.28,2.7,2.7,0,0,0,1.2.19h.48l.59-.06v2.44a6.5,6.5,0,0,1-1.1.23,11.84,11.84,0,0,1-1.24.06,3.32,3.32,0,0,1-2.92-1.1,4.91,4.91,0,0,1-.77-2.86V76.3h-2.48V73.79h2.48Z" style="fill:#1a1a1a"/><path d="M191.83,66.9h3.08v9.37a8.87,8.87,0,0,1,2-2,6.63,6.63,0,0,1,3.71-1c2.65,0,4.45.92,5.4,2.78a9.55,9.55,0,0,1,.77,4.22V92.09h-3.16V80.56a6.49,6.49,0,0,0-.51-3,3.29,3.29,0,0,0-3.15-1.5,5.27,5.27,0,0,0-3.47,1.31c-1,.88-1.55,2.54-1.55,5v9.7h-3.08Z" style="fill:#1a1a1a"/><path d="M211.29,67h3.13v3.49h-3.13Zm0,6.89h3.13V92.09h-3.13Z" style="fill:#1a1a1a"/><path d="M220.9,86.35a4.39,4.39,0,0,0,.78,2.36c.79,1,2.17,1.49,4.12,1.49a6.13,6.13,0,0,0,3.07-.75,2.46,2.46,0,0,0,1.33-2.3,2,2,0,0,0-1.06-1.79,13.08,13.08,0,0,0-2.68-.87L224,83.87a11.91,11.91,0,0,1-3.51-1.3,3.87,3.87,0,0,1-2-3.45,5.25,5.25,0,0,1,1.89-4.2,7.66,7.66,0,0,1,5.1-1.61c2.8,0,4.81.81,6.05,2.43a5.18,5.18,0,0,1,1.12,3.31h-2.9a3.42,3.42,0,0,0-.76-1.88c-.72-.81-2-1.21-3.76-1.21a4.6,4.6,0,0,0-2.7.66,2.09,2.09,0,0,0-.92,1.76,2.16,2.16,0,0,0,1.21,1.91,7.55,7.55,0,0,0,2.05.75l2.08.49a16.25,16.25,0,0,1,4.52,1.56,4.11,4.11,0,0,1,1.8,3.71A5.63,5.63,0,0,1,231.36,91q-1.87,1.77-5.72,1.77c-2.76,0-4.71-.61-5.85-1.85a7,7,0,0,1-1.85-4.59Z" style="fill:#1a1a1a"/><path d="M256.1,81a1.67,1.67,0,0,0,1.42-.89,2.65,2.65,0,0,0,.21-1.18,2.49,2.49,0,0,0-1.12-2.29,5.9,5.9,0,0,0-3.2-.72A4.05,4.05,0,0,0,250,77.25a4.34,4.34,0,0,0-.73,2.15H246.4c0-2.27.79-3.84,2.19-4.73a9,9,0,0,1,4.89-1.32,9.94,9.94,0,0,1,5.24,1.23,4.17,4.17,0,0,1,2,3.83V89a1.28,1.28,0,0,0,.2.77.94.94,0,0,0,.82.29l.47,0c.17,0,.35,0,.54-.07v2.27a9.28,9.28,0,0,1-1.09.26,8.89,8.89,0,0,1-1,0,2.51,2.51,0,0,1-2.3-1.13,4.31,4.31,0,0,1-.53-1.69,7.84,7.84,0,0,1-2.7,2.13,8.31,8.31,0,0,1-3.88.91,5.76,5.76,0,0,1-4.16-1.55,5.1,5.1,0,0,1-1.62-3.86A5,5,0,0,1,247,83.36a7.55,7.55,0,0,1,4.17-1.73Zm-6.47,8.31a3.62,3.62,0,0,0,2.3.76,7,7,0,0,0,3.15-.75,4.22,4.22,0,0,0,2.56-4.07V82.79a5.19,5.19,0,0,1-1.45.6,11.12,11.12,0,0,1-1.74.34l-1.86.24a7.19,7.19,0,0,0-2.51.7,2.73,2.73,0,0,0-1.43,2.56A2.53,2.53,0,0,0,249.63,89.33Z" style="fill:#1a1a1a"/><path d="M265.5,73.88h3V76.3a7.62,7.62,0,0,1,2-1.93,6.55,6.55,0,0,1,3.67-1,6.88,6.88,0,0,1,5.29,2.38c1.46,1.59,2.18,3.86,2.18,6.81q0,6-3.14,8.55a7.12,7.12,0,0,1-4.63,1.62,6.22,6.22,0,0,1-3.48-.91A7.69,7.69,0,0,1,268.58,90v9.35H265.5Zm11.58,14.34a8.58,8.58,0,0,0,1.43-5.39,9.89,9.89,0,0,0-.64-3.76,4.66,4.66,0,0,0-8.78.17,12.72,12.72,0,0,0-.63,4.34,9.22,9.22,0,0,0,.63,3.61,4.67,4.67,0,0,0,8,1Z" style="fill:#1a1a1a"/><path d="M285,73.88h3V76.3a7.48,7.48,0,0,1,2-1.93,6.55,6.55,0,0,1,3.67-1A6.88,6.88,0,0,1,299,75.73q2.18,2.38,2.18,6.81,0,6-3.14,8.55a7.15,7.15,0,0,1-4.64,1.62,6.26,6.26,0,0,1-3.48-.91A7.68,7.68,0,0,1,288.05,90v9.35H285Zm11.57,14.34A8.52,8.52,0,0,0,298,82.83a10.1,10.1,0,0,0-.63-3.76,4.66,4.66,0,0,0-8.78.17,12.72,12.72,0,0,0-.63,4.34,9.22,9.22,0,0,0,.63,3.61,4.66,4.66,0,0,0,8,1Z" style="fill:#1a1a1a"/><path d="M304.78,67h3.07v25.1h-3.07Z" style="fill:#1a1a1a"/><path d="M312.47,67h3.12v3.49h-3.12Zm0,6.89h3.12V92.09h-3.12Z" style="fill:#1a1a1a"/><path d="M332.33,74.76c1.3,1,2.07,2.73,2.34,5.18h-3a5.59,5.59,0,0,0-1.25-2.81A4,4,0,0,0,327.3,76a4.32,4.32,0,0,0-4.2,2.87,11.32,11.32,0,0,0-.82,4.59,8.6,8.6,0,0,0,1.16,4.63,4.53,4.53,0,0,0,6.69.71,6.42,6.42,0,0,0,1.55-3.19h3a7.24,7.24,0,0,1-7.81,7A7,7,0,0,1,321.13,90,10.06,10.06,0,0,1,319,83.45q0-4.83,2.35-7.51a7.57,7.57,0,0,1,6-2.68A8,8,0,0,1,332.33,74.76Z" style="fill:#1a1a1a"/><path d="M347.55,81a1.67,1.67,0,0,0,1.42-.89,2.65,2.65,0,0,0,.21-1.18,2.51,2.51,0,0,0-1.12-2.29,5.93,5.93,0,0,0-3.2-.72,4.05,4.05,0,0,0-3.41,1.31,4.24,4.24,0,0,0-.73,2.15h-2.88c.06-2.27.79-3.84,2.2-4.73a9,9,0,0,1,4.89-1.32,9.94,9.94,0,0,1,5.24,1.23,4.17,4.17,0,0,1,2,3.83V89a1.35,1.35,0,0,0,.19.77,1,1,0,0,0,.83.29l.46,0c.17,0,.36,0,.55-.07v2.27a9.28,9.28,0,0,1-1.09.26,9,9,0,0,1-1,0,2.54,2.54,0,0,1-2.31-1.13,4.49,4.49,0,0,1-.53-1.69,7.65,7.65,0,0,1-2.7,2.13,8.25,8.25,0,0,1-3.88.91,5.79,5.79,0,0,1-4.16-1.55,5.13,5.13,0,0,1-1.61-3.86,5,5,0,0,1,1.59-3.94,7.55,7.55,0,0,1,4.17-1.73Zm-6.48,8.31a3.63,3.63,0,0,0,2.31.76,7.08,7.08,0,0,0,3.15-.75,4.22,4.22,0,0,0,2.56-4.07V82.79a5.32,5.32,0,0,1-1.45.6,11.12,11.12,0,0,1-1.74.34L344,84a7.19,7.19,0,0,0-2.51.7,2.73,2.73,0,0,0-1.43,2.56A2.55,2.55,0,0,0,341.07,89.33Z" style="fill:#1a1a1a"/><path d="M357.82,68.68h3.11v5.11h2.93V76.3h-2.93v12a1.3,1.3,0,0,0,.65,1.28,2.7,2.7,0,0,0,1.2.19h.48l.6-.06v2.44a6.83,6.83,0,0,1-1.11.23,11.84,11.84,0,0,1-1.24.06,3.32,3.32,0,0,1-2.92-1.1,4.91,4.91,0,0,1-.77-2.86V76.3h-2.48V73.79h2.48Z" style="fill:#1a1a1a"/><path d="M366.93,67h3.13v3.49h-3.13Zm0,6.89h3.13V92.09h-3.13Z" style="fill:#1a1a1a"/><path d="M388,75.62q2.43,2.35,2.43,6.93a12,12,0,0,1-2.14,7.31q-2.14,2.88-6.64,2.88a7.46,7.46,0,0,1-5.95-2.55,10.14,10.14,0,0,1-2.21-6.86A11,11,0,0,1,375.79,76,7.76,7.76,0,0,1,382,73.26,8.22,8.22,0,0,1,388,75.62Zm-1.91,12.16a11.6,11.6,0,0,0,1.12-5.14,9.27,9.27,0,0,0-.81-4.17A4.55,4.55,0,0,0,382,75.94a4.36,4.36,0,0,0-4.06,2.15,10,10,0,0,0-1.27,5.19,8.71,8.71,0,0,0,1.27,4.87,4.44,4.44,0,0,0,4,1.94A4.19,4.19,0,0,0,386.06,87.78Z" style="fill:#1a1a1a"/><path d="M394.17,73.79h2.93v2.6a8.18,8.18,0,0,1,2.75-2.31,7.29,7.29,0,0,1,3.23-.7q3.9,0,5.26,2.72a9.66,9.66,0,0,1,.75,4.25V92.09H406V80.56a6.22,6.22,0,0,0-.5-2.7,3,3,0,0,0-3-1.71,6,6,0,0,0-1.8.22,4.59,4.59,0,0,0-2.22,1.51,4.45,4.45,0,0,0-1,1.87,12.8,12.8,0,0,0-.23,2.76v9.58h-3.08Z" style="fill:#1a1a1a"/><path d="M435.45,74.76c1.3,1,2.07,2.73,2.34,5.18h-3a5.59,5.59,0,0,0-1.25-2.81A4,4,0,0,0,430.42,76a4.32,4.32,0,0,0-4.2,2.87,11.32,11.32,0,0,0-.82,4.59,8.6,8.6,0,0,0,1.16,4.63,4.53,4.53,0,0,0,6.69.71,6.42,6.42,0,0,0,1.55-3.19h3a7.24,7.24,0,0,1-7.81,7A7,7,0,0,1,424.25,90a10.05,10.05,0,0,1-2.13-6.55q0-4.83,2.34-7.51a7.59,7.59,0,0,1,6-2.68A8,8,0,0,1,435.45,74.76Z" style="fill:#1a1a1a"/><path d="M450.67,81a1.67,1.67,0,0,0,1.42-.89A2.65,2.65,0,0,0,452.3,79a2.51,2.51,0,0,0-1.12-2.29,5.93,5.93,0,0,0-3.2-.72,4.05,4.05,0,0,0-3.41,1.31,4.34,4.34,0,0,0-.73,2.15H441c0-2.27.78-3.84,2.19-4.73a9,9,0,0,1,4.89-1.32,9.94,9.94,0,0,1,5.24,1.23,4.17,4.17,0,0,1,2,3.83V89a1.35,1.35,0,0,0,.19.77,1,1,0,0,0,.83.29l.46,0a5.52,5.52,0,0,0,.55-.07v2.27a9.28,9.28,0,0,1-1.09.26,9,9,0,0,1-1,0,2.54,2.54,0,0,1-2.31-1.13,4.32,4.32,0,0,1-.52-1.69,7.79,7.79,0,0,1-2.71,2.13,8.24,8.24,0,0,1-3.87.91,5.8,5.8,0,0,1-4.17-1.55A5.13,5.13,0,0,1,440,87.3a5,5,0,0,1,1.59-3.94,7.55,7.55,0,0,1,4.17-1.73Zm-6.47,8.31a3.6,3.6,0,0,0,2.3.76,7.08,7.08,0,0,0,3.15-.75,4.22,4.22,0,0,0,2.56-4.07V82.79a5.19,5.19,0,0,1-1.45.6,11.12,11.12,0,0,1-1.74.34l-1.86.24a7.19,7.19,0,0,0-2.51.7,2.73,2.73,0,0,0-1.43,2.56A2.53,2.53,0,0,0,444.2,89.33Z" style="fill:#1a1a1a"/><path d="M460.33,73.79h2.92v2.6A8.27,8.27,0,0,1,466,74.08a7.32,7.32,0,0,1,3.23-.7c2.6,0,4.35.91,5.27,2.72a9.66,9.66,0,0,1,.75,4.25V92.09h-3.13V80.56a6.08,6.08,0,0,0-.5-2.7,3,3,0,0,0-3-1.71,5.93,5.93,0,0,0-1.79.22,5,5,0,0,0-3.23,3.38,12.8,12.8,0,0,0-.23,2.76v9.58h-3.07Z" style="fill:#1a1a1a"/><path d="M501.61,74.76c1.29,1,2.07,2.73,2.33,5.18h-3a5.5,5.5,0,0,0-1.25-2.81A4,4,0,0,0,496.58,76a4.33,4.33,0,0,0-4.21,2.87,11.32,11.32,0,0,0-.82,4.59,8.69,8.69,0,0,0,1.16,4.63,4.53,4.53,0,0,0,6.69.71A6.34,6.34,0,0,0,501,85.62h3a7.22,7.22,0,0,1-7.81,7A7,7,0,0,1,490.41,90a10,10,0,0,1-2.14-6.55q0-4.83,2.34-7.51a7.59,7.59,0,0,1,6-2.68A8,8,0,0,1,501.61,74.76Z" style="fill:#1a1a1a"/><path d="M520.28,75.62q2.43,2.35,2.43,6.93a12,12,0,0,1-2.14,7.31q-2.15,2.88-6.64,2.88A7.46,7.46,0,0,1,508,90.19a10.08,10.08,0,0,1-2.21-6.86A11,11,0,0,1,508.09,76a7.8,7.8,0,0,1,6.25-2.73A8.22,8.22,0,0,1,520.28,75.62Zm-1.91,12.16a11.6,11.6,0,0,0,1.12-5.14,9.27,9.27,0,0,0-.81-4.17,4.56,4.56,0,0,0-4.43-2.53,4.36,4.36,0,0,0-4.05,2.15,10,10,0,0,0-1.27,5.19,8.71,8.71,0,0,0,1.27,4.87,4.43,4.43,0,0,0,4,1.94A4.19,4.19,0,0,0,518.37,87.78Z" style="fill:#1a1a1a"/><path d="M526.57,67h3.07v25.1h-3.07Z" style="fill:#1a1a1a"/><path d="M534.34,67h3.08v25.1h-3.08Z" style="fill:#1a1a1a"/><path d="M553.34,74.29a7,7,0,0,1,2.77,2.37,8.14,8.14,0,0,1,1.22,3.23,21.38,21.38,0,0,1,.27,4H544.29a7.91,7.91,0,0,0,1.31,4.49,4.35,4.35,0,0,0,3.78,1.68,4.86,4.86,0,0,0,3.81-1.59,5.49,5.49,0,0,0,1.13-2.15h3a6.45,6.45,0,0,1-.8,2.25,8,8,0,0,1-1.5,2,7.07,7.07,0,0,1-3.45,1.85,10.44,10.44,0,0,1-2.49.27,7.68,7.68,0,0,1-5.76-2.48,9.74,9.74,0,0,1-2.36-7,10.6,10.6,0,0,1,2.38-7.16,7.85,7.85,0,0,1,6.22-2.75A8.36,8.36,0,0,1,553.34,74.29Zm1.1,7.19a7.93,7.93,0,0,0-.86-3.19,4.42,4.42,0,0,0-4.19-2.23,4.61,4.61,0,0,0-3.52,1.53,5.83,5.83,0,0,0-1.51,3.89Z" style="fill:#1a1a1a"/><path d="M573.59,74.76c1.29,1,2.07,2.73,2.33,5.18h-3a5.58,5.58,0,0,0-1.24-2.81A4,4,0,0,0,568.56,76a4.34,4.34,0,0,0-4.21,2.87,11.49,11.49,0,0,0-.82,4.59,8.6,8.6,0,0,0,1.17,4.63,4.53,4.53,0,0,0,6.69.71,6.41,6.41,0,0,0,1.54-3.19h3a7.22,7.22,0,0,1-7.81,7A7,7,0,0,1,562.39,90a10,10,0,0,1-2.14-6.55q0-4.83,2.34-7.51a7.59,7.59,0,0,1,6-2.68A8,8,0,0,1,573.59,74.76Z" style="fill:#1a1a1a"/><path d="M579.62,68.68h3.11v5.11h2.92V76.3h-2.92v12a1.28,1.28,0,0,0,.65,1.28,2.62,2.62,0,0,0,1.19.19h.48l.6-.06v2.44a6.71,6.71,0,0,1-1.1.23,12.12,12.12,0,0,1-1.24.06,3.34,3.34,0,0,1-2.93-1.1,4.91,4.91,0,0,1-.76-2.86V76.3h-2.48V73.79h2.48Z" style="fill:#1a1a1a"/><path d="M198.24,122.15h-5a4.37,4.37,0,0,0-.7-1.88,3,3,0,0,0-2.55-1.13,3.37,3.37,0,0,0-3.37,2.44,10.53,10.53,0,0,0-.47,3.46,9.6,9.6,0,0,0,.47,3.29,3.26,3.26,0,0,0,3.29,2.33,2.91,2.91,0,0,0,2.42-.92,4.6,4.6,0,0,0,.87-2.4h5a8.2,8.2,0,0,1-1.61,4.21,7.81,7.81,0,0,1-6.78,3.19q-4.5,0-6.62-2.66a10.82,10.82,0,0,1-2.12-6.92q0-4.81,2.34-7.47a8.15,8.15,0,0,1,6.46-2.67,9.8,9.8,0,0,1,5.74,1.57Q197.82,118.17,198.24,122.15Z" style="fill:#1a1a1a"/><path d="M217.12,117.82a10.92,10.92,0,0,1,2.36,7,10.81,10.81,0,0,1-2.36,7q-2.35,2.91-7.16,2.91t-7.16-2.91a10.81,10.81,0,0,1-2.36-7,10.92,10.92,0,0,1,2.36-7q2.35-3,7.16-2.95T217.12,117.82ZM209.94,119a3.89,3.89,0,0,0-3.29,1.51,8.69,8.69,0,0,0,0,8.64,4.32,4.32,0,0,0,6.58,0,8.76,8.76,0,0,0,0-8.64A3.88,3.88,0,0,0,209.94,119Z" style="fill:#1a1a1a"/><path d="M231.73,119.07a3.4,3.4,0,0,0-3.4,2.1,7.22,7.22,0,0,0-.48,2.84v10.08H223V115.5h4.7v2.72a8.24,8.24,0,0,1,1.78-2.07,6.18,6.18,0,0,1,3.81-1.13,7.22,7.22,0,0,1,4.72,1.51q1.85,1.52,1.84,5v12.54h-5V122.76a5.16,5.16,0,0,0-.39-2.25A2.77,2.77,0,0,0,231.73,119.07Z" style="fill:#1a1a1a"/><path d="M257.18,116.32a6,6,0,0,1,2.51,4.82h-4.87a2.87,2.87,0,0,0-.53-1.49,3.31,3.31,0,0,0-2.73-1,4,4,0,0,0-2.27.5,1.42,1.42,0,0,0-.67,1.16,1.26,1.26,0,0,0,.72,1.21,30.48,30.48,0,0,0,5.07,1.35,9.39,9.39,0,0,1,4.36,2.07,4.69,4.69,0,0,1,1.44,3.5,5.65,5.65,0,0,1-2.06,4.52q-2.07,1.75-6.37,1.76t-6.48-1.86a6,6,0,0,1-2.1-4.72h4.94a3.23,3.23,0,0,0,.67,1.84c.6.65,1.72,1,3.35,1a5.17,5.17,0,0,0,2.28-.43,1.43,1.43,0,0,0,.16-2.53,28.64,28.64,0,0,0-5.07-1.47,10.53,10.53,0,0,1-4.47-2,4.26,4.26,0,0,1-1.29-3.34,5.81,5.81,0,0,1,2-4.44,8.11,8.11,0,0,1,5.7-1.85A10.59,10.59,0,0,1,257.18,116.32Z" style="fill:#1a1a1a"/><path d="M272.34,130.62v3.64l-2.31.09q-3.45.12-4.71-1.2a3.52,3.52,0,0,1-.82-2.58V119.11h-2.6v-3.47h2.6v-5.2h4.81v5.2h3v3.47h-3V129a2.18,2.18,0,0,0,.3,1.43,3.25,3.25,0,0,0,1.77.28h.47C272,130.64,272.18,130.64,272.34,130.62Z" style="fill:#1a1a1a"/><path d="M284.83,120c-2,0-3.27.64-3.95,1.91a7.58,7.58,0,0,0-.56,3.32v8.9h-4.9V115.47h4.64v3.24a10.31,10.31,0,0,1,2-2.54,5.32,5.32,0,0,1,3.55-1.15h.24l.41,0v5c-.3,0-.58-.06-.82-.07Z" style="fill:#1a1a1a"/><path d="M301,131.46l-.34.51a3.4,3.4,0,0,1-.65.76,6.8,6.8,0,0,1-2.21,1.4,7.56,7.56,0,0,1-2.5.37q-4.14,0-5.58-3a11.48,11.48,0,0,1-.8-4.84V115.47h5v11.22a5.93,5.93,0,0,0,.38,2.4,2.59,2.59,0,0,0,2.61,1.41,3.43,3.43,0,0,0,3.42-2,7.28,7.28,0,0,0,.48-2.89V115.47h4.94v18.62H301Z" style="fill:#1a1a1a"/><path d="M326.58,122.15h-5a4.24,4.24,0,0,0-.7-1.88,2.94,2.94,0,0,0-2.54-1.13,3.36,3.36,0,0,0-3.37,2.44,10.24,10.24,0,0,0-.48,3.46,9.34,9.34,0,0,0,.48,3.29,3.25,3.25,0,0,0,3.28,2.33,2.92,2.92,0,0,0,2.43-.92,4.6,4.6,0,0,0,.87-2.4h5a8.11,8.11,0,0,1-1.61,4.21,7.79,7.79,0,0,1-6.78,3.19q-4.5,0-6.61-2.66a10.76,10.76,0,0,1-2.12-6.92q0-4.81,2.34-7.47a8.14,8.14,0,0,1,6.46-2.67,9.77,9.77,0,0,1,5.73,1.57Q326.18,118.17,326.58,122.15Z" style="fill:#1a1a1a"/><path d="M338.46,130.62v3.64l-2.31.09q-3.45.12-4.71-1.2a3.52,3.52,0,0,1-.82-2.58V119.11H328v-3.47h2.6v-5.2h4.82v5.2h3v3.47h-3V129c0,.76.09,1.24.29,1.43a3.25,3.25,0,0,0,1.77.28H338C338.14,130.64,338.3,130.64,338.46,130.62Z" style="fill:#1a1a1a"/><path d="M346.59,108.75v4.49h-4.93v-4.49Zm0,6.72v18.62h-4.93V115.47Z" style="fill:#1a1a1a"/><path d="M349.48,115.47H355l3.88,13.74,4-13.74H368l-6.72,18.62h-5.14Z" style="fill:#1a1a1a"/><path d="M386.72,128.62A6.16,6.16,0,0,1,385,132a8.47,8.47,0,0,1-6.7,2.72,9.47,9.47,0,0,1-6.28-2.29q-2.72-2.29-2.71-7.45c0-3.23.81-5.7,2.45-7.42a8.38,8.38,0,0,1,6.36-2.58,9.78,9.78,0,0,1,4.19.87,7.37,7.37,0,0,1,3.08,2.75,9.47,9.47,0,0,1,1.42,3.85,26,26,0,0,1,.15,3.69H374.21a4.64,4.64,0,0,0,1.76,3.93,4.12,4.12,0,0,0,2.43.7,3.47,3.47,0,0,0,2.44-.85,4.1,4.1,0,0,0,.91-1.29Zm-4.82-5.7a4.22,4.22,0,0,0-1.17-2.93,3.62,3.62,0,0,0-2.61-1,3.3,3.3,0,0,0-2.62,1.06,5.27,5.27,0,0,0-1.17,2.87Z" style="fill:#1a1a1a"/><path d="M408.7,108.75v4c-.27,0-.73-.06-1.38-.07a1.58,1.58,0,0,0-1.33.42,1.61,1.61,0,0,0-.37,1v1.58h3.2v3.43h-3.2v15h-4.85v-15h-2.72v-3.43h2.67v-1.2c0-2,.33-3.37,1-4.12.7-1.11,2.41-1.67,5.11-1.67l.83,0Z" style="fill:#1a1a1a"/><path d="M427.57,128.62a6.18,6.18,0,0,1-1.73,3.37,8.46,8.46,0,0,1-6.7,2.72,9.42,9.42,0,0,1-6.27-2.29q-2.72-2.29-2.72-7.45,0-4.84,2.46-7.42A8.36,8.36,0,0,1,419,115a9.78,9.78,0,0,1,4.19.87,7.35,7.35,0,0,1,3.07,2.75,9.32,9.32,0,0,1,1.42,3.85,24.33,24.33,0,0,1,.16,3.69H415.06a4.61,4.61,0,0,0,1.76,3.93,4.11,4.11,0,0,0,2.42.7,3.5,3.5,0,0,0,2.45-.85,4.08,4.08,0,0,0,.9-1.29Zm-4.82-5.7a4.22,4.22,0,0,0-1.17-2.93,3.62,3.62,0,0,0-2.61-1,3.29,3.29,0,0,0-2.62,1.06,5.27,5.27,0,0,0-1.17,2.87Z" style="fill:#1a1a1a"/><path d="M447,128.62a6.16,6.16,0,0,1-1.72,3.37,8.47,8.47,0,0,1-6.7,2.72,9.47,9.47,0,0,1-6.28-2.29q-2.71-2.29-2.71-7.45c0-3.23.81-5.7,2.45-7.42a8.4,8.4,0,0,1,6.37-2.58,9.74,9.74,0,0,1,4.18.87,7.37,7.37,0,0,1,3.08,2.75,9.47,9.47,0,0,1,1.42,3.85,26,26,0,0,1,.15,3.69H434.52a4.64,4.64,0,0,0,1.76,3.93,4.14,4.14,0,0,0,2.43.7,3.47,3.47,0,0,0,2.44-.85,3.94,3.94,0,0,0,.91-1.29Zm-4.82-5.7A4.22,4.22,0,0,0,441,120a3.62,3.62,0,0,0-2.6-1,3.31,3.31,0,0,0-2.63,1.06,5.27,5.27,0,0,0-1.17,2.87Z" style="fill:#1a1a1a"/><path d="M467.51,108.94v25.15h-4.74v-2.58a6,6,0,0,1-5.69,3.16,6.9,6.9,0,0,1-5.49-2.64,10.1,10.1,0,0,1-2.23-6.77,11.67,11.67,0,0,1,2.19-7.5,7.14,7.14,0,0,1,5.87-2.74,5.84,5.84,0,0,1,5.15,2.8v-8.88Zm-13.13,16a7.29,7.29,0,0,0,1,4.12,3.39,3.39,0,0,0,3.07,1.55,3.61,3.61,0,0,0,3.15-1.53,6.89,6.89,0,0,0,1.07-4c0-2.28-.57-3.9-1.72-4.88a3.69,3.69,0,0,0-2.46-.89,3.43,3.43,0,0,0-3.14,1.61A7.46,7.46,0,0,0,454.38,124.9Z" style="fill:#1a1a1a"/><path d="M482.05,134.59a6.68,6.68,0,0,1-3.71-.92,7.54,7.54,0,0,1-1.81-1.92v2.34h-4.77V108.94h4.85v9a7.32,7.32,0,0,1,2-2,6,6,0,0,1,3.35-.85,6.91,6.91,0,0,1,5.75,2.64,10.8,10.8,0,0,1,2.08,6.84,12,12,0,0,1-2.06,7.2A6.63,6.63,0,0,1,482.05,134.59Zm2.67-9.54a9.06,9.06,0,0,0-.52-3.28,3.57,3.57,0,0,0-3.59-2.46,3.62,3.62,0,0,0-3.64,2.41,9.12,9.12,0,0,0-.51,3.32,6.92,6.92,0,0,0,1.06,4,3.62,3.62,0,0,0,3.23,1.57,3.32,3.32,0,0,0,2.92-1.52A6.88,6.88,0,0,0,484.72,125.05Z" style="fill:#1a1a1a"/><path d="M494,117.48q1.94-2.46,6.63-2.46a11.93,11.93,0,0,1,5.44,1.21q2.37,1.22,2.37,4.58v8.55c0,.59,0,1.31,0,2.15a2.66,2.66,0,0,0,.29,1.3,1.76,1.76,0,0,0,.72.57v.71h-5.3a5.41,5.41,0,0,1-.31-1.06c-.06-.33-.1-.7-.14-1.12a9.78,9.78,0,0,1-2.32,1.86,7,7,0,0,1-3.55.9,6.12,6.12,0,0,1-4.18-1.44,5.15,5.15,0,0,1-1.65-4.09,5.32,5.32,0,0,1,2.65-5A11.89,11.89,0,0,1,499,123l1.66-.21a7.55,7.55,0,0,0,1.93-.42,1.48,1.48,0,0,0,1-1.39,1.66,1.66,0,0,0-.79-1.58,5,5,0,0,0-2.34-.43,3,3,0,0,0-2.44.85,3.52,3.52,0,0,0-.68,1.71h-4.7A7.13,7.13,0,0,1,494,117.48Zm3.63,13.09a2.51,2.51,0,0,0,1.67.57,5,5,0,0,0,2.9-.93,3.91,3.91,0,0,0,1.37-3.36V125a5.41,5.41,0,0,1-.93.47,7.39,7.39,0,0,1-1.29.33l-1.09.2a7.38,7.38,0,0,0-2.21.67,2.23,2.23,0,0,0-1.12,2.07A2.12,2.12,0,0,0,497.64,130.57Z" style="fill:#1a1a1a"/><path d="M528.89,122.15h-5a4.24,4.24,0,0,0-.7-1.88,2.94,2.94,0,0,0-2.54-1.13,3.35,3.35,0,0,0-3.37,2.44,10.24,10.24,0,0,0-.48,3.46,9.34,9.34,0,0,0,.48,3.29,3.25,3.25,0,0,0,3.28,2.33,2.92,2.92,0,0,0,2.43-.92,4.69,4.69,0,0,0,.87-2.4h5a8.11,8.11,0,0,1-1.61,4.21,7.79,7.79,0,0,1-6.78,3.19q-4.5,0-6.61-2.66a10.76,10.76,0,0,1-2.12-6.92q0-4.81,2.34-7.47a8.14,8.14,0,0,1,6.46-2.67,9.77,9.77,0,0,1,5.73,1.57Q528.49,118.17,528.89,122.15Z" style="fill:#1a1a1a"/><path d="M549.33,134.09h-5.88l-4.46-8-2,2.1v5.86h-4.79V109H537v13.57l6.06-7h6l-6.52,7.13Z" style="fill:#1a1a1a"/><path d="M182.11,168h3.07v9.36a8.79,8.79,0,0,1,2-1.94,6.61,6.61,0,0,1,3.71-1q4,0,5.4,2.79a9.52,9.52,0,0,1,.77,4.22V193.2h-3.17V181.66a6.44,6.44,0,0,0-.51-2.95,3.27,3.27,0,0,0-3.14-1.51,5.21,5.21,0,0,0-3.47,1.32c-1,.88-1.56,2.53-1.56,5v9.71h-3.07Z" style="fill:#1a1a1a"/><path d="M212.88,175.4a6.89,6.89,0,0,1,2.76,2.37,8.15,8.15,0,0,1,1.23,3.23,21.3,21.3,0,0,1,.27,4H203.83a7.88,7.88,0,0,0,1.3,4.48,4.36,4.36,0,0,0,3.78,1.69,4.85,4.85,0,0,0,3.82-1.6,5.45,5.45,0,0,0,1.13-2.14h3a6.3,6.3,0,0,1-.79,2.24,7.84,7.84,0,0,1-1.51,2,7,7,0,0,1-3.44,1.84,10,10,0,0,1-2.49.28,7.62,7.62,0,0,1-5.76-2.49,9.69,9.69,0,0,1-2.36-7,10.53,10.53,0,0,1,2.38-7.16,7.78,7.78,0,0,1,6.21-2.75A8.3,8.3,0,0,1,212.88,175.4Zm1.1,7.19a8,8,0,0,0-.87-3.2,4.41,4.41,0,0,0-4.18-2.22,4.63,4.63,0,0,0-3.53,1.53,5.81,5.81,0,0,0-1.51,3.89Z" style="fill:#1a1a1a"/><path d="M221.12,168.09h3.08V193.2h-3.08Z" style="fill:#1a1a1a"/><path d="M228.56,175h3v2.43a7.35,7.35,0,0,1,2-1.93,6.44,6.44,0,0,1,3.66-1,6.91,6.91,0,0,1,5.3,2.39q2.17,2.37,2.17,6.81c0,4-1,6.83-3.14,8.54a7.1,7.1,0,0,1-4.63,1.62,6.34,6.34,0,0,1-3.48-.9,8.1,8.1,0,0,1-1.84-1.76v9.35h-3.07Zm11.57,14.35a8.58,8.58,0,0,0,1.43-5.39,10.06,10.06,0,0,0-.63-3.76,4.65,4.65,0,0,0-8.78.17,12.42,12.42,0,0,0-.64,4.34,9,9,0,0,0,.64,3.6,4.37,4.37,0,0,0,4.39,2.84A4.41,4.41,0,0,0,240.13,189.33Z" style="fill:#1a1a1a"/><path d="M249.71,169.31c.72-1.05,2.1-1.58,4.16-1.58l.59,0,.7.05v2.81l-.7-.05h-.4c-.95,0-1.51.25-1.69.73a13.93,13.93,0,0,0-.28,3.7h3.07v2.43h-3.07V193.2h-3V177.41H246.5V175h2.55v-2.87A5.39,5.39,0,0,1,249.71,169.31Z" style="fill:#1a1a1a"/><path d="M261.08,174.9v12.15a5.26,5.26,0,0,0,.43,2.29,3,3,0,0,0,3,1.64,4.21,4.21,0,0,0,4.26-2.87,11.74,11.74,0,0,0,.62-4.23v-9h3.07v18.3h-2.9l0-2.7a6.21,6.21,0,0,1-5.65,3.19q-3.84,0-5.23-2.61a7.92,7.92,0,0,1-.76-3.74V174.9Z" style="fill:#1a1a1a"/><path d="M277.55,168.09h3.08V193.2h-3.08Z" style="fill:#1a1a1a"/><path d="M296.4,169.31c.72-1.05,2.1-1.58,4.15-1.58l.6,0,.7.05v2.81l-.7-.05h-.4c-.95,0-1.51.25-1.7.73a14.58,14.58,0,0,0-.27,3.7h3.07v2.43h-3.07V193.2h-3V177.41h-2.55V175h2.55v-2.87A5.39,5.39,0,0,1,296.4,169.31Z" style="fill:#1a1a1a"/><path d="M318,176.72q2.43,2.35,2.43,6.93a11.91,11.91,0,0,1-2.14,7.31c-1.42,1.93-3.64,2.89-6.63,2.89a7.48,7.48,0,0,1-6-2.55,10.15,10.15,0,0,1-2.21-6.86,11,11,0,0,1,2.33-7.34,7.78,7.78,0,0,1,6.24-2.73A8.19,8.19,0,0,1,318,176.72ZM316,188.89a11.65,11.65,0,0,0,1.13-5.15,9.22,9.22,0,0,0-.81-4.16,4.56,4.56,0,0,0-4.43-2.53,4.37,4.37,0,0,0-4.06,2.15,10.08,10.08,0,0,0-1.26,5.19,8.76,8.76,0,0,0,1.26,4.86,4.46,4.46,0,0,0,4,1.95A4.19,4.19,0,0,0,316,188.89Z" style="fill:#1a1a1a"/><path d="M324.24,174.9h2.92v3.16a7,7,0,0,1,1.76-2.25,4.58,4.58,0,0,1,3.23-1.32h.3l.7.07v3.25a3.63,3.63,0,0,0-.51-.07l-.5,0a4.38,4.38,0,0,0-3.57,1.5,5.17,5.17,0,0,0-1.25,3.44V193.2h-3.08Z" style="fill:#1a1a1a"/><path d="M346.15,169.79h3.11v5.11h2.92v2.51h-2.92v11.94a1.31,1.31,0,0,0,.65,1.29,2.89,2.89,0,0,0,1.2.18h.47a4.68,4.68,0,0,0,.6-.06v2.45a6.49,6.49,0,0,1-1.1.22,9.54,9.54,0,0,1-1.24.07,3.35,3.35,0,0,1-2.92-1.1,4.94,4.94,0,0,1-.77-2.87V177.41h-2.48V174.9h2.48Z" style="fill:#1a1a1a"/><path d="M355.26,168h3.08v9.36a8.57,8.57,0,0,1,2-1.94,6.63,6.63,0,0,1,3.71-1q4,0,5.4,2.79a9.52,9.52,0,0,1,.77,4.22V193.2H367V181.66a6.29,6.29,0,0,0-.52-2.95,3.25,3.25,0,0,0-3.14-1.51,5.23,5.23,0,0,0-3.47,1.32c-1,.88-1.55,2.53-1.55,5v9.71h-3.08Z" style="fill:#1a1a1a"/><path d="M386,175.4a7,7,0,0,1,2.77,2.37A8.14,8.14,0,0,1,390,181a21.3,21.3,0,0,1,.27,4H377a7.88,7.88,0,0,0,1.31,4.48,4.33,4.33,0,0,0,3.78,1.69,4.84,4.84,0,0,0,3.81-1.6,5.45,5.45,0,0,0,1.13-2.14h3a6.34,6.34,0,0,1-.8,2.24,8,8,0,0,1-1.5,2,7.05,7.05,0,0,1-3.45,1.84,9.92,9.92,0,0,1-2.49.28,7.65,7.65,0,0,1-5.76-2.49,9.73,9.73,0,0,1-2.36-7,10.53,10.53,0,0,1,2.38-7.16,7.82,7.82,0,0,1,6.22-2.75A8.23,8.23,0,0,1,386,175.4Zm1.1,7.19a8,8,0,0,0-.86-3.2,4.43,4.43,0,0,0-4.19-2.22,4.61,4.61,0,0,0-3.52,1.53,5.81,5.81,0,0,0-1.51,3.89Z" style="fill:#1a1a1a"/><path d="M403.66,175h3v2.43a7.33,7.33,0,0,1,2-1.93,6.46,6.46,0,0,1,3.66-1,6.91,6.91,0,0,1,5.3,2.39q2.18,2.37,2.17,6.81c0,4-1,6.83-3.14,8.54a7.1,7.1,0,0,1-4.63,1.62,6.34,6.34,0,0,1-3.48-.9,8.1,8.1,0,0,1-1.84-1.76v9.35h-3.07Zm11.57,14.35a8.52,8.52,0,0,0,1.43-5.39,10.06,10.06,0,0,0-.63-3.76,4.65,4.65,0,0,0-8.78.17,12.66,12.66,0,0,0-.64,4.34,9.2,9.2,0,0,0,.64,3.6,4.67,4.67,0,0,0,8,1Z" style="fill:#1a1a1a"/><path d="M423.47,174.9h2.92v3.16a6.84,6.84,0,0,1,1.76-2.25,4.56,4.56,0,0,1,3.23-1.32h.29l.7.07v3.25a3.32,3.32,0,0,0-.5-.07l-.51,0a4.38,4.38,0,0,0-3.57,1.5,5.23,5.23,0,0,0-1.25,3.44V193.2h-3.07Z" style="fill:#1a1a1a"/><path d="M446.34,175.4a7,7,0,0,1,2.77,2.37,8.14,8.14,0,0,1,1.22,3.23,21.3,21.3,0,0,1,.27,4H437.29a7.88,7.88,0,0,0,1.31,4.48,4.33,4.33,0,0,0,3.78,1.69,4.84,4.84,0,0,0,3.81-1.6,5.45,5.45,0,0,0,1.13-2.14h3a6.34,6.34,0,0,1-.8,2.24,8,8,0,0,1-1.5,2,7.05,7.05,0,0,1-3.45,1.84,9.92,9.92,0,0,1-2.49.28,7.65,7.65,0,0,1-5.76-2.49,9.73,9.73,0,0,1-2.36-7,10.58,10.58,0,0,1,2.38-7.16,7.82,7.82,0,0,1,6.22-2.75A8.23,8.23,0,0,1,446.34,175.4Zm1.1,7.19a8,8,0,0,0-.86-3.2,4.43,4.43,0,0,0-4.19-2.22,4.61,4.61,0,0,0-3.52,1.53,5.81,5.81,0,0,0-1.51,3.89Z" style="fill:#1a1a1a"/><path d="M456.33,187.46a4.36,4.36,0,0,0,.78,2.35c.79,1,2.17,1.49,4.12,1.49a6.23,6.23,0,0,0,3.07-.74,2.46,2.46,0,0,0,1.32-2.3,2,2,0,0,0-1.05-1.79,12.33,12.33,0,0,0-2.68-.88l-2.48-.61a12.2,12.2,0,0,1-3.51-1.3,3.88,3.88,0,0,1-2-3.45,5.27,5.27,0,0,1,1.9-4.21,7.64,7.64,0,0,1,5.1-1.6c2.8,0,4.81.81,6.05,2.42a5.21,5.21,0,0,1,1.12,3.32h-2.9a3.48,3.48,0,0,0-.76-1.89c-.72-.8-2-1.2-3.76-1.2a4.6,4.6,0,0,0-2.7.66,2.07,2.07,0,0,0-.92,1.75,2.15,2.15,0,0,0,1.21,1.91,6.94,6.94,0,0,0,2,.75l2.08.5a16,16,0,0,1,4.52,1.55,4.12,4.12,0,0,1,1.8,3.71,5.62,5.62,0,0,1-1.88,4.22q-1.87,1.78-5.72,1.78-4.14,0-5.86-1.85a7,7,0,0,1-1.84-4.59Z" style="fill:#1a1a1a"/><path d="M483.31,175.4a6.89,6.89,0,0,1,2.76,2.37A8.15,8.15,0,0,1,487.3,181a21.3,21.3,0,0,1,.27,4H474.26a7.88,7.88,0,0,0,1.3,4.48,4.36,4.36,0,0,0,3.78,1.69,4.85,4.85,0,0,0,3.82-1.6,5.45,5.45,0,0,0,1.13-2.14h3a6.3,6.3,0,0,1-.79,2.24,7.84,7.84,0,0,1-1.51,2,7,7,0,0,1-3.44,1.84,10,10,0,0,1-2.49.28,7.62,7.62,0,0,1-5.76-2.49,9.69,9.69,0,0,1-2.36-7,10.57,10.57,0,0,1,2.37-7.16,7.82,7.82,0,0,1,6.22-2.75A8.3,8.3,0,0,1,483.31,175.4Zm1.1,7.19a8,8,0,0,0-.87-3.2,4.41,4.41,0,0,0-4.18-2.22,4.63,4.63,0,0,0-3.53,1.53,5.81,5.81,0,0,0-1.51,3.89Z" style="fill:#1a1a1a"/><path d="M491.47,174.9h2.92v2.59a8,8,0,0,1,2.75-2.3,7.29,7.29,0,0,1,3.23-.7q3.9,0,5.26,2.71a9.66,9.66,0,0,1,.76,4.26V193.2h-3.13V181.66a6.29,6.29,0,0,0-.5-2.7,3,3,0,0,0-3-1.71,6,6,0,0,0-1.8.23,5,5,0,0,0-3.22,3.37,12.93,12.93,0,0,0-.23,2.76v9.59h-3.07Z" style="fill:#1a1a1a"/><path d="M511.55,169.79h3.11v5.11h2.92v2.51h-2.92v11.94a1.3,1.3,0,0,0,.65,1.29,2.83,2.83,0,0,0,1.19.18H517a5,5,0,0,0,.6-.06v2.45a6.49,6.49,0,0,1-1.1.22,9.64,9.64,0,0,1-1.24.07,3.34,3.34,0,0,1-2.92-1.1,4.87,4.87,0,0,1-.77-2.87V177.41h-2.48V174.9h2.48Z" style="fill:#1a1a1a"/><path d="M532,175.4a7,7,0,0,1,2.77,2.37A8.14,8.14,0,0,1,536,181a21.3,21.3,0,0,1,.27,4H522.91a7.88,7.88,0,0,0,1.31,4.48A4.33,4.33,0,0,0,528,191.2a4.84,4.84,0,0,0,3.81-1.6,5.45,5.45,0,0,0,1.13-2.14h3a6.34,6.34,0,0,1-.8,2.24,8,8,0,0,1-1.5,2,7.05,7.05,0,0,1-3.45,1.84,9.92,9.92,0,0,1-2.49.28,7.65,7.65,0,0,1-5.76-2.49,9.73,9.73,0,0,1-2.36-7,10.58,10.58,0,0,1,2.38-7.16,7.82,7.82,0,0,1,6.22-2.75A8.23,8.23,0,0,1,532,175.4Zm1.1,7.19a8,8,0,0,0-.86-3.2,4.43,4.43,0,0,0-4.19-2.22,4.61,4.61,0,0,0-3.52,1.53,5.81,5.81,0,0,0-1.51,3.89Z" style="fill:#1a1a1a"/><path d="M540.21,174.9h2.92v3.16a7,7,0,0,1,1.76-2.25,4.56,4.56,0,0,1,3.23-1.32h.29l.7.07v3.25a3.32,3.32,0,0,0-.5-.07l-.51,0a4.38,4.38,0,0,0-3.57,1.5,5.23,5.23,0,0,0-1.25,3.44V193.2h-3.07Z" style="fill:#1a1a1a"/><path d="M561.24,168h3v9.11a6.73,6.73,0,0,1,5.48-2.7,7.14,7.14,0,0,1,5.56,2.35q2.15,2.34,2.14,6.93a11.85,11.85,0,0,1-2.11,7.21,6.87,6.87,0,0,1-5.85,2.87,6,6,0,0,1-3.53-1,8.46,8.46,0,0,1-1.84-1.91v2.34h-2.84ZM573,189.08a9.8,9.8,0,0,0,1.24-5.23,8.62,8.62,0,0,0-1.24-4.78,4.1,4.1,0,0,0-3.67-1.9,5.14,5.14,0,0,0-3.69,1.55q-1.59,1.56-1.59,5.13a11.41,11.41,0,0,0,.65,4.19,4.52,4.52,0,0,0,4.55,3A4.13,4.13,0,0,0,573,189.08Z" style="fill:#1a1a1a"/><path d="M592.41,174.9h3.4q-.66,1.75-2.89,8c-1.12,3.15-2,5.71-2.8,7.7q-2.67,7-3.76,8.53a4.28,4.28,0,0,1-3.76,1.54,8.31,8.31,0,0,1-1,0,7.35,7.35,0,0,1-.86-.19v-2.8a9.29,9.29,0,0,0,1.16.27,3.78,3.78,0,0,0,.63,0,2.22,2.22,0,0,0,1.26-.28,2.75,2.75,0,0,0,.67-.69c.06-.09.26-.56.62-1.4s.6-1.46.76-1.87l-6.76-18.84h3.48l4.91,14.9Z" style="fill:#1a1a1a"/><path d="M191.92,224.12a1.65,1.65,0,0,0,1.41-.89,2.62,2.62,0,0,0,.21-1.18,2.51,2.51,0,0,0-1.12-2.29,6,6,0,0,0-3.2-.71,4,4,0,0,0-3.41,1.3,4.38,4.38,0,0,0-.73,2.15h-2.87c0-2.26.79-3.83,2.19-4.72a9,9,0,0,1,4.89-1.33,9.94,9.94,0,0,1,5.24,1.23,4.19,4.19,0,0,1,2,3.83v10.55a1.26,1.26,0,0,0,.2.76c.13.2.4.29.82.29l.47,0c.17,0,.35,0,.54-.08v2.27a7.6,7.6,0,0,1-1.09.26,8.89,8.89,0,0,1-1,.05,2.5,2.5,0,0,1-2.3-1.13,4.26,4.26,0,0,1-.53-1.69,8,8,0,0,1-2.7,2.14,8.43,8.43,0,0,1-3.88.9,5.75,5.75,0,0,1-4.16-1.54,5.13,5.13,0,0,1-1.62-3.87,5,5,0,0,1,1.59-3.94,7.54,7.54,0,0,1,4.17-1.72Zm-6.48,8.31a3.63,3.63,0,0,0,2.31.77,7,7,0,0,0,3.14-.75,4.22,4.22,0,0,0,2.56-4.08V225.9a5.19,5.19,0,0,1-1.45.6,12.41,12.41,0,0,1-1.74.34l-1.86.24a7.19,7.19,0,0,0-2.51.7,2.71,2.71,0,0,0-1.43,2.55A2.53,2.53,0,0,0,185.44,232.43Z" style="fill:#1a1a1a"/><path d="M201.57,216.9h2.92v2.59a8.21,8.21,0,0,1,2.75-2.3,7.32,7.32,0,0,1,3.23-.7q3.9,0,5.27,2.71a9.68,9.68,0,0,1,.75,4.26V235.2h-3.13V223.66a6.3,6.3,0,0,0-.49-2.7,3,3,0,0,0-3-1.71,5.94,5.94,0,0,0-1.79.23,4.55,4.55,0,0,0-2.22,1.5,4.4,4.4,0,0,0-1,1.87,12.3,12.3,0,0,0-.23,2.76v9.59h-3.08Z" style="fill:#1a1a1a"/><path d="M230.85,224.12a1.63,1.63,0,0,0,1.41-.89,2.62,2.62,0,0,0,.21-1.18,2.51,2.51,0,0,0-1.12-2.29,6,6,0,0,0-3.2-.71,4,4,0,0,0-3.41,1.3,4.38,4.38,0,0,0-.73,2.15h-2.87q.09-3.39,2.19-4.72a9,9,0,0,1,4.89-1.33,9.94,9.94,0,0,1,5.24,1.23,4.19,4.19,0,0,1,2,3.83v10.55a1.34,1.34,0,0,0,.2.76c.13.2.4.29.83.29l.46,0c.17,0,.35,0,.54-.08v2.27a7.6,7.6,0,0,1-1.09.26,8.89,8.89,0,0,1-1,.05,2.51,2.51,0,0,1-2.3-1.13,4.26,4.26,0,0,1-.53-1.69,8,8,0,0,1-2.7,2.14,8.43,8.43,0,0,1-3.88.9,5.75,5.75,0,0,1-4.16-1.54,5.13,5.13,0,0,1-1.62-3.87,5,5,0,0,1,1.59-3.94,7.54,7.54,0,0,1,4.17-1.72Zm-6.48,8.31a3.63,3.63,0,0,0,2.31.77,7,7,0,0,0,3.14-.75,4.22,4.22,0,0,0,2.56-4.08V225.9a5.06,5.06,0,0,1-1.45.6,12.41,12.41,0,0,1-1.74.34l-1.86.24a7.19,7.19,0,0,0-2.51.7,2.71,2.71,0,0,0-1.43,2.55A2.53,2.53,0,0,0,224.37,232.43Z" style="fill:#1a1a1a"/><path d="M240.59,210.09h3.07V235.2h-3.07Z" style="fill:#1a1a1a"/><path d="M259.72,216.9h3.4c-.43,1.17-1.4,3.85-2.89,8-1.11,3.15-2.05,5.71-2.8,7.7q-2.67,7-3.76,8.53a4.28,4.28,0,0,1-3.75,1.54,8.07,8.07,0,0,1-1,0,7.45,7.45,0,0,1-.87-.19v-2.8a9.72,9.72,0,0,0,1.16.27,3.89,3.89,0,0,0,.64,0,2.18,2.18,0,0,0,1.25-.28,2.59,2.59,0,0,0,.67-.69c.06-.09.27-.56.62-1.4s.61-1.46.77-1.87l-6.77-18.84h3.49l4.9,14.9Z" style="fill:#1a1a1a"/><path d="M264.41,232.77l10.87-13.12H265.21V216.9h14.21v2.51l-10.8,13h11.12v2.75H264.41Z" style="fill:#1a1a1a"/><path d="M283.28,210.09h3.12v3.49h-3.12Zm0,6.89h3.12V235.2h-3.12Z" style="fill:#1a1a1a"/><path d="M291.05,216.9H294v2.59a8.14,8.14,0,0,1,2.76-2.3,7.26,7.26,0,0,1,3.23-.7c2.59,0,4.35.9,5.26,2.71a9.68,9.68,0,0,1,.75,4.26V235.2h-3.13V223.66a6.3,6.3,0,0,0-.49-2.7,3,3,0,0,0-3-1.71,6,6,0,0,0-1.8.23,4.64,4.64,0,0,0-2.22,1.5,4.51,4.51,0,0,0-1,1.87,12.93,12.93,0,0,0-.23,2.76v9.59h-3.08Z" style="fill:#1a1a1a"/><path d="M320.69,217.63a8.45,8.45,0,0,1,1.77,1.74v-2.3h2.84v16.64a12.29,12.29,0,0,1-1,5.5q-1.9,3.73-7.21,3.73a8.83,8.83,0,0,1-4.95-1.32,5.19,5.19,0,0,1-2.25-4.15H313a3.48,3.48,0,0,0,.88,1.9,4.5,4.5,0,0,0,3.26,1c2.35,0,3.88-.83,4.61-2.49a14,14,0,0,0,.59-5.25,6,6,0,0,1-2.21,2.09,7.39,7.39,0,0,1-3.42.68,7.27,7.27,0,0,1-5.18-2.11c-1.48-1.41-2.22-3.73-2.22-7a10.61,10.61,0,0,1,2.23-7.18,6.93,6.93,0,0,1,5.41-2.58A6.57,6.57,0,0,1,320.69,217.63Zm.38,3.3a4.43,4.43,0,0,0-3.55-1.64,4.38,4.38,0,0,0-4.42,3,12,12,0,0,0-.63,4.26,7.5,7.5,0,0,0,1.25,4.7,4,4,0,0,0,3.35,1.62,4.73,4.73,0,0,0,4.65-3,9.87,9.87,0,0,0,.74-3.95A7.64,7.64,0,0,0,321.07,220.93Z" style="fill:#1a1a1a"/><path d="M351.15,216.9h3.4c-.43,1.17-1.4,3.85-2.89,8-1.11,3.15-2.05,5.71-2.8,7.7q-2.67,7-3.76,8.53a4.27,4.27,0,0,1-3.75,1.54,8.07,8.07,0,0,1-1,0,6.93,6.93,0,0,1-.86-.19v-2.8a8.91,8.91,0,0,0,1.16.27,3.7,3.7,0,0,0,.63,0,2.18,2.18,0,0,0,1.25-.28,2.79,2.79,0,0,0,.68-.69c.05-.09.26-.56.61-1.4s.61-1.46.77-1.87l-6.77-18.84h3.49l4.9,14.9Z" style="fill:#1a1a1a"/><path d="M370.47,218.72q2.43,2.35,2.43,6.93a12,12,0,0,1-2.14,7.31q-2.14,2.89-6.64,2.89a7.46,7.46,0,0,1-5.95-2.55,10.15,10.15,0,0,1-2.21-6.86,11,11,0,0,1,2.33-7.34,7.76,7.76,0,0,1,6.24-2.73A8.21,8.21,0,0,1,370.47,218.72Zm-1.91,12.17a11.64,11.64,0,0,0,1.12-5.15,9.22,9.22,0,0,0-.81-4.16,4.54,4.54,0,0,0-4.42-2.53,4.36,4.36,0,0,0-4.06,2.15,10,10,0,0,0-1.27,5.19,8.68,8.68,0,0,0,1.27,4.86,4.44,4.44,0,0,0,4,1.95A4.19,4.19,0,0,0,368.56,230.89Z" style="fill:#1a1a1a"/><path d="M379.75,216.9v12.15a5.26,5.26,0,0,0,.43,2.29,3,3,0,0,0,3,1.64,4.21,4.21,0,0,0,4.26-2.87,11.74,11.74,0,0,0,.62-4.23v-9h3.08v18.3h-2.91l0-2.7a6.11,6.11,0,0,1-1.46,1.76,6.3,6.3,0,0,1-4.19,1.43q-3.84,0-5.23-2.61a7.93,7.93,0,0,1-.75-3.74V216.9Z" style="fill:#1a1a1a"/><path d="M396.22,216.9h2.93v3.16a6.84,6.84,0,0,1,1.76-2.25,4.56,4.56,0,0,1,3.23-1.32h.29l.7.07v3.25a3.27,3.27,0,0,0-.51-.07l-.5,0a4.38,4.38,0,0,0-3.57,1.5,5.23,5.23,0,0,0-1.25,3.44V235.2h-3.08Z" style="fill:#1a1a1a"/><path d="M418.94,216.9l3.52,14.42L426,216.9h3.45l3.59,14.33,3.74-14.33h3.08l-5.32,18.3h-3.19L427.66,221l-3.61,14.17h-3.19l-5.28-18.3Z" style="fill:#1a1a1a"/><path d="M454.1,217.4a7,7,0,0,1,2.77,2.37,8.14,8.14,0,0,1,1.22,3.23,21.3,21.3,0,0,1,.27,4H445.05a7.88,7.88,0,0,0,1.31,4.48,4.33,4.33,0,0,0,3.78,1.69,4.84,4.84,0,0,0,3.81-1.6,5.45,5.45,0,0,0,1.13-2.14h3a6.34,6.34,0,0,1-.8,2.24,8,8,0,0,1-1.5,2,7.05,7.05,0,0,1-3.45,1.84,9.92,9.92,0,0,1-2.49.28,7.65,7.65,0,0,1-5.76-2.49,9.73,9.73,0,0,1-2.36-7,10.53,10.53,0,0,1,2.38-7.16,7.8,7.8,0,0,1,6.22-2.75A8.23,8.23,0,0,1,454.1,217.4Zm1.1,7.19a8,8,0,0,0-.86-3.2,4.43,4.43,0,0,0-4.19-2.22,4.61,4.61,0,0,0-3.52,1.53,5.76,5.76,0,0,0-1.51,3.89Z" style="fill:#1a1a1a"/><path d="M462,210h3v9.11a6.73,6.73,0,0,1,5.48-2.7,7.15,7.15,0,0,1,5.56,2.35q2.14,2.34,2.14,6.93a11.85,11.85,0,0,1-2.11,7.21,6.87,6.87,0,0,1-5.85,2.87,6,6,0,0,1-3.53-1,8.46,8.46,0,0,1-1.84-1.91v2.34H462Zm11.77,21.07a9.8,9.8,0,0,0,1.24-5.23,8.62,8.62,0,0,0-1.24-4.78,4.1,4.1,0,0,0-3.67-1.9,5.14,5.14,0,0,0-3.69,1.55q-1.59,1.56-1.59,5.13a11.41,11.41,0,0,0,.65,4.19,4.52,4.52,0,0,0,4.55,3A4.13,4.13,0,0,0,473.77,231.08Z" style="fill:#1a1a1a"/><path d="M493.82,217.87q1.94,1.5,2.33,5.18h-3a5.46,5.46,0,0,0-1.25-2.81,3.93,3.93,0,0,0-3.13-1.12,4.31,4.31,0,0,0-4.2,2.86,11.4,11.4,0,0,0-.82,4.6,8.65,8.65,0,0,0,1.16,4.62,4.51,4.51,0,0,0,6.69.71,6.38,6.38,0,0,0,1.55-3.19h3a7.24,7.24,0,0,1-7.81,7,7,7,0,0,1-5.73-2.63,10,10,0,0,1-2.13-6.55q0-4.81,2.34-7.5a7.56,7.56,0,0,1,6-2.68A8,8,0,0,1,493.82,217.87Z" style="fill:#1a1a1a"/><path d="M509,224.12a1.65,1.65,0,0,0,1.42-.89,2.62,2.62,0,0,0,.21-1.18,2.51,2.51,0,0,0-1.12-2.29,6,6,0,0,0-3.2-.71,4,4,0,0,0-3.41,1.3,4.38,4.38,0,0,0-.73,2.15h-2.87c.05-2.26.79-3.83,2.19-4.72a9,9,0,0,1,4.89-1.33,9.94,9.94,0,0,1,5.24,1.23,4.19,4.19,0,0,1,2,3.83v10.55a1.34,1.34,0,0,0,.19.76,1,1,0,0,0,.83.29l.46,0c.18,0,.36,0,.55-.08v2.27a7.6,7.6,0,0,1-1.09.26,8.89,8.89,0,0,1-1,.05,2.49,2.49,0,0,1-2.3-1.13,4.1,4.1,0,0,1-.53-1.69,8,8,0,0,1-2.7,2.14,8.43,8.43,0,0,1-3.88.9,5.75,5.75,0,0,1-4.16-1.54,5.13,5.13,0,0,1-1.62-3.87,5,5,0,0,1,1.59-3.94,7.54,7.54,0,0,1,4.17-1.72Zm-6.47,8.31a3.63,3.63,0,0,0,2.3.77,7,7,0,0,0,3.15-.75,4.22,4.22,0,0,0,2.56-4.08V225.9a5.19,5.19,0,0,1-1.45.6,12.41,12.41,0,0,1-1.74.34l-1.86.24a7.19,7.19,0,0,0-2.51.7,2.71,2.71,0,0,0-1.43,2.55A2.53,2.53,0,0,0,502.56,232.43Z" style="fill:#1a1a1a"/><path d="M518.69,216.9h3v2.59a10.26,10.26,0,0,1,2-2,6,6,0,0,1,3.46-1,5.43,5.43,0,0,1,3.52,1.07,5.71,5.71,0,0,1,1.36,1.81,6.33,6.33,0,0,1,5.52-2.88c2.47,0,4.14.88,5,2.66a8.71,8.71,0,0,1,.72,3.86V235.2h-3.2V222.48a3,3,0,0,0-.91-2.51,3.67,3.67,0,0,0-2.23-.68,4.42,4.42,0,0,0-3.12,1.21,5.34,5.34,0,0,0-1.31,4.05V235.2h-3.13V223.25a6.28,6.28,0,0,0-.44-2.71,2.71,2.71,0,0,0-2.62-1.29,4.51,4.51,0,0,0-3.17,1.35q-1.43,1.35-1.42,4.89v9.71h-3.08Z" style="fill:#1a1a1a"/><path d="M559.08,216.9,564,231.8l5.09-14.9h3.37l-6.89,18.3h-3.28l-6.75-18.3Z" style="fill:#1a1a1a"/><path d="M575.07,210.09h3.13v3.49h-3.13Zm0,6.89h3.13V235.2h-3.13Z" style="fill:#1a1a1a"/><path d="M592.9,217.46a8.33,8.33,0,0,1,1.86,1.79V210h3V235.2H595v-2.55a6.72,6.72,0,0,1-2.54,2.45,7.29,7.29,0,0,1-3.36.75,6.77,6.77,0,0,1-5.27-2.57,10.09,10.09,0,0,1-2.23-6.85,11.84,11.84,0,0,1,2-6.93,6.67,6.67,0,0,1,5.81-2.93A6.49,6.49,0,0,1,592.9,217.46ZM586,231.18a4.33,4.33,0,0,0,4,2,4.2,4.2,0,0,0,3.5-1.84,8.73,8.73,0,0,0,1.37-5.27,7.83,7.83,0,0,0-1.41-5.14,4.43,4.43,0,0,0-3.49-1.67,4.62,4.62,0,0,0-3.75,1.78,8.17,8.17,0,0,0-1.44,5.23A9.08,9.08,0,0,0,586,231.18Z" style="fill:#1a1a1a"/><path d="M613.62,217.4a6.89,6.89,0,0,1,2.76,2.37,8.15,8.15,0,0,1,1.23,3.23,21.3,21.3,0,0,1,.27,4H604.57a7.88,7.88,0,0,0,1.3,4.48,4.36,4.36,0,0,0,3.78,1.69,4.85,4.85,0,0,0,3.82-1.6,5.45,5.45,0,0,0,1.13-2.14h3a6.3,6.3,0,0,1-.79,2.24,7.84,7.84,0,0,1-1.51,2,7,7,0,0,1-3.44,1.84,10,10,0,0,1-2.49.28,7.62,7.62,0,0,1-5.76-2.49,9.69,9.69,0,0,1-2.36-7,10.53,10.53,0,0,1,2.38-7.16,7.78,7.78,0,0,1,6.21-2.75A8.3,8.3,0,0,1,613.62,217.4Zm1.1,7.19a8,8,0,0,0-.87-3.2,4.41,4.41,0,0,0-4.18-2.22,4.63,4.63,0,0,0-3.53,1.53,5.81,5.81,0,0,0-1.51,3.89Z" style="fill:#1a1a1a"/><path d="M635,218.72q2.41,2.35,2.42,6.93a12,12,0,0,1-2.13,7.31q-2.15,2.89-6.64,2.89a7.48,7.48,0,0,1-6-2.55,10.15,10.15,0,0,1-2.2-6.86,11,11,0,0,1,2.32-7.34,7.78,7.78,0,0,1,6.25-2.73A8.21,8.21,0,0,1,635,218.72Zm-1.91,12.17a11.64,11.64,0,0,0,1.12-5.15,9.22,9.22,0,0,0-.81-4.16,4.55,4.55,0,0,0-4.43-2.53,4.35,4.35,0,0,0-4,2.15,10,10,0,0,0-1.27,5.19,8.68,8.68,0,0,0,1.27,4.86,4.43,4.43,0,0,0,4,1.95A4.19,4.19,0,0,0,633.13,230.89Z" style="fill:#1a1a1a"/><rect x="461.06" y="301.93" width="140.81" height="153" style="fill:#ccc;stroke:#1a1a1a;stroke-linejoin:round;stroke-width:2.70796451505647px"/><path d="M532.12,330.05a24.8,24.8,0,1,1-24.8,24.8,24.81,24.81,0,0,1,24.8-24.8m0,62c27.4,0,49.6,11.1,49.6,24.8v12.4h-99.2v-12.4C482.52,403.15,504.71,392.05,532.12,392.05Z" style="fill:#1677ff"/><path d="M331.57,342.55a29.86,29.86,0,1,1-29.86,29.86,29.85,29.85,0,0,1,29.86-29.86m0,8.53a21.33,21.33,0,1,0,21.32,21.33,21.33,21.33,0,0,0-21.32-21.33m0,8.53a12.8,12.8,0,1,1-12.8,12.8,12.8,12.8,0,0,1,12.8-12.8M306,427.85a8.52,8.52,0,0,1-8.53-8.53,8.11,8.11,0,0,1,1.23-4.39l7.77-13.48a38.45,38.45,0,0,0,50.24,0l7.76,13.48a8.12,8.12,0,0,1,1.24,4.39,8.52,8.52,0,0,1-8.53,8.53Z" style="fill:#1a1a1a"/><line x1="383.89" y1="354.74" x2="461.06" y2="301.93" style="fill:none;stroke:#1a1a1a;stroke-linecap:round;stroke-miterlimit:10;stroke-width:2.70796451505647px"/><line x1="383.89" y1="402.13" x2="461.06" y2="454.93" style="fill:none;stroke:#1a1a1a;stroke-linecap:round;stroke-miterlimit:10;stroke-width:2.70796451505647px"/><path d="M188.16,533.33a8.33,8.33,0,0,1,1.86,1.79v-9.24H193v25.19h-2.76v-2.55a6.69,6.69,0,0,1-2.54,2.44,7.17,7.17,0,0,1-3.36.76,6.75,6.75,0,0,1-5.27-2.58,10,10,0,0,1-2.23-6.84,11.8,11.8,0,0,1,2-6.93,6.66,6.66,0,0,1,5.81-2.93A6.49,6.49,0,0,1,188.16,533.33Zm-6.87,13.72a4.35,4.35,0,0,0,4,2,4.19,4.19,0,0,0,3.5-1.83,8.76,8.76,0,0,0,1.37-5.28,7.82,7.82,0,0,0-1.41-5.13,4.43,4.43,0,0,0-3.49-1.67,4.59,4.59,0,0,0-3.75,1.78,8.15,8.15,0,0,0-1.44,5.23A9.16,9.16,0,0,0,181.29,547.05Z" style="fill:#1a1a1a"/><path d="M210.83,534.59q2.43,2.35,2.43,6.93a11.91,11.91,0,0,1-2.14,7.31c-1.42,1.92-3.64,2.89-6.63,2.89a7.44,7.44,0,0,1-6-2.56,10.11,10.11,0,0,1-2.21-6.85,10.93,10.93,0,0,1,2.33-7.34,7.76,7.76,0,0,1,6.24-2.74A8.22,8.22,0,0,1,210.83,534.59Zm-1.91,12.16a11.57,11.57,0,0,0,1.13-5.14,9.13,9.13,0,0,0-.82-4.17,4.55,4.55,0,0,0-4.42-2.52,4.35,4.35,0,0,0-4.06,2.15,10.08,10.08,0,0,0-1.27,5.19,8.78,8.78,0,0,0,1.27,4.86,4.46,4.46,0,0,0,4,2A4.18,4.18,0,0,0,208.92,546.75Z" style="fill:#1a1a1a"/><path d="M217,532.76H220v2.6a8.18,8.18,0,0,1,2.75-2.31,7.43,7.43,0,0,1,3.23-.7q3.9,0,5.26,2.72a9.52,9.52,0,0,1,.76,4.26v11.74h-3.13V539.53a6.26,6.26,0,0,0-.5-2.7,3,3,0,0,0-3-1.71,6.4,6.4,0,0,0-1.8.22,4.73,4.73,0,0,0-2.22,1.51,4.63,4.63,0,0,0-1,1.87,12.8,12.8,0,0,0-.23,2.76v9.59H217Z" style="fill:#1a1a1a"/><path d="M240.16,527.33a1.93,1.93,0,0,0-1.43,1.06,4.4,4.4,0,0,0-.48,2.1v.2a1,1,0,0,0,.05.21h1.86v3.73H236.5v-3.44a7.6,7.6,0,0,1,.86-3.63,3.46,3.46,0,0,1,2.8-1.84Z" style="fill:#1a1a1a"/><path d="M244.89,527.65H248v5.11h2.93v2.52H248v11.94a1.29,1.29,0,0,0,.65,1.28,2.7,2.7,0,0,0,1.2.19h.48l.6-.06v2.45a8.07,8.07,0,0,1-1.11.22,11.71,11.71,0,0,1-1.24.07,3.35,3.35,0,0,1-2.92-1.1,4.94,4.94,0,0,1-.77-2.87V535.28h-2.48v-2.52h2.48Z" style="fill:#1a1a1a"/><path d="M265.15,532.76l3.52,14.43,3.58-14.43h3.45l3.59,14.34L283,532.76h3.07l-5.31,18.31h-3.2l-3.72-14.17-3.61,14.17h-3.19l-5.28-18.31Z" style="fill:#1a1a1a"/><path d="M302.26,534.59q2.43,2.35,2.43,6.93a11.91,11.91,0,0,1-2.14,7.31c-1.42,1.92-3.63,2.89-6.63,2.89a7.46,7.46,0,0,1-6-2.56,10.11,10.11,0,0,1-2.21-6.85,10.93,10.93,0,0,1,2.33-7.34,7.76,7.76,0,0,1,6.24-2.74A8.18,8.18,0,0,1,302.26,534.59Zm-1.91,12.16a11.57,11.57,0,0,0,1.13-5.14,9.27,9.27,0,0,0-.81-4.17,4.57,4.57,0,0,0-4.43-2.52,4.35,4.35,0,0,0-4.06,2.15,10.08,10.08,0,0,0-1.26,5.19,8.78,8.78,0,0,0,1.26,4.86,4.46,4.46,0,0,0,4,2A4.17,4.17,0,0,0,300.35,546.75Z" style="fill:#1a1a1a"/><path d="M308.55,532.76h2.92v3.17a7,7,0,0,1,1.76-2.25,4.61,4.61,0,0,1,3.23-1.33l.3,0,.7.07v3.25a3.44,3.44,0,0,0-.51-.07l-.5,0a4.38,4.38,0,0,0-3.57,1.5,5.16,5.16,0,0,0-1.25,3.44v10.53h-3.08Z" style="fill:#1a1a1a"/><path d="M320.21,532.76h2.92v3.17a7,7,0,0,1,1.76-2.25,4.57,4.57,0,0,1,3.23-1.33l.29,0,.7.07v3.25a3.32,3.32,0,0,0-.5-.07l-.51,0a4.38,4.38,0,0,0-3.57,1.5,5.21,5.21,0,0,0-1.25,3.44v10.53h-3.07Z" style="fill:#1a1a1a"/><path d="M343.22,532.76h3.4c-.43,1.18-1.4,3.86-2.89,8-1.11,3.15-2.05,5.71-2.8,7.69q-2.67,7-3.76,8.54a4.28,4.28,0,0,1-3.75,1.54,8.07,8.07,0,0,1-1-.05c-.24,0-.52-.1-.87-.19v-2.8a9.72,9.72,0,0,0,1.16.27,5.42,5.42,0,0,0,.64.05,2.18,2.18,0,0,0,1.25-.28,2.59,2.59,0,0,0,.67-.69c.06-.09.27-.56.62-1.4s.61-1.47.77-1.87l-6.77-18.85h3.49l4.9,14.91Z" style="fill:#1a1a1a"/><path d="M358.2,539.74h8.58v3.16H358.2Z" style="fill:#1a1a1a"/><path d="M388,546.18l3.84-13.74H397l-6.39,18.32q-1.85,5.29-2.92,6.57c-.72.85-2.15,1.27-4.31,1.27h-1l-1.18-.06v-3.9l.62,0a6.77,6.77,0,0,0,1.36,0,2.57,2.57,0,0,0,1.1-.39A2.62,2.62,0,0,0,385,553a2.47,2.47,0,0,0,.3-1.13l-6.84-19.45h5.42Z" style="fill:#1a1a1a"/><path d="M415.4,534.8a11.56,11.56,0,0,1,0,14q-2.36,2.93-7.16,2.92t-7.16-2.92a11.56,11.56,0,0,1,0-14q2.35-3,7.16-3T415.4,534.8ZM408.22,536a3.88,3.88,0,0,0-3.29,1.51,8.69,8.69,0,0,0,0,8.64,4.31,4.31,0,0,0,6.57,0,8.69,8.69,0,0,0,0-8.64A3.86,3.86,0,0,0,408.22,536Z" style="fill:#1a1a1a"/><path d="M433.19,548.44a4.47,4.47,0,0,0-.34.51,3.9,3.9,0,0,1-.65.75,6.84,6.84,0,0,1-2.22,1.4,7.51,7.51,0,0,1-2.5.38c-2.76,0-4.61-1-5.57-3a11.27,11.27,0,0,1-.8-4.83V532.44h5v11.23a5.9,5.9,0,0,0,.37,2.39,2.61,2.61,0,0,0,2.62,1.42,3.4,3.4,0,0,0,3.41-2,7.28,7.28,0,0,0,.48-2.89V532.44h4.94v18.63h-4.73Z" style="fill:#1a1a1a"/><path d="M462.81,537.57a2.39,2.39,0,0,0-2.41-1.35,2.88,2.88,0,0,0-2.81,1.35,5.21,5.21,0,0,0-.39,2.29v11.21h-4.94v-18.6H457v2.72a7.85,7.85,0,0,1,1.7-2.07,5.85,5.85,0,0,1,3.68-1.09,5.79,5.79,0,0,1,3.45.94,5.5,5.5,0,0,1,1.61,2.24,6.11,6.11,0,0,1,2.37-2.41,7.28,7.28,0,0,1,3.35-.77,6.49,6.49,0,0,1,2.43.48,5.43,5.43,0,0,1,3.23,4.07,16.9,16.9,0,0,1,.17,2.75l0,11.74h-5V539.21a3.9,3.9,0,0,0-.34-1.75,2.43,2.43,0,0,0-2.39-1.29,2.81,2.81,0,0,0-2.79,1.67,5.28,5.28,0,0,0-.39,2.14v11.09h-4.9V540A6.37,6.37,0,0,0,462.81,537.57Z" style="fill:#1a1a1a"/><path d="M484.17,534.46q1.92-2.46,6.63-2.46a11.73,11.73,0,0,1,5.43,1.21c1.59.81,2.38,2.33,2.38,4.58v8.54c0,.6,0,1.31,0,2.16a2.82,2.82,0,0,0,.29,1.3,1.83,1.83,0,0,0,.72.56v.72h-5.3A5.62,5.62,0,0,1,494,550c-.05-.33-.1-.71-.13-1.13a9.84,9.84,0,0,1-2.33,1.86,6.9,6.9,0,0,1-3.55.91,6.08,6.08,0,0,1-4.18-1.45,5.13,5.13,0,0,1-1.65-4.09,5.3,5.3,0,0,1,2.65-5,11.73,11.73,0,0,1,4.27-1.2l1.66-.2a7.91,7.91,0,0,0,1.93-.43,1.46,1.46,0,0,0,1-1.39,1.64,1.64,0,0,0-.79-1.58,5,5,0,0,0-2.33-.43,3.05,3.05,0,0,0-2.45.85,3.52,3.52,0,0,0-.68,1.71h-4.7A7.08,7.08,0,0,1,484.17,534.46Zm3.62,13.09a2.57,2.57,0,0,0,1.67.56,5,5,0,0,0,2.9-.92,4,4,0,0,0,1.38-3.37V542a5.8,5.8,0,0,1-.93.47,7.9,7.9,0,0,1-1.29.33l-1.1.21a7.06,7.06,0,0,0-2.2.66,2.23,2.23,0,0,0-1.13,2.07A2.15,2.15,0,0,0,487.79,547.55Z" style="fill:#1a1a1a"/><path d="M510.5,546.18l3.85-13.74h5.18l-6.4,18.32q-1.85,5.29-2.92,6.57c-.71.85-2.15,1.27-4.3,1.27h-1.05l-1.18-.06v-3.9l.62,0a6.87,6.87,0,0,0,1.37,0,2.57,2.57,0,0,0,1.09-.39,2.62,2.62,0,0,0,.79-1.21,2.47,2.47,0,0,0,.3-1.13L501,532.44h5.42Z" style="fill:#1a1a1a"/><path d="M547.66,534.8a11.6,11.6,0,0,1,0,14c-1.58,2-4,2.92-7.16,2.92s-5.59-1-7.17-2.92a11.6,11.6,0,0,1,0-14c1.58-2,4-3,7.17-3S546.08,532.83,547.66,534.8ZM540.48,536a3.88,3.88,0,0,0-3.29,1.51,8.69,8.69,0,0,0,0,8.64,4.31,4.31,0,0,0,6.57,0,8.69,8.69,0,0,0,0-8.64A3.86,3.86,0,0,0,540.48,536Z" style="fill:#1a1a1a"/><path d="M551.67,532.44h5.47L561,546.18l4-13.74h5.22l-6.71,18.63h-5.14Z" style="fill:#1a1a1a"/><path d="M588.91,545.6a6.14,6.14,0,0,1-1.72,3.36,8.44,8.44,0,0,1-6.7,2.72,9.47,9.47,0,0,1-6.28-2.29c-1.81-1.52-2.71-4-2.71-7.45,0-3.22.81-5.69,2.45-7.42a8.38,8.38,0,0,1,6.36-2.58,9.64,9.64,0,0,1,4.19.88,7.31,7.31,0,0,1,3.08,2.75,9.37,9.37,0,0,1,1.42,3.84,26.19,26.19,0,0,1,.15,3.69H576.4a4.64,4.64,0,0,0,1.76,3.93,4.12,4.12,0,0,0,2.43.7,3.47,3.47,0,0,0,2.44-.85,4,4,0,0,0,.91-1.28Zm-4.82-5.71a4.24,4.24,0,0,0-1.17-2.93,3.62,3.62,0,0,0-2.61-1,3.3,3.3,0,0,0-2.62,1.06,5.3,5.3,0,0,0-1.17,2.87Z" style="fill:#1a1a1a"/><path d="M601.8,536.93c-2,0-3.28.64-3.95,1.92a7.39,7.39,0,0,0-.56,3.31v8.91h-4.91V532.44H597v3.25a10.42,10.42,0,0,1,2-2.55,5.39,5.39,0,0,1,3.56-1.14h.23l.42,0v5c-.31,0-.58-.06-.82-.07Z" style="fill:#1a1a1a"/><path d="M615.42,536.93c-2,0-3.28.64-3.95,1.92a7.39,7.39,0,0,0-.56,3.31v8.91H606V532.44h4.65v3.25a10.16,10.16,0,0,1,2-2.55,5.35,5.35,0,0,1,3.55-1.14h.23l.42,0v5c-.31,0-.58-.06-.82-.07Z" style="fill:#1a1a1a"/><path d="M624.68,525.72v4.5h-4.94v-4.5Zm0,6.72v18.63h-4.94V532.44Z" style="fill:#1a1a1a"/><path d="M646.35,525.91v25.16h-4.73v-2.58a6.94,6.94,0,0,1-2.38,2.41,6.68,6.68,0,0,1-3.32.75,6.93,6.93,0,0,1-5.49-2.64,10.13,10.13,0,0,1-2.23-6.78,11.61,11.61,0,0,1,2.2-7.5,7.14,7.14,0,0,1,5.87-2.73,5.84,5.84,0,0,1,5.14,2.8v-8.89Zm-13.12,16a7.35,7.35,0,0,0,1,4.12,3.41,3.41,0,0,0,3.08,1.56,3.6,3.6,0,0,0,3.14-1.54,6.78,6.78,0,0,0,1.08-4q0-3.42-1.73-4.89a3.72,3.72,0,0,0-2.46-.89,3.43,3.43,0,0,0-3.14,1.62A7.51,7.51,0,0,0,633.23,541.87Z" style="fill:#1a1a1a"/><path d="M666.72,545.6A6.14,6.14,0,0,1,665,549a8.44,8.44,0,0,1-6.7,2.72,9.47,9.47,0,0,1-6.28-2.29c-1.81-1.52-2.71-4-2.71-7.45,0-3.22.81-5.69,2.45-7.42a8.38,8.38,0,0,1,6.36-2.58,9.64,9.64,0,0,1,4.19.88,7.31,7.31,0,0,1,3.08,2.75,9.37,9.37,0,0,1,1.42,3.84,26.19,26.19,0,0,1,.15,3.69H654.21A4.64,4.64,0,0,0,656,547a4.12,4.12,0,0,0,2.43.7,3.47,3.47,0,0,0,2.44-.85,4,4,0,0,0,.91-1.28Zm-4.82-5.71a4.24,4.24,0,0,0-1.17-2.93,3.62,3.62,0,0,0-2.61-1A3.3,3.3,0,0,0,655.5,537a5.3,5.3,0,0,0-1.17,2.87Z" style="fill:#1a1a1a"/><path d="M187.92,585a1.67,1.67,0,0,0,1.41-.89,2.65,2.65,0,0,0,.21-1.18,2.5,2.5,0,0,0-1.12-2.29,5.91,5.91,0,0,0-3.2-.71,4,4,0,0,0-3.41,1.3,4.34,4.34,0,0,0-.73,2.15h-2.87c0-2.26.79-3.84,2.19-4.72a9,9,0,0,1,4.89-1.33,9.94,9.94,0,0,1,5.24,1.23,4.19,4.19,0,0,1,2,3.83v10.54a1.28,1.28,0,0,0,.2.77c.13.2.4.29.82.29l.47,0,.54-.08v2.27a7.6,7.6,0,0,1-1.09.26,8.89,8.89,0,0,1-1,.05,2.52,2.52,0,0,1-2.3-1.13,4.31,4.31,0,0,1-.53-1.69,8,8,0,0,1-2.7,2.14,8.43,8.43,0,0,1-3.88.9,5.75,5.75,0,0,1-4.16-1.54,5.13,5.13,0,0,1-1.62-3.87,5,5,0,0,1,1.59-3.94A7.62,7.62,0,0,1,183,585.6Zm-6.48,8.31a3.63,3.63,0,0,0,2.31.77,7,7,0,0,0,3.14-.75,4.22,4.22,0,0,0,2.56-4.08v-2.48a5.18,5.18,0,0,1-1.45.61,12.41,12.41,0,0,1-1.74.34l-1.86.24a7,7,0,0,0-2.51.7,2.71,2.71,0,0,0-1.43,2.55A2.53,2.53,0,0,0,181.44,593.3Z" style="fill:#1a1a1a"/><path d="M197.57,577.76h2.92v2.6a8.37,8.37,0,0,1,2.75-2.31,7.46,7.46,0,0,1,3.23-.7q3.9,0,5.27,2.72a9.68,9.68,0,0,1,.75,4.26v11.74h-3.13V584.53a6.27,6.27,0,0,0-.49-2.7,3,3,0,0,0-3-1.71,6.32,6.32,0,0,0-1.79.22,4.64,4.64,0,0,0-2.22,1.51,4.4,4.4,0,0,0-1,1.87,12.18,12.18,0,0,0-.23,2.76v9.59h-3.08Z" style="fill:#1a1a1a"/><path d="M228.48,577.76h3.4c-.43,1.18-1.4,3.86-2.89,8q-1.68,4.73-2.8,7.69-2.67,7-3.76,8.54a4.28,4.28,0,0,1-3.76,1.54,8,8,0,0,1-1-.05c-.24,0-.52-.1-.87-.19v-2.8a9.72,9.72,0,0,0,1.16.27,5.27,5.27,0,0,0,.64.05,2.2,2.2,0,0,0,1.25-.28,2.59,2.59,0,0,0,.67-.69c.06-.09.26-.56.62-1.4s.61-1.47.77-1.87l-6.77-18.85h3.48l4.91,14.91Z" style="fill:#1a1a1a"/><path d="M245.69,577.76l3.52,14.43,3.57-14.43h3.45l3.59,14.34,3.74-14.34h3.08l-5.32,18.31h-3.19L254.4,581.9l-3.6,14.17h-3.2l-5.28-18.31Z" style="fill:#1a1a1a"/><path d="M269.62,577.76h2.92v3.17a7,7,0,0,1,1.76-2.25,4.59,4.59,0,0,1,3.23-1.33l.3,0,.7.07v3.25a3.63,3.63,0,0,0-.51-.07l-.5,0a4.38,4.38,0,0,0-3.57,1.5,5.16,5.16,0,0,0-1.25,3.44v10.53h-3.08Z" style="fill:#1a1a1a"/><path d="M294.45,579.59q2.43,2.35,2.43,6.93a11.91,11.91,0,0,1-2.14,7.31c-1.42,1.92-3.64,2.89-6.63,2.89a7.46,7.46,0,0,1-6-2.56,10.11,10.11,0,0,1-2.21-6.85,10.93,10.93,0,0,1,2.33-7.34,7.76,7.76,0,0,1,6.24-2.74A8.2,8.2,0,0,1,294.45,579.59Zm-1.91,12.16a11.57,11.57,0,0,0,1.13-5.14,9.27,9.27,0,0,0-.81-4.17,4.57,4.57,0,0,0-4.43-2.52,4.35,4.35,0,0,0-4.06,2.15,10.08,10.08,0,0,0-1.26,5.19,8.78,8.78,0,0,0,1.26,4.86,4.46,4.46,0,0,0,4,2A4.18,4.18,0,0,0,292.54,591.75Z" style="fill:#1a1a1a"/><path d="M300.66,577.76h2.92v2.6a8.18,8.18,0,0,1,2.75-2.31,7.46,7.46,0,0,1,3.23-.7q3.9,0,5.26,2.72a9.52,9.52,0,0,1,.76,4.26v11.74h-3.13V584.53a6.26,6.26,0,0,0-.5-2.7,3,3,0,0,0-3-1.71,6.4,6.4,0,0,0-1.8.22,4.73,4.73,0,0,0-2.22,1.51,4.63,4.63,0,0,0-1,1.87,12.8,12.8,0,0,0-.23,2.76v9.59h-3.07Z" style="fill:#1a1a1a"/><path d="M330.3,578.5a8.45,8.45,0,0,1,1.77,1.74v-2.31h2.84v16.65a12.3,12.3,0,0,1-1,5.5q-1.9,3.74-7.2,3.73a8.76,8.76,0,0,1-5-1.33,5.16,5.16,0,0,1-2.25-4.14h3.13a3.55,3.55,0,0,0,.88,1.9,4.51,4.51,0,0,0,3.27,1c2.34,0,3.88-.83,4.6-2.49a14.21,14.21,0,0,0,.6-5.25,6.09,6.09,0,0,1-2.21,2.09,7.47,7.47,0,0,1-3.43.68,7.27,7.27,0,0,1-5.18-2.11q-2.22-2.11-2.22-7c0-3.07.74-5.46,2.24-7.18a6.9,6.9,0,0,1,5.4-2.58A6.62,6.62,0,0,1,330.3,578.5Zm.37,3.3a4.43,4.43,0,0,0-3.55-1.64,4.38,4.38,0,0,0-4.42,3,11.94,11.94,0,0,0-.63,4.25,7.58,7.58,0,0,0,1.25,4.71,4,4,0,0,0,3.36,1.62,4.72,4.72,0,0,0,4.64-3,9.7,9.7,0,0,0,.75-3.95A7.64,7.64,0,0,0,330.67,581.8Z" style="fill:#1a1a1a"/><path d="M359.37,578.33a8.32,8.32,0,0,1,1.85,1.79v-9.24h3v25.19h-2.77v-2.55a6.55,6.55,0,0,1-2.54,2.44,7.1,7.1,0,0,1-3.35.76,6.79,6.79,0,0,1-5.28-2.58A10.09,10.09,0,0,1,348,587.3a11.81,11.81,0,0,1,2-6.93,6.65,6.65,0,0,1,5.81-2.93A6.49,6.49,0,0,1,359.37,578.33Zm-6.87,13.72a4.34,4.34,0,0,0,4,2A4.17,4.17,0,0,0,360,592.2a8.69,8.69,0,0,0,1.37-5.28,7.82,7.82,0,0,0-1.41-5.13,4.39,4.39,0,0,0-3.48-1.67,4.56,4.56,0,0,0-3.75,1.78,8.15,8.15,0,0,0-1.44,5.23A9.07,9.07,0,0,0,352.5,592.05Z" style="fill:#1a1a1a"/><path d="M380.08,578.27a7,7,0,0,1,2.77,2.36,8.19,8.19,0,0,1,1.22,3.24,20.3,20.3,0,0,1,.28,4H371a8,8,0,0,0,1.31,4.48,4.36,4.36,0,0,0,3.78,1.69,4.86,4.86,0,0,0,3.82-1.6,5.43,5.43,0,0,0,1.12-2.14h3a6.15,6.15,0,0,1-.8,2.24,8.23,8.23,0,0,1-1.5,2,7.15,7.15,0,0,1-3.44,1.84,10.56,10.56,0,0,1-2.5.28,7.62,7.62,0,0,1-5.75-2.49,9.69,9.69,0,0,1-2.37-7,10.58,10.58,0,0,1,2.38-7.16,7.83,7.83,0,0,1,6.22-2.76A8.24,8.24,0,0,1,380.08,578.27Zm1.1,7.18a8,8,0,0,0-.86-3.19,4.43,4.43,0,0,0-4.19-2.22,4.61,4.61,0,0,0-3.52,1.53,5.8,5.8,0,0,0-1.51,3.88Z" style="fill:#1a1a1a"/><path d="M388.86,572.65H392v5.11h2.92v2.52H392v11.94a1.27,1.27,0,0,0,.65,1.28,2.65,2.65,0,0,0,1.19.19h.48l.6-.06v2.45a7.65,7.65,0,0,1-1.1.22,11.86,11.86,0,0,1-1.24.07,3.34,3.34,0,0,1-2.92-1.1,4.87,4.87,0,0,1-.77-2.87V580.28h-2.48v-2.52h2.48Z" style="fill:#1a1a1a"/><path d="M409.27,578.27a7,7,0,0,1,2.77,2.36,8.19,8.19,0,0,1,1.22,3.24,20.3,20.3,0,0,1,.28,4H400.22a7.9,7.9,0,0,0,1.31,4.48,4.36,4.36,0,0,0,3.78,1.69,4.82,4.82,0,0,0,3.81-1.6,5.32,5.32,0,0,0,1.13-2.14h3a6.34,6.34,0,0,1-.8,2.24,8.23,8.23,0,0,1-1.5,2,7.15,7.15,0,0,1-3.44,1.84,10.56,10.56,0,0,1-2.5.28,7.62,7.62,0,0,1-5.75-2.49,9.69,9.69,0,0,1-2.37-7,10.58,10.58,0,0,1,2.38-7.16,7.83,7.83,0,0,1,6.22-2.76A8.24,8.24,0,0,1,409.27,578.27Zm1.1,7.18a8,8,0,0,0-.86-3.19,4.43,4.43,0,0,0-4.19-2.22,4.61,4.61,0,0,0-3.52,1.53,5.8,5.8,0,0,0-1.51,3.88Z" style="fill:#1a1a1a"/><path d="M429.52,578.74c1.3,1,2.07,2.73,2.34,5.18h-3a5.55,5.55,0,0,0-1.25-2.81,3.93,3.93,0,0,0-3.13-1.12,4.31,4.31,0,0,0-4.2,2.86,11.31,11.31,0,0,0-.83,4.59,8.58,8.58,0,0,0,1.17,4.63,4.51,4.51,0,0,0,6.69.71,6.51,6.51,0,0,0,1.55-3.19h3a7.25,7.25,0,0,1-7.82,7,7,7,0,0,1-5.72-2.63,10.06,10.06,0,0,1-2.14-6.55q0-4.81,2.35-7.5a7.55,7.55,0,0,1,6-2.69A8,8,0,0,1,429.52,578.74Z" style="fill:#1a1a1a"/><path d="M435.55,572.65h3.11v5.11h2.92v2.52h-2.92v11.94a1.27,1.27,0,0,0,.65,1.28,2.65,2.65,0,0,0,1.19.19H441l.6-.06v2.45a7.65,7.65,0,0,1-1.1.22,11.86,11.86,0,0,1-1.24.07,3.34,3.34,0,0,1-2.92-1.1,4.87,4.87,0,0,1-.77-2.87V580.28h-2.48v-2.52h2.48Z" style="fill:#1a1a1a"/><path d="M444.66,571h3.12v3.49h-3.12Zm0,6.89h3.12v18.22h-3.12Z" style="fill:#1a1a1a"/><path d="M465.69,579.59q2.43,2.35,2.43,6.93a11.91,11.91,0,0,1-2.14,7.31c-1.42,1.92-3.64,2.89-6.63,2.89a7.46,7.46,0,0,1-6-2.56,10.11,10.11,0,0,1-2.21-6.85,10.93,10.93,0,0,1,2.33-7.34,7.76,7.76,0,0,1,6.24-2.74A8.18,8.18,0,0,1,465.69,579.59Zm-1.91,12.16a11.57,11.57,0,0,0,1.13-5.14,9.27,9.27,0,0,0-.81-4.17,4.57,4.57,0,0,0-4.43-2.52,4.35,4.35,0,0,0-4.06,2.15,10.08,10.08,0,0,0-1.26,5.19,8.78,8.78,0,0,0,1.26,4.86,4.46,4.46,0,0,0,4,2A4.18,4.18,0,0,0,463.78,591.75Z" style="fill:#1a1a1a"/><path d="M471.9,577.76h2.92v2.6a8.18,8.18,0,0,1,2.75-2.31,7.46,7.46,0,0,1,3.23-.7q3.9,0,5.26,2.72a9.52,9.52,0,0,1,.76,4.26v11.74h-3.13V584.53a6.26,6.26,0,0,0-.5-2.7,3,3,0,0,0-3-1.71,6.4,6.4,0,0,0-1.8.22,4.73,4.73,0,0,0-2.22,1.51,4.63,4.63,0,0,0-1,1.87,12.8,12.8,0,0,0-.23,2.76v9.59H471.9Z" style="fill:#1a1a1a"/><rect x="198.33" y="272.69" width="479.75" height="214.03" rx="19.44" style="fill:none;stroke:#b3b3b3;stroke-linecap:round;stroke-miterlimit:10;stroke-width:1.2957475797648px"/></svg>